<svg width="18" height="17" viewBox="0 0 18 17" fill="none" xmlns="http://www.w3.org/2000/svg">
<path d="M13.909 11.8279C14.9977 12.8604 16.0651 13.8771 17.1382 14.8873C17.4455 15.1767 17.6377 15.5005 17.5353 15.9217C17.345 16.7065 16.3763 16.9477 15.7343 16.353C14.7334 15.4254 13.7529 14.4782 12.7685 13.5357C12.6661 13.4374 12.59 13.3149 12.4797 13.1758C10.2417 14.6777 7.86511 15.0998 5.31196 14.3261C3.52661 13.7852 2.1432 12.7203 1.15589 11.2063C-0.823608 8.171 -0.208978 4.22469 2.60368 1.84708C5.39391 -0.511983 9.58022 -0.61681 12.5148 1.56414C15.4563 3.74973 16.6699 8.16543 13.909 11.8279ZM7.73633 12.7138C10.8612 12.7138 13.3714 10.3297 13.3753 7.35836C13.3782 4.37498 10.8329 1.95562 7.70706 1.97139C4.60074 1.98716 2.06613 4.41579 2.07979 7.363C2.09344 10.3269 4.61538 12.7138 7.73633 12.7138Z" fill="#363636"/>
</svg>
