<svg width="80" height="17" viewBox="0 0 80 17" fill="none" xmlns="http://www.w3.org/2000/svg">
<path d="M9 1L1 8.5L9 16" stroke="#E40424"/>
<path d="M21.274 14L15.838 1.4H18.988L23.74 12.56H21.886L26.71 1.4H29.608L24.154 14H21.274ZM35.2493 14.144C34.2173 14.144 33.2993 13.928 32.4953 13.496C31.7033 13.064 31.0733 12.476 30.6053 11.732C30.1493 10.976 29.9213 10.118 29.9213 9.158C29.9213 8.186 30.1493 7.328 30.6053 6.584C31.0733 5.828 31.7033 5.24 32.4953 4.82C33.2993 4.388 34.2173 4.172 35.2493 4.172C36.2693 4.172 37.1813 4.388 37.9853 4.82C38.7893 5.24 39.4193 5.822 39.8753 6.566C40.3313 7.31 40.5593 8.174 40.5593 9.158C40.5593 10.118 40.3313 10.976 39.8753 11.732C39.4193 12.476 38.7893 13.064 37.9853 13.496C37.1813 13.928 36.2693 14.144 35.2493 14.144ZM35.2493 11.84C35.7173 11.84 36.1373 11.732 36.5093 11.516C36.8813 11.3 37.1753 10.994 37.3913 10.598C37.6073 10.19 37.7153 9.71 37.7153 9.158C37.7153 8.594 37.6073 8.114 37.3913 7.718C37.1753 7.322 36.8813 7.016 36.5093 6.8C36.1373 6.584 35.7173 6.476 35.2493 6.476C34.7813 6.476 34.3613 6.584 33.9893 6.8C33.6173 7.016 33.3173 7.322 33.0893 7.718C32.8733 8.114 32.7653 8.594 32.7653 9.158C32.7653 9.71 32.8733 10.19 33.0893 10.598C33.3173 10.994 33.6173 11.3 33.9893 11.516C34.3613 11.732 34.7813 11.84 35.2493 11.84ZM43.3362 14V0.643999H46.1442V14H43.3362ZM52.2783 14L48.2103 4.316H51.1083L54.4923 12.65H53.0523L56.5623 4.316H59.2623L55.1763 14H52.2783ZM65.8504 14.144C64.7464 14.144 63.7744 13.928 62.9344 13.496C62.1064 13.064 61.4644 12.476 61.0084 11.732C60.5524 10.976 60.3244 10.118 60.3244 9.158C60.3244 8.186 60.5464 7.328 60.9904 6.584C61.4464 5.828 62.0644 5.24 62.8444 4.82C63.6244 4.388 64.5064 4.172 65.4904 4.172C66.4384 4.172 67.2904 4.376 68.0464 4.784C68.8144 5.18 69.4204 5.756 69.8644 6.512C70.3084 7.256 70.5304 8.15 70.5304 9.194C70.5304 9.302 70.5244 9.428 70.5124 9.572C70.5004 9.704 70.4884 9.83 70.4764 9.95H62.6104V8.312H69.0004L67.9204 8.798C67.9204 8.294 67.8184 7.856 67.6144 7.484C67.4104 7.112 67.1284 6.824 66.7684 6.62C66.4084 6.404 65.9884 6.296 65.5084 6.296C65.0284 6.296 64.6024 6.404 64.2304 6.62C63.8704 6.824 63.5884 7.118 63.3844 7.502C63.1804 7.874 63.0784 8.318 63.0784 8.834V9.266C63.0784 9.794 63.1924 10.262 63.4204 10.67C63.6604 11.066 63.9904 11.372 64.4104 11.588C64.8424 11.792 65.3464 11.894 65.9224 11.894C66.4384 11.894 66.8884 11.816 67.2724 11.66C67.6684 11.504 68.0284 11.27 68.3524 10.958L69.8464 12.578C69.4024 13.082 68.8444 13.472 68.1724 13.748C67.5004 14.012 66.7264 14.144 65.8504 14.144ZM73.2999 14V4.316H75.9819V7.052L75.6039 6.26C75.8919 5.576 76.3539 5.06 76.9899 4.712C77.6259 4.352 78.3999 4.172 79.3119 4.172V6.764C79.1919 6.752 79.0839 6.746 78.9879 6.746C78.8919 6.734 78.7899 6.728 78.6819 6.728C77.9139 6.728 77.2899 6.95 76.8099 7.394C76.3419 7.826 76.1079 8.504 76.1079 9.428V14H73.2999Z" fill="#E40424"/>
<path d="M16 16.25H79.7619V17.15H16V16.25Z" fill="#E40424"/>
</svg>
