<svg width="47" height="47" viewBox="0 0 47 47" fill="none" xmlns="http://www.w3.org/2000/svg">
<circle cx="23.5" cy="23.5" r="23.5" fill="#64B061"/>
<path d="M23.5716 8.00026C23.1019 8.034 22.6589 8.01447 22.2136 8.05295C21.1464 8.14531 20.1107 8.36733 19.0958 8.6894C17.5958 9.166 16.2165 9.88415 14.9507 10.8143C13.9839 11.5247 13.1225 12.3536 12.3614 13.2742C11.5303 14.2795 10.8537 15.3843 10.3192 16.5802C9.6295 18.1237 9.22819 19.7364 9.11403 21.4119C9.03615 22.5593 9.07598 23.7144 9.28942 24.8511C9.58491 26.4259 10.076 27.9351 10.8864 29.3299C10.9536 29.446 11.0297 29.5596 10.9845 29.7165C10.7496 30.5377 10.5207 31.3606 10.2936 32.1848C9.87148 33.7182 9.4553 35.2534 9.02961 36.7862C8.97491 36.9833 8.98442 37.0378 9.20976 36.9756C9.91251 36.7814 10.6206 36.6068 11.3263 36.4238C12.7955 36.0431 14.2681 35.6784 15.7307 35.2741C16.2658 35.1261 16.7171 35.0645 17.2688 35.3457C18.9638 36.2089 20.7956 36.6488 22.6928 36.7731C23.7975 36.8454 24.9057 36.785 25.9973 36.5884C27.7221 36.2776 29.3493 35.6915 30.8619 34.7999C32.2941 33.9556 33.5563 32.9059 34.6218 31.6348C35.6283 30.4341 36.4238 29.1026 36.9994 27.642C37.6242 26.0541 37.969 24.4124 37.9982 22.7061C38.0101 21.9974 37.9625 21.2941 37.8864 20.5889C37.7746 19.5576 37.5184 18.5618 37.1813 17.5879C36.5659 15.8082 35.6057 14.2203 34.3483 12.8213C33.2062 11.5514 31.8863 10.4898 30.369 9.68818C28.2352 8.55974 25.9634 7.98664 23.5716 8.00026Z" fill="#E5E5E5"/>
<path d="M23.5716 8.00026C25.9628 7.98605 28.2352 8.55974 30.3672 9.68641C31.8845 10.4886 33.205 11.5496 34.3465 12.8195C35.6046 14.2185 36.5648 15.8064 37.1795 17.5861C37.516 18.56 37.7723 19.5558 37.8846 20.5872C37.9613 21.2923 38.0089 21.9962 37.9964 22.7043C37.9673 24.4106 37.6224 26.0524 36.9976 27.6402C36.4227 29.1008 35.6266 30.4323 34.62 31.633C33.5546 32.9041 32.293 33.9538 30.8601 34.7981C29.3476 35.6891 27.7209 36.2752 25.9955 36.5866C24.904 36.7838 23.7957 36.8442 22.6911 36.7714C20.7939 36.647 18.9621 36.2071 17.267 35.3439C16.7153 35.0633 16.264 35.1243 15.729 35.2723C14.267 35.6773 12.7937 36.042 11.3246 36.4221C10.6188 36.605 9.91074 36.7797 9.20799 36.9738C8.98266 37.036 8.97314 36.9815 9.02784 36.7844C9.45354 35.2516 9.87031 33.7164 10.2918 32.183C10.5184 31.3595 10.7473 30.5365 10.9827 29.7148C11.0273 29.5579 10.9518 29.4442 10.8846 29.3282C10.0748 27.9333 9.58315 26.4242 9.28766 24.8493C9.07422 23.7126 9.03438 22.5575 9.11227 21.4101C9.22642 19.7352 9.62774 18.1219 10.3174 16.5784C10.8519 15.3825 11.5291 14.2777 12.3597 13.2724C13.1207 12.3512 13.9828 11.5229 14.9489 10.8125C16.2147 9.88237 17.594 9.16422 19.0941 8.68762C20.1096 8.36496 21.1447 8.14294 22.2119 8.05117C22.659 8.01506 23.1019 8.034 23.5716 8.00026ZM23.4711 10.433C22.933 10.4158 22.301 10.4756 21.6762 10.5774C19.3842 10.951 17.3497 11.8841 15.6148 13.4281C13.091 15.6738 11.7259 18.4919 11.5535 21.8536C11.4215 24.4207 12.0993 26.7895 13.5054 28.9463C13.6171 29.1174 13.6427 29.2689 13.5862 29.4697C13.2224 30.7585 12.8745 32.0522 12.5154 33.3422C12.4584 33.5465 12.4768 33.6027 12.7116 33.5394C14.0196 33.1889 15.333 32.8603 16.6398 32.5074C16.8913 32.4394 17.0839 32.4678 17.3063 32.6004C19.996 34.1989 22.8879 34.7116 25.9575 34.1012C32.2389 32.852 36.4161 26.7918 35.3876 20.4557C34.4517 14.6874 29.4469 10.443 23.4711 10.433Z" fill="#F5F5F5"/>
<path d="M23.4711 10.433C29.4469 10.443 34.4523 14.6874 35.3887 20.4563C36.4173 26.7924 32.2394 32.8526 25.9587 34.1018C22.889 34.7122 19.9972 34.1995 17.3074 32.601C17.0845 32.4684 16.8919 32.44 16.641 32.508C15.3342 32.8609 14.0202 33.1895 12.7128 33.54C12.478 33.6027 12.4595 33.5471 12.5166 33.3428C12.8757 32.0527 13.2235 30.7591 13.5874 29.4702C13.6439 29.2695 13.6183 29.118 13.5065 28.9469C12.1004 26.7895 11.4227 24.4207 11.5546 21.8542C11.7271 18.4925 13.0921 15.6744 15.616 13.4287C17.3514 11.8847 19.3854 10.9516 21.6774 10.578C22.301 10.4756 22.9324 10.4158 23.4711 10.433ZM27.492 29.282C27.6436 29.2743 27.8041 29.2796 27.9599 29.2559C29.4552 29.0262 30.9457 28.0404 30.8696 26.1062C30.8613 25.9008 30.8119 25.7398 30.6187 25.6433C29.6276 25.1501 28.6478 24.6326 27.6198 24.2182C27.2042 24.0506 27.0758 24.1016 26.8106 24.4609C26.47 24.9221 26.0966 25.3567 25.7244 25.793C25.5413 26.008 25.3284 26.0648 25.0621 25.9612C22.8867 25.114 21.2267 23.6706 20.0394 21.6748C19.8854 21.4166 19.911 21.2041 20.1048 20.9761C20.4246 20.6002 20.7267 20.2094 20.9984 19.7956C21.1536 19.5594 21.1696 19.3285 21.0596 19.0692C20.694 18.2071 20.3289 17.3445 19.9829 16.4748C19.7796 15.9639 19.4567 15.6785 18.8782 15.7484C18.7415 15.7649 18.6012 15.7513 18.4626 15.7478C18.0934 15.7383 17.7843 15.8804 17.528 16.1314C17.245 16.4085 16.981 16.7045 16.7795 17.0473C16.0702 18.2563 16.0583 19.5138 16.5167 20.8062C16.8782 21.8257 17.5013 22.6919 18.1321 23.5515C19.858 25.9032 21.9479 27.7882 24.8035 28.6917C25.681 28.9688 26.5461 29.2885 27.492 29.282Z" fill="#64B061"/>
<path d="M27.492 29.282C26.5461 29.2885 25.681 28.9694 24.8041 28.6917C21.9491 27.7882 19.8586 25.9032 18.1327 23.5516C17.5019 22.6919 16.8788 21.8257 16.5173 20.8062C16.0589 19.5138 16.0708 18.2563 16.7801 17.0473C16.981 16.7045 17.2456 16.4085 17.5286 16.1314C17.7849 15.8804 18.094 15.7377 18.4632 15.7478C18.6018 15.7513 18.7427 15.7649 18.8788 15.7484C19.4579 15.6779 19.7808 15.9639 19.9835 16.4748C20.3295 17.3445 20.6952 18.2071 21.0602 19.0692C21.1702 19.3291 21.1542 19.56 20.999 19.7956C20.7273 20.2089 20.4252 20.6002 20.1054 20.9761C19.9116 21.2035 19.886 21.416 20.04 21.6748C21.2273 23.6706 22.8872 25.114 25.0627 25.9612C25.329 26.0648 25.5419 26.008 25.725 25.793C26.0966 25.3567 26.47 24.9227 26.8112 24.4609C27.0764 24.1022 27.2048 24.0512 27.6204 24.2182C28.6484 24.6326 29.6282 25.1501 30.6193 25.6433C30.8125 25.7392 30.8625 25.9008 30.8702 26.1062C30.9463 28.041 29.4558 29.0262 27.9605 29.2559C27.8041 29.2796 27.6436 29.2737 27.492 29.282Z" fill="#F5F5F5"/>
</svg>
