<svg width="58" height="41" viewBox="0 0 58 41" fill="none" xmlns="http://www.w3.org/2000/svg">
<path d="M0 4.88095C0 2.18528 2.16396 0 4.83333 0H53.1667C55.836 0 58 2.18528 58 4.88095C58 7.57663 55.836 9.7619 53.1667 9.7619H4.83333C2.16396 9.7619 0 7.57663 0 4.88095Z" fill="#E40424"/>
<path d="M0 20.5C0 17.8043 2.16396 15.619 4.83333 15.619H53.1667C55.836 15.619 58 17.8043 58 20.5C58 23.1957 55.836 25.381 53.1667 25.381H4.83333C2.16396 25.381 0 23.1957 0 20.5Z" fill="#E40424"/>
<path d="M0 36.119C0 33.4234 2.16396 31.2381 4.83333 31.2381H53.1667C55.836 31.2381 58 33.4234 58 36.119C58 38.8147 55.836 41 53.1667 41H4.83333C2.16396 41 0 38.8147 0 36.119Z" fill="#E40424"/>
</svg>
