<svg width="44" height="44" viewBox="0 0 44 44" fill="none" xmlns="http://www.w3.org/2000/svg">
<path d="M1.45148 1.45136C3.35761 -0.45477 6.43299 -0.469847 8.32052 1.41769L42.4973 35.5945C44.3849 37.4821 44.3698 40.5574 42.4637 42.4636C40.5575 44.3697 37.4822 44.3848 35.5946 42.4972L1.41781 8.3204C-0.469725 6.43286 -0.45465 3.35749 1.45148 1.45136Z" fill="#E40424"/>
<path d="M1.45136 42.4638C-0.45477 40.5577 -0.469847 37.4823 1.41769 35.5948L35.5945 1.41794C37.4821 -0.469589 40.5574 -0.454511 42.4636 1.45162C44.3697 3.35775 44.3848 6.43312 42.4972 8.32065L8.3204 42.4975C6.43286 44.385 3.35749 44.3699 1.45136 42.4638Z" fill="#E40424"/>
</svg>
