<svg width="28" height="26" viewBox="0 0 28 26" fill="none" xmlns="http://www.w3.org/2000/svg">
<path d="M14.4557 26C13.823 26 13.1902 26 12.5575 26C12.2464 25.9604 11.9348 25.9253 11.6248 25.8812C8.96253 25.5002 6.60613 24.4713 4.59245 22.7496C2.25081 20.7475 0.781817 18.2599 0.219212 15.2868C0.133266 14.8317 0.0779015 14.3706 0.00830078 13.9125C0.00830078 13.303 0.00830078 12.6935 0.00830078 12.0841C0.0478466 11.7921 0.0821197 11.499 0.126938 11.2075C0.512378 8.68638 1.52528 6.42631 3.28902 4.5238C6.61773 0.93207 10.7964 -0.547384 15.7317 0.180408C19.1991 0.691843 22.0253 2.37597 24.1734 5.04894C26.4845 7.92405 27.3693 11.1984 26.8763 14.7957C26.5288 17.3315 25.4521 19.5743 23.7047 21.5022C21.6172 23.8049 19.0093 25.2463 15.8815 25.7968C15.409 25.8801 14.9313 25.933 14.4557 26ZM14.6909 10.8012C14.6777 10.7438 14.6703 10.7275 14.6703 10.7113C14.6693 10.2461 14.6677 9.78086 14.6677 9.31513C14.6682 8.70822 14.8934 8.49186 15.524 8.49084C16.0397 8.49034 16.5553 8.49084 17.08 8.49084C17.08 7.62288 17.08 6.78285 17.08 5.93215C16.1319 5.93215 15.2018 5.90523 14.2733 5.93824C12.8876 5.98751 11.8673 6.80316 11.5541 8.10841C11.4529 8.53148 11.4407 8.9779 11.4202 9.41468C11.3986 9.86771 11.4154 10.3218 11.4154 10.8032C10.8818 10.8032 10.3862 10.8032 9.88 10.8032C9.88 11.6986 9.88 12.5656 9.88 13.4645C10.3957 13.4645 10.8987 13.4645 11.4323 13.4645C11.4323 15.9871 11.4323 18.4773 11.4323 20.9705C12.5232 20.9705 13.582 20.9705 14.6666 20.9705C14.6666 18.4651 14.6666 15.9734 14.6666 13.4559C15.4069 13.4559 16.1224 13.4559 16.8575 13.4559C16.9524 12.5635 17.0452 11.6956 17.1406 10.8012C16.3091 10.8012 15.5045 10.8012 14.6909 10.8012Z" fill="#E40424"/>
</svg>
