<svg width="27" height="26" viewBox="0 0 27 26" fill="none" xmlns="http://www.w3.org/2000/svg">
<path d="M12.0942 0C12.7036 0 13.313 0 13.9224 0C14.3312 0.0548356 14.7415 0.0969778 15.1477 0.167046C17.5045 0.574251 19.6083 1.53438 21.4248 3.09466C23.7856 5.12256 25.2583 7.66734 25.8092 10.7356C25.8895 11.1824 25.9428 11.6348 26.0083 12.0841C26.0083 12.6934 26.0083 13.3027 26.0083 13.912C25.9915 13.9851 25.9692 14.0577 25.959 14.1313C25.8996 14.566 25.8681 15.0062 25.7823 15.4357C25.1455 18.6289 23.5581 21.2554 20.9876 23.2523C18.1027 25.4935 14.8156 26.35 11.202 25.8717C8.65939 25.5351 6.40978 24.4973 4.47908 22.803C2.18936 20.7939 0.755801 18.2892 0.210918 15.2864C0.128145 14.831 0.075332 14.3705 0.00830078 13.912C0.00830078 13.3027 0.00830078 12.6934 0.00830078 12.0841C0.0458789 11.7922 0.0793945 11.4997 0.122051 11.2083C0.49123 8.67977 1.4901 6.43202 3.17045 4.50465C5.18951 2.18835 7.71334 0.740281 10.7465 0.200048C11.1929 0.120334 11.6448 0.0660058 12.0942 0ZM20.4234 12.9981C20.3949 12.9981 20.4518 12.9976 20.4234 12.9981C20.3787 11.7815 20.4447 10.562 20.367 9.34744C20.3152 8.54319 20.04 7.79783 19.5372 7.15148C18.6729 6.04055 17.4745 5.61608 16.1308 5.59374C14.0503 5.55871 11.9688 5.56734 9.88779 5.59171C8.91889 5.60339 7.99568 5.83898 7.20197 6.43963C6.06295 7.30177 5.62522 8.51171 5.60236 9.87549C5.56783 11.9557 5.57596 14.0374 5.60084 16.1176C5.61252 17.0955 5.85119 18.0262 6.46412 18.8233C7.3274 19.9475 8.53193 20.3801 9.88525 20.4029C11.9658 20.4385 14.0473 20.4298 16.1283 20.4044C17.1063 20.3928 18.0362 20.1516 18.8339 19.5387C19.9496 18.6817 20.369 17.4885 20.4163 16.144C20.4523 15.0966 20.4234 14.0471 20.4234 12.9981Z" fill="#E40424"/>
<path d="M6.84803 12.9991C6.88814 11.8318 6.90186 10.6645 6.97498 9.50078C7.06486 8.06794 8.07338 7.01693 9.50236 6.97326C11.7073 6.90573 13.9147 6.91944 16.1212 6.92604C16.7575 6.92808 17.3831 7.06973 17.9234 7.44292C18.6445 7.9405 19.0101 8.66758 19.0376 9.51043C19.098 11.3774 19.1087 13.2464 19.1097 15.1148C19.1097 15.7282 19.0807 16.3557 18.9522 16.9523C18.6846 18.1963 17.7741 18.9823 16.5015 19.0269C14.6181 19.093 12.7315 19.094 10.846 19.0985C10.2737 19.1001 9.69127 19.0731 9.13064 18.9686C7.86873 18.734 7.05318 17.7957 6.97498 16.4974C6.90389 15.3332 6.88764 14.1659 6.84803 12.9991ZM13.0068 9.17735C10.8821 9.17786 9.18904 10.8691 9.18701 12.9925C9.18447 15.1158 10.875 16.8127 12.9971 16.8183C15.1315 16.8239 16.8331 15.124 16.8296 12.99C16.8255 10.8661 15.132 9.17684 13.0068 9.17735ZM16.9901 9.90341C17.4765 9.90494 17.8797 9.50789 17.8848 9.023C17.8899 8.53811 17.4933 8.13091 17.0088 8.12227C16.5127 8.11364 16.1019 8.51932 16.1034 9.0169C16.1049 9.50433 16.5021 9.90189 16.9901 9.90341Z" fill="#E40424"/>
<path d="M13.0286 10.5112C14.4088 10.5157 15.5027 11.6328 15.4956 13.0306C15.4885 14.3964 14.3723 15.489 12.9885 15.4845C11.6098 15.4799 10.5149 14.3613 10.5215 12.9646C10.5281 11.6008 11.6453 10.5071 13.0286 10.5112Z" fill="#E40424"/>
</svg>
