<svg width="31" height="31" viewBox="0 0 31 31" fill="none" xmlns="http://www.w3.org/2000/svg">
<path d="M15.2573 0.918947C23.5061 0.915431 30.2421 7.63731 30.2432 15.8732C30.2444 24.2064 23.5471 30.9189 15.2304 30.9189C6.92996 30.9189 0.237385 24.1877 0.243244 15.8451C0.247932 7.61973 6.98504 0.922462 15.2573 0.918947ZM19.8698 23.7553C20.9854 23.7553 22.0284 23.7553 23.1206 23.7553C23.1206 21.8252 23.1241 19.935 23.1182 18.0447C23.1171 17.5373 23.1276 17.024 23.0585 16.5248C22.7093 13.9971 21.4389 12.8826 19.0565 13.0057C17.8507 13.0678 16.8628 13.5775 16.0518 14.549C16.0518 14.1354 16.0518 13.7217 16.0518 13.315C14.9761 13.315 13.9729 13.315 12.9721 13.315C12.9721 16.8271 12.9721 20.29 12.9721 23.7529C14.062 23.7529 15.1038 23.7529 16.1854 23.7529C16.1854 21.974 16.1643 20.2397 16.1983 18.5053C16.2089 17.9697 16.2991 17.4107 16.4784 16.908C16.7503 16.1451 17.4218 15.8416 18.3956 15.9096C19.1163 15.9611 19.571 16.3314 19.7304 17.1529C19.8452 17.74 19.8593 18.3529 19.8651 18.9553C19.8804 20.5338 19.8698 22.1135 19.8698 23.7553ZM10.8452 23.7647C10.8452 20.2397 10.8452 16.7814 10.8452 13.3045C9.75535 13.3045 8.71238 13.3045 7.65184 13.3045C7.65184 16.8061 7.65184 20.2701 7.65184 23.7647C8.7241 23.7647 9.76824 23.7647 10.8452 23.7647ZM9.2491 11.8209C10.2944 11.8139 11.144 10.9561 11.1382 9.91543C11.1323 8.87598 10.2745 8.04043 9.22098 8.04512C8.1534 8.05098 7.3366 8.87715 7.34363 9.94356C7.35067 11.0006 8.1909 11.8279 9.2491 11.8209Z" fill="#E40424"/>
</svg>
