<svg width="83" height="83" viewBox="0 0 83 83" fill="none" xmlns="http://www.w3.org/2000/svg">
<path fill-rule="evenodd" clip-rule="evenodd" d="M39.4789 40.2248C39.4789 40.5926 39.4683 40.7712 39.4789 40.9604C39.5635 42.4419 39.0136 43.6817 37.8609 44.5643C36.9832 45.2368 35.968 45.7411 35.0163 46.319C34.7519 46.4766 34.2549 46.5082 34.4981 47.002C35.0269 48.0527 34.8894 48.2734 35.6296 48.0212C36.5391 47.7165 37.5014 47.3592 38.2416 46.7708C39.8173 45.552 40.8007 43.9444 40.5046 41.843C40.42 41.2546 40.272 40.6241 39.4789 40.2248ZM35.0692 52.7284C35.1115 52.7915 35.1643 52.8545 35.2172 52.9071C35.7988 52.6864 36.3805 52.4868 36.9515 52.2346C39.5741 51.0788 42.0697 49.7234 43.7934 47.3487C45.0518 45.6151 45.3162 43.7238 44.4913 41.7169C44.4173 41.5488 44.2376 41.4227 44.1001 41.2756C44.0472 41.4542 43.952 41.6328 43.9415 41.8114C43.8886 42.3368 43.9415 42.8727 43.8251 43.377C43.2752 45.6676 41.5621 46.8654 39.5318 47.6955C38.3579 48.1788 37.1313 48.5466 35.9257 48.9353C35.471 49.0824 35.3335 49.2926 35.3864 49.8074C35.4499 50.4799 35.3441 51.1839 35.2807 51.8668C35.2489 52.161 35.1432 52.4447 35.0692 52.7284ZM36.7294 53.8737C36.9726 54.0839 37.1101 54.1994 37.237 54.315C37.6071 54.6302 38.0407 54.9034 38.3156 55.2817C38.6435 55.7545 39.0136 55.7966 39.4577 55.5969C40.6527 55.061 41.9111 54.6197 43.0214 53.9368C45.4114 52.4763 47.3571 50.5324 48.5838 47.9792C49.3769 46.319 49.6096 44.5959 49.0174 42.8096C48.9328 42.5469 48.7213 42.3158 48.5732 42.0741C48.5098 42.0741 48.4358 42.0741 48.3723 42.0741C47.3571 48.7567 42.8946 52.077 36.7294 53.8737ZM36.0632 9.2916C33.8108 9.2916 32.0659 9.64884 30.4057 10.3528C29.179 10.8677 28.0792 11.5612 27.2649 12.6434C26.6939 13.3999 26.641 14.3981 27.1698 14.9865C27.7302 15.6064 29.0627 15.8376 29.7077 15.3858C30.3528 14.934 30.9661 14.4506 31.5795 13.9568C32.859 12.9271 34.2972 12.2441 35.9046 11.8974C37.0572 11.6557 38.0301 11.8028 38.58 13.0006C38.7386 13.3579 38.9713 13.3159 39.2357 13.0742C39.6904 12.6539 40.1239 12.2231 40.621 11.8554C41.3083 11.33 41.3189 11.1829 40.5998 10.668C39.077 9.64884 37.3851 9.32312 36.0632 9.2916ZM27.7937 68.3842C27.2438 68.3842 26.7891 68.3632 26.3449 68.3947C26.1652 68.4052 25.9854 68.5208 25.8162 68.5838C25.9431 68.6994 26.0594 68.857 26.2075 68.9411C27.6668 69.7081 29.2107 70.2335 30.8287 70.5382C33.5993 71.053 36.2747 70.8744 38.654 69.2038C40.3143 68.0375 41.4141 66.5139 41.1603 64.3389C41.044 63.3723 40.4835 62.7208 39.6692 62.2585C39.3626 62.0799 39.0982 62.1324 38.9819 62.5212C38.3897 64.5701 36.9092 65.8204 35.1009 66.7451C32.7744 67.9114 30.247 68.2581 27.7937 68.3842ZM53.8078 46.7393C53.7443 46.3716 53.6492 45.6781 53.5117 44.9951C53.4905 44.8901 53.3213 44.8165 53.2262 44.7324C53.1521 44.827 53.0464 44.9111 53.0147 45.0056C52.9195 45.3524 52.8878 45.7096 52.782 46.0564C52.0629 48.3574 50.6882 50.2067 48.8905 51.8038C46.1833 54.21 43.0955 55.7755 39.4472 56.1223C39.003 56.1643 38.9713 56.3534 39.077 56.7107C39.2145 57.173 39.3943 57.6353 39.426 58.1081C39.5 59.0012 39.4683 59.0012 40.3883 58.9592C40.5152 58.9487 40.6421 58.9277 40.769 58.9172C44.576 58.4654 47.7378 56.7107 50.4344 54.0839C52.4225 52.1611 53.7232 49.902 53.8078 46.7393ZM37.8609 71.1791C38.3157 71.2422 38.58 71.3157 38.8444 71.3157C40.4835 71.2947 42.1332 71.3682 43.7511 71.2001C48.0656 70.7483 51.9572 69.3509 54.8441 65.915C56.0708 64.4545 56.8745 62.7839 56.9168 60.84C56.9485 59.4531 56.6207 58.1502 55.2565 57.4462C53.6809 56.6266 51.5976 57.2045 50.7517 58.7596C50.2864 59.6107 50.0114 60.5878 49.7682 61.544C49.2817 63.5299 48.5732 65.3896 46.987 66.7661C46.5323 67.1654 45.9824 67.4596 45.4748 67.8063C45.4325 67.7433 45.3796 67.6802 45.3373 67.6172C45.496 67.4596 45.6757 67.3125 45.7921 67.1338C46.2785 66.3773 46.8495 65.6418 47.1985 64.8222C47.6638 63.719 46.9553 62.6578 45.919 62.6578C45.221 62.6578 44.8086 62.973 44.5336 63.7505C43.9626 65.3791 43.0743 66.8186 41.8053 67.9744C40.7479 68.9411 39.5317 69.7396 38.4002 70.6117C38.2522 70.7483 38.1147 70.9059 37.8609 71.1791ZM15.971 59.9574C15.9076 60.0204 15.8547 60.094 15.7912 60.157C16.2037 60.6614 16.5949 61.1973 17.0496 61.6701C18.8156 63.5404 20.8037 65.1585 22.9398 66.598C23.2676 66.8186 23.6483 67.0813 24.0079 67.0918C26.8102 67.1864 29.5808 66.9552 32.2668 66.1041C34.2443 65.4737 36.0209 64.528 37.2476 62.7628C39.003 60.2411 38.2839 56.3114 35.7565 54.6302C35.4287 54.4096 35.1961 54.3886 34.9105 54.7668C33.5147 56.6792 31.7169 58.1712 29.5914 59.2114C25.8056 61.0607 21.8295 61.2288 17.7582 60.3672C17.1554 60.2516 16.5632 60.094 15.971 59.9574ZM19.5242 49.0194C16.0239 49.0509 13.4225 50.1857 11.5507 52.7705C11.4133 52.9596 11.371 53.3589 11.4661 53.5585C11.9949 54.6197 12.5448 55.6705 13.1687 56.6686C13.6128 57.3726 13.9618 58.1607 14.977 58.4023C17.4409 59.0012 19.8943 59.2744 22.4322 59.0328C25.5624 58.7386 28.5128 57.94 31.0613 56.0487C32.9225 54.6618 34.0857 52.8755 33.98 50.4379C33.9165 48.9458 33.3349 47.6535 32.5947 46.4031C32.2245 45.7621 32.0553 45.7622 31.6112 46.3611C29.7817 48.8303 27.2967 49.8074 24.2617 49.5027C22.5697 49.3556 20.8777 49.1665 19.5242 49.0194ZM25.3826 25.2941C25.4038 25.2205 25.4143 25.1365 25.4461 25.0629C26.3767 22.6147 27.8254 20.4923 29.6231 18.601C31.3257 16.8043 33.2714 15.3122 35.397 14.0409C35.5768 13.9358 35.7037 13.7361 35.8623 13.589C35.82 13.526 35.7777 13.4735 35.7354 13.4104C35.4604 13.484 35.1538 13.5155 34.9105 13.6416C33.7896 14.251 32.6475 14.8184 31.59 15.5224C27.6879 18.1177 24.3146 21.2908 21.3219 24.8633C21.1527 25.0629 20.8354 25.2521 20.5922 25.2416C19.8097 25.1995 19.0271 25.0734 18.2552 24.9789C17.7476 24.9158 17.2929 24.9789 16.9439 25.4202C16.5949 25.872 16.1931 26.2818 15.8124 26.7126C12.9043 29.9698 10.7153 33.6158 9.62611 37.8712C8.42058 42.5469 8.833 47.1281 10.4827 51.6357C10.5355 51.7723 10.6307 51.8984 10.7153 52.056C11.2864 51.4045 11.7728 50.8056 12.3333 50.2592C12.714 49.881 12.8514 49.5132 12.7563 48.9669C11.7199 42.589 12.8091 36.6419 16.4363 31.2307C16.9545 30.4531 17.5572 29.7386 18.1283 28.9926C18.1812 29.0347 18.234 29.0662 18.2869 29.1082C17.9908 29.6336 17.6524 30.1484 17.388 30.6843C14.8289 36.064 14.0887 41.6959 14.9981 47.5589C15.0722 48.0737 15.2625 48.1473 15.7066 47.9897C17.5149 47.3487 19.3761 47.3908 21.2584 47.5379C22.8024 47.664 24.3569 47.79 25.9114 47.8006C28.7137 47.8111 30.2999 46.4556 30.871 43.7343C31.0507 42.8517 31.2517 41.9585 31.5266 41.0969C31.865 40.0462 32.3091 39.0375 32.6475 37.9973C33.2186 36.2531 33.5781 34.4564 33.2609 32.6281C32.7956 29.9698 30.9767 28.4568 28.5974 27.5321C28.0158 27.3115 28.0052 27.0383 28.1426 26.597C29.0521 23.7495 30.1942 21.0492 32.3832 18.8952C32.5206 18.7586 32.5947 18.5485 32.785 18.2017C32.3832 18.3068 32.1505 18.3173 31.9919 18.4224C29.2213 20.1771 27.3178 22.7408 25.3826 25.2941ZM59.1692 61.0081C59.4865 60.8926 59.7403 60.84 59.9518 60.7244C61.8975 59.6947 63.5895 58.2973 65.1652 56.7842C67.0158 55.019 68.6125 53.0542 69.9979 50.9107C72.5781 46.8864 74.0798 42.5154 74.3018 37.7451C74.4287 34.9187 74.0797 32.1238 73.2761 29.4129C71.6158 23.8546 68.528 19.1684 64.1923 15.2912C61.1256 12.5488 57.6253 10.668 53.6492 9.61732C51.5765 9.07094 49.4721 8.83978 47.336 9.2916C47.1562 9.32312 46.9976 9.45971 46.8284 9.55428C47.0293 9.62783 47.2197 9.70138 47.4206 9.76442C48.0022 9.94304 48.5838 10.1112 49.1654 10.2898C49.1443 10.3633 49.1231 10.4369 49.1126 10.5104C49.0385 10.5209 48.9645 10.5314 48.8905 10.5314C47.1879 10.3949 45.6017 10.8256 44.0472 11.4561C43.8992 11.5191 43.7934 11.6977 43.6771 11.8238C43.804 11.9184 43.9203 12.034 44.0578 12.1075C44.4067 12.2756 44.7874 12.3702 45.0941 12.5804C45.5383 12.8851 45.9295 13.2633 46.3525 13.6101C46.3102 13.6731 46.2679 13.7361 46.2256 13.7887C46.0141 13.7677 45.8132 13.7361 45.6017 13.7151C44.5865 13.6416 43.5608 13.568 42.5456 13.5155C42.3658 13.505 42.1755 13.6311 41.9851 13.7046C42.1014 13.8622 42.1966 14.0514 42.3447 14.1775C43.2541 14.955 43.8463 15.9427 44.3222 17.0354C43.3281 16.5731 42.3975 16.0372 41.4564 15.5224C41.3189 15.4488 41.1603 15.4173 41.0017 15.3753C40.9594 15.5224 40.8642 15.6905 40.8853 15.8271C40.9594 16.4155 41.044 17.0039 41.1814 17.5713C41.4035 18.4224 41.6784 19.2629 41.9851 20.2716C40.7584 18.8847 40.2508 17.3191 39.5212 15.8271C38.4108 18.0441 39.2568 20.1561 39.8384 22.289C39.6269 22.0894 39.4366 21.8898 39.352 21.6481C38.9607 20.4713 38.6117 19.284 38.231 18.1072C38.1887 17.9811 38.0936 17.876 38.0301 17.7604C37.9244 17.8445 37.7763 17.918 37.7235 18.0231C37.5754 18.3908 37.4168 18.7691 37.3428 19.1579C37.1736 20.1035 37.0572 21.0492 36.9198 22.0053C36.8669 22.0158 36.8034 22.0158 36.7506 22.0263C36.6025 21.2278 36.4545 20.4187 36.3064 19.6202C36.2324 19.6097 36.1584 19.5992 36.0844 19.5992C35.9998 19.9039 35.8623 20.1981 35.8411 20.5028C35.7777 21.4695 35.7142 22.4466 35.7354 23.4133C35.8094 27.4586 37.6812 30.6107 40.7902 33.0904C43.5079 35.2549 46.6592 36.6314 49.8528 37.9448C51.7351 38.7223 53.628 39.4893 55.468 40.3614C56.6947 40.9393 57.9108 41.6118 58.6722 42.7991C60.5968 45.8357 60.2373 50.4484 57.8579 53.1277C57.3186 53.7371 56.6313 54.2205 56.0285 54.7773C55.891 54.9139 55.8064 55.1136 55.7324 55.2922C55.7218 55.3132 55.9439 55.4708 56.0708 55.4918C58.0483 55.7965 59.1481 57.6143 59.275 59.1904C59.2961 59.7473 59.2115 60.3041 59.1692 61.0081ZM82.952 41.2861C83.1318 63.7085 64.2663 83.1048 40.2297 82.4218C18.3292 81.8019 -0.271936 63.8556 0.00300965 40.6662C0.256806 18.2543 18.7099 -0.280481 42.0591 0.00321403C65.0488 0.297416 83.1318 19.0528 82.952 41.2861Z" fill="#D0985D"/>
</svg>
