<svg width="117" height="126" viewBox="0 0 117 126" fill="none" xmlns="http://www.w3.org/2000/svg">
<path fill-rule="evenodd" clip-rule="evenodd" d="M56.5014 40.2248C56.5014 40.5926 56.4908 40.7712 56.5014 40.9604C56.5859 42.4419 56.0361 43.6817 54.8834 44.5643C54.0057 45.2368 52.9905 45.7411 52.0388 46.319C51.7744 46.4766 51.2774 46.5082 51.5206 47.002C52.0493 48.0527 51.9119 48.2734 52.6521 48.0212C53.5615 47.7165 54.5239 47.3592 55.2641 46.7708C56.8397 45.552 57.8232 43.9444 57.5271 41.843C57.4425 41.2546 57.2945 40.6241 56.5014 40.2248ZM52.0916 52.7284C52.1339 52.7915 52.1868 52.8545 52.2397 52.9071C52.8213 52.6864 53.4029 52.4868 53.974 52.2346C56.5965 51.0788 59.0922 49.7234 60.8159 47.3487C62.0743 45.6151 62.3387 43.7238 61.5138 41.7169C61.4398 41.5488 61.26 41.4227 61.1226 41.2756C61.0697 41.4542 60.9745 41.6328 60.9639 41.8114C60.9111 42.3368 60.9639 42.8727 60.8476 43.377C60.2977 45.6676 58.5846 46.8654 56.5542 47.6955C55.3804 48.1788 54.1537 48.5466 52.9482 48.9353C52.4935 49.0824 52.356 49.2926 52.4089 49.8074C52.4723 50.4799 52.3666 51.1839 52.3031 51.8668C52.2714 52.161 52.1657 52.4447 52.0916 52.7284ZM53.7519 53.8737C53.9951 54.0839 54.1326 54.1994 54.2595 54.315C54.6296 54.6302 55.0632 54.9034 55.3381 55.2817C55.6659 55.7545 56.0361 55.7965 56.4802 55.5969C57.6752 55.061 58.9336 54.6197 60.0439 53.9368C62.4338 52.4763 64.3796 50.5324 65.6063 47.9792C66.3994 46.319 66.632 44.5959 66.0399 42.8096C65.9553 42.5469 65.7438 42.3158 65.5957 42.0741C65.5323 42.0741 65.4582 42.0741 65.3948 42.0741C64.3796 48.7567 59.917 52.077 53.7519 53.8737ZM53.0857 9.2916C50.8332 9.2916 49.0884 9.64884 47.4281 10.3528C46.2015 10.8677 45.1017 11.5612 44.2874 12.6434C43.7164 13.3999 43.6635 14.3981 44.1922 14.9865C44.7527 15.6064 46.0851 15.8376 46.7302 15.3858C47.3753 14.934 47.9886 14.4506 48.6019 13.9568C49.8815 12.9271 51.3197 12.2441 52.9271 11.8974C54.0797 11.6557 55.0526 11.8028 55.6025 13.0006C55.7611 13.3579 55.9938 13.3159 56.2581 13.0742C56.7128 12.6539 57.1464 12.2231 57.6434 11.8554C58.3308 11.33 58.3414 11.1829 57.6223 10.668C56.0995 9.64884 54.4075 9.32312 53.0857 9.2916ZM44.8162 68.3842C44.2663 68.3842 43.8115 68.3632 43.3674 68.3947C43.1876 68.4052 43.0079 68.5208 42.8387 68.5838C42.9656 68.6994 43.0819 68.857 43.2299 68.9411C44.6893 69.7081 46.2332 70.2335 47.8511 70.5382C50.6217 71.053 53.2972 70.8744 55.6765 69.2038C57.3368 68.0375 58.4365 66.5139 58.1828 64.3389C58.0664 63.3723 57.506 62.7208 56.6917 62.2585C56.385 62.0799 56.1207 62.1324 56.0043 62.5212C55.4121 64.5701 53.9317 65.8204 52.1234 66.7451C49.7969 67.9114 47.2695 68.2581 44.8162 68.3842ZM70.8303 46.7393C70.7668 46.3716 70.6716 45.6781 70.5341 44.9951C70.513 44.8901 70.3438 44.8165 70.2486 44.7324C70.1746 44.827 70.0689 44.9111 70.0371 45.0056C69.942 45.3524 69.9102 45.7096 69.8045 46.0564C69.0854 48.3574 67.7107 50.2067 65.913 51.8038C63.2058 54.21 60.1179 55.7755 56.4696 56.1223C56.0255 56.1643 55.9938 56.3534 56.0995 56.7107C56.237 57.173 56.4168 57.6353 56.4485 58.1081C56.5225 59.0012 56.4908 59.0012 57.4108 58.9592C57.5377 58.9487 57.6646 58.9277 57.7915 58.9172C61.5984 58.4654 64.7603 56.7107 67.4569 54.0839C69.445 52.1611 70.7457 49.902 70.8303 46.7393ZM54.8834 71.1791C55.3381 71.2422 55.6025 71.3157 55.8669 71.3157C57.506 71.2947 59.1556 71.3682 60.7736 71.2001C65.0881 70.7483 68.9797 69.3509 71.8666 65.915C73.0933 64.4545 73.8969 62.7838 73.9392 60.84C73.971 59.4531 73.6432 58.1502 72.279 57.4462C70.7033 56.6266 68.6201 57.2045 67.7741 58.7596C67.3088 59.6107 67.0339 60.5878 66.7907 61.544C66.3042 63.5299 65.5957 65.3896 64.0095 66.7661C63.5548 67.1654 63.0049 67.4596 62.4973 67.8063C62.455 67.7432 62.4021 67.6802 62.3598 67.6172C62.5184 67.4596 62.6982 67.3125 62.8145 67.1338C63.301 66.3773 63.872 65.6418 64.221 64.8222C64.6863 63.719 63.9778 62.6578 62.9414 62.6578C62.2435 62.6578 61.8311 62.973 61.5561 63.7505C60.9851 65.3791 60.0968 66.8186 58.8278 67.9744C57.7703 68.9411 56.5542 69.7396 55.4227 70.6117C55.2747 70.7483 55.1372 70.9059 54.8834 71.1791ZM32.9935 59.9574C32.93 60.0205 32.8772 60.094 32.8137 60.157C33.2261 60.6614 33.6174 61.1973 34.0721 61.6701C35.8381 63.5404 37.8262 65.1585 39.9623 66.598C40.2901 66.8186 40.6708 67.0813 41.0304 67.0918C43.8327 67.1864 46.6033 66.9552 49.2893 66.1041C51.2668 65.4737 53.0434 64.528 54.2701 62.7628C56.0255 60.2411 55.3064 56.3114 52.779 54.6302C52.4512 54.4096 52.2185 54.3886 51.933 54.7668C50.5371 56.6792 48.7394 58.1712 46.6139 59.2114C42.8281 61.0607 38.8519 61.2288 34.7806 60.3672C34.1779 60.2516 33.5857 60.094 32.9935 59.9574ZM36.5466 49.0194C33.0464 49.0509 30.445 50.1857 28.5732 52.7705C28.4357 52.9596 28.3934 53.3589 28.4886 53.5585C29.0174 54.6197 29.5672 55.6705 30.1912 56.6686C30.6353 57.3726 30.9843 58.1607 31.9995 58.4023C34.4634 59.0012 36.9168 59.2744 39.4547 59.0328C42.5849 58.7386 45.5352 57.94 48.0838 56.0487C49.945 54.6618 51.1082 52.8755 51.0024 50.4379C50.939 48.9458 50.3574 47.6535 49.6171 46.4031C49.247 45.7621 49.0778 45.7622 48.6337 46.3611C46.8042 48.8303 44.3191 49.8074 41.2842 49.5027C39.5922 49.3556 37.9002 49.1665 36.5466 49.0194ZM42.4051 25.2941C42.4262 25.2205 42.4368 25.1365 42.4685 25.0629C43.3991 22.6147 44.8479 20.4923 46.6456 18.601C48.3481 16.8043 50.2939 15.3122 52.4195 14.0409C52.5992 13.9358 52.7261 13.7361 52.8848 13.589C52.8425 13.526 52.8002 13.4735 52.7579 13.4104C52.4829 13.484 52.1762 13.5155 51.933 13.6416C50.8121 14.251 49.67 14.8184 48.6125 15.5224C44.7104 18.1177 41.337 21.2908 38.3444 24.8633C38.1752 25.0629 37.8579 25.2521 37.6147 25.2416C36.8322 25.1995 36.0496 25.0734 35.2777 24.9789C34.7701 24.9158 34.3153 24.9789 33.9664 25.4202C33.6174 25.872 33.2156 26.2818 32.8349 26.7126C29.9268 29.9698 27.7378 33.6158 26.6486 37.8712C25.4431 42.5469 25.8555 47.1281 27.5051 51.6357C27.558 51.7723 27.6532 51.8984 27.7378 52.056C28.3088 51.4045 28.7953 50.8056 29.3557 50.2592C29.7364 49.881 29.8739 49.5132 29.7787 48.9669C28.7424 42.589 29.8316 36.6419 33.4588 31.2307C33.9769 30.4531 34.5797 29.7386 35.1508 28.9926C35.2036 29.0347 35.2565 29.0662 35.3094 29.1082C35.0133 29.6336 34.6749 30.1484 34.4105 30.6843C31.8514 36.064 31.1112 41.6959 32.0206 47.5589C32.0946 48.0737 32.285 48.1473 32.7291 47.9897C34.5374 47.3487 36.3986 47.3908 38.2809 47.5379C39.8248 47.664 41.3793 47.79 42.9338 47.8006C45.7362 47.8111 47.3224 46.4556 47.8934 43.7343C48.0732 42.8517 48.2741 41.9585 48.5491 41.0969C48.8875 40.0462 49.3316 39.0375 49.67 37.9973C50.241 36.2531 50.6006 34.4564 50.2833 32.6281C49.8181 29.9698 47.9992 28.4568 45.6198 27.5321C45.0382 27.3115 45.0276 27.0383 45.1651 26.597C46.0746 23.7495 47.2166 21.0492 49.4056 18.8952C49.5431 18.7586 49.6171 18.5485 49.8075 18.2017C49.4056 18.3068 49.173 18.3173 49.0144 18.4224C46.2438 20.1771 44.3403 22.7408 42.4051 25.2941ZM76.1917 61.0081C76.5089 60.8926 76.7627 60.84 76.9742 60.7244C78.92 59.6947 80.612 58.2973 82.1876 56.7842C84.0382 55.019 85.635 53.0542 87.0203 50.9107C89.6006 46.8864 91.1022 42.5154 91.3243 37.7451C91.4512 34.9187 91.1022 32.1238 90.2985 29.4129C88.6383 23.8546 85.5504 19.1684 81.2147 15.2912C78.148 12.5488 74.6478 10.668 70.6716 9.61732C68.599 9.07094 66.4946 8.83978 64.3585 9.2916C64.1787 9.32312 64.0201 9.45971 63.8509 9.55428C64.0518 9.62783 64.2421 9.70138 64.443 9.76442C65.0247 9.94304 65.6063 10.1112 66.1879 10.2898C66.1667 10.3633 66.1456 10.4369 66.135 10.5104C66.061 10.5209 65.987 10.5314 65.913 10.5314C64.2104 10.3949 62.6242 10.8256 61.0697 11.4561C60.9216 11.5191 60.8159 11.6977 60.6996 11.8238C60.8265 11.9184 60.9428 12.034 61.0803 12.1075C61.4292 12.2756 61.8099 12.3702 62.1166 12.5804C62.5607 12.8851 62.952 13.2633 63.375 13.6101C63.3327 13.6731 63.2904 13.7361 63.2481 13.7887C63.0366 13.7677 62.8357 13.7361 62.6242 13.7151C61.609 13.6416 60.5832 13.568 59.5681 13.5155C59.3883 13.505 59.1979 13.6311 59.0076 13.7046C59.1239 13.8622 59.2191 14.0514 59.3671 14.1775C60.2766 14.955 60.8688 15.9427 61.3446 17.0354C60.3506 16.5731 59.42 16.0372 58.4788 15.5224C58.3414 15.4488 58.1827 15.4173 58.0241 15.3753C57.9818 15.5224 57.8867 15.6905 57.9078 15.8271C57.9818 16.4155 58.0664 17.0039 58.2039 17.5713C58.426 18.4224 58.7009 19.2629 59.0076 20.2716C57.7809 18.8847 57.2733 17.3191 56.5436 15.8271C55.4333 18.0441 56.2793 20.1561 56.8609 22.289C56.6494 22.0894 56.459 21.8898 56.3745 21.6481C55.9832 20.4713 55.6342 19.284 55.2535 18.1072C55.2112 17.9811 55.116 17.876 55.0526 17.7604C54.9468 17.8445 54.7988 17.918 54.7459 18.0231C54.5979 18.3908 54.4393 18.7691 54.3652 19.1579C54.196 20.1035 54.0797 21.0492 53.9422 22.0053C53.8894 22.0158 53.8259 22.0158 53.773 22.0263C53.625 21.2278 53.4769 20.4187 53.3289 19.6202C53.2549 19.6097 53.1809 19.5992 53.1068 19.5992C53.0222 19.9039 52.8848 20.1981 52.8636 20.5028C52.8002 21.4695 52.7367 22.4466 52.7579 23.4133C52.8319 27.4586 54.7036 30.6107 57.8126 33.0904C60.5304 35.2549 63.6817 36.6314 66.8753 37.9448C68.7576 38.7223 70.6505 39.4893 72.4905 40.3614C73.7172 40.9393 74.9333 41.6118 75.6947 42.7991C77.6193 45.8357 77.2597 50.4484 74.8804 53.1277C74.3411 53.7371 73.6537 54.2205 73.051 54.7773C72.9135 54.9139 72.8289 55.1136 72.7549 55.2922C72.7443 55.3132 72.9664 55.4708 73.0933 55.4918C75.0708 55.7965 76.1705 57.6143 76.2974 59.1904C76.3186 59.7473 76.234 60.3041 76.1917 61.0081ZM99.9745 41.2861C100.154 63.7085 81.2888 83.1048 57.2522 82.4218C35.3517 81.8019 16.7505 63.8556 17.0255 40.6662C17.2793 18.2543 35.7324 -0.280481 59.0816 0.00321403C82.0713 0.297416 100.154 19.0528 99.9745 41.2861Z" fill="#D0985D"/>
<path fill-rule="evenodd" clip-rule="evenodd" d="M94.5073 105.412C94.5073 104.098 94.4967 102.785 94.5073 101.482C94.5073 101.23 94.4439 101.125 94.1689 101.125C92.3078 101.135 90.4466 101.135 88.5748 101.125C88.321 101.125 88.247 101.209 88.247 101.461C88.2576 104.077 88.2576 106.704 88.247 109.32C88.247 109.594 88.3422 109.657 88.596 109.657C90.4466 109.646 92.2972 109.646 94.1583 109.657C94.4333 109.657 94.5073 109.572 94.5073 109.31C94.4967 108.007 94.5073 106.704 94.5073 105.412ZM88.2787 97.9935C88.2787 98.4033 88.2787 98.8131 88.2787 99.2229C88.2999 99.2334 88.3316 99.2439 88.3528 99.2439C88.3951 99.1914 88.4479 99.1493 88.4797 99.0968C88.67 98.7816 88.8392 98.4559 89.0507 98.1511C89.1141 98.0566 89.2622 97.962 89.3679 97.962C91.6838 97.9515 94.0103 97.9515 96.3262 97.9515C96.7175 97.9515 96.9712 98.2037 97.1616 98.5084C97.5317 99.1073 97.6586 99.7903 97.6586 100.473C97.6798 102.711 97.6692 104.949 97.6798 107.177C97.6798 108.532 97.6798 109.898 97.6798 111.254C97.6798 112.01 97.3308 112.483 96.58 112.672C96.2839 112.746 95.9666 112.798 95.66 112.798C92.7519 112.809 89.8332 112.809 86.9252 112.809C85.8042 112.809 85.064 112.073 85.064 110.949C85.064 106.967 85.064 102.984 85.0534 99.0022C85.0534 98.708 85.1063 98.5714 85.4341 98.5189C86.3224 98.3718 87.2001 98.1617 88.0884 97.983C88.1413 97.983 88.1941 97.9935 88.2787 97.9935Z" fill="#D0985D"/>
<path fill-rule="evenodd" clip-rule="evenodd" d="M50.7486 98.0566C50.7486 98.2037 50.7486 98.3193 50.7486 98.4243C50.7486 99.8953 50.7486 101.377 50.7486 102.848C50.7486 103.111 50.8015 103.258 51.0976 103.216C51.288 103.195 51.3514 103.3 51.362 103.468C51.4254 104.298 51.4889 105.117 51.5629 105.948C51.5841 106.137 51.51 106.2 51.3197 106.2C50.7381 106.221 50.7381 106.221 50.7381 106.82C50.7381 108.059 50.7169 109.31 50.7486 110.55C50.7698 111.632 50.1247 112.494 49.0884 112.672C48.253 112.809 47.3964 112.893 46.5504 112.998C46.3495 113.019 46.2755 112.945 46.2755 112.735C46.2861 111.958 46.2755 111.17 46.2649 110.392C46.2649 110.203 46.3284 110.119 46.5187 110.087C47.1955 109.982 47.5233 109.583 47.5233 108.9C47.5233 108.101 47.5127 107.303 47.5233 106.494C47.5233 106.252 47.4387 106.179 47.2061 106.179C46.0957 106.189 44.9959 106.168 43.8856 106.189C43.5578 106.2 43.3674 106.095 43.2194 105.811C43.103 105.58 42.9444 105.37 42.8069 105.149C42.7541 105.075 42.7012 105.012 42.6377 104.939C42.6166 104.949 42.5849 104.949 42.5637 104.96C42.5531 105.054 42.5426 105.149 42.5426 105.254C42.5426 107.566 42.5426 109.877 42.5426 112.199C42.5426 112.651 42.5849 112.63 42.1196 112.704C41.2419 112.84 40.3642 112.998 39.4864 113.145C39.4336 113.155 39.3701 113.155 39.2749 113.155C39.2749 113.029 39.2749 112.924 39.2749 112.809C39.2749 108.375 39.2749 103.941 39.2749 99.5066C39.2749 99.0968 39.2644 98.6765 39.2538 98.2667C39.2432 98.0776 39.3172 98.0146 39.5076 98.0146C40.4382 98.0251 41.3688 98.0251 42.2993 98.0146C42.5426 98.0146 42.5531 98.1301 42.5531 98.3193C42.5426 99.7798 42.5426 101.23 42.5426 102.69C42.5426 103.132 42.5426 103.132 42.9973 103.132C44.3826 103.111 45.7679 103.09 47.1638 103.079C47.4176 103.079 47.4704 102.974 47.4704 102.753C47.4599 101.303 47.4704 99.8638 47.4599 98.4138C47.4599 98.1406 47.5233 98.0461 47.8088 98.0461C48.7711 98.0671 49.7335 98.0566 50.7486 98.0566Z" fill="#D0985D"/>
<path fill-rule="evenodd" clip-rule="evenodd" d="M16.4439 97.8359C16.3804 98.4874 16.3275 99.0758 16.2747 99.6642C16.1266 101.282 15.9997 102.911 16.1372 104.54C16.2429 105.884 16.6765 107.135 17.4485 108.259C17.8398 108.837 18.3791 109.173 19.0559 109.299C20.0922 109.488 21.1285 109.373 22.1543 109.205C22.2283 109.194 22.3341 109.016 22.3341 108.911C22.3446 108.448 22.3235 107.986 22.3235 107.524C22.3235 104.455 22.3235 101.387 22.3235 98.3193C22.3235 97.941 22.3235 97.941 22.7253 97.962C23.5607 98.0145 24.3856 98.0671 25.221 98.1091C25.4536 98.1196 25.5171 98.1932 25.5171 98.4243C25.5065 103.005 25.5065 107.587 25.5171 112.168C25.5171 112.399 25.4431 112.494 25.2104 112.515C24.3644 112.588 23.5079 112.672 22.6619 112.767C22.3975 112.798 22.3129 112.725 22.3341 112.462C22.3552 112.189 22.3446 111.905 22.3341 111.621C22.3341 111.537 22.3023 111.453 22.2177 111.369C22.186 111.422 22.1543 111.474 22.1437 111.537C22.0274 111.926 21.9111 112.315 21.8159 112.704C21.763 112.914 21.6467 113.029 21.4458 113.04C20.9276 113.071 20.3989 113.145 19.8913 113.103C19.0982 113.029 18.2945 112.914 17.5119 112.735C16.042 112.388 15.1326 111.359 14.4558 110.087C13.5781 108.438 13.1868 106.662 13.0282 104.823C12.859 102.806 12.8696 100.778 13.0811 98.7606C13.1128 98.4559 13.2185 98.3613 13.5146 98.3193C14.3183 98.2037 15.122 98.0566 15.9257 97.92C16.0632 97.8885 16.2218 97.8675 16.4439 97.8359Z" fill="#D0985D"/>
<path fill-rule="evenodd" clip-rule="evenodd" d="M107.007 102.144C106.658 102.144 106.298 102.144 105.949 102.144C105.347 102.144 105.336 102.123 105.463 101.545C105.632 100.746 105.801 99.9374 105.96 99.1388C105.992 98.9602 106.066 98.8972 106.245 98.8972C108.953 98.8972 111.66 98.8656 114.367 98.9182C115.255 98.9392 115.953 99.4645 116.26 100.326C116.461 100.915 116.545 101.545 116.683 102.144C116.725 102.344 116.63 102.417 116.44 102.449C115.572 102.606 114.705 102.774 113.838 102.932C113.658 102.963 113.531 102.911 113.5 102.722C113.447 102.438 113.246 102.291 112.992 102.228C112.759 102.175 112.516 102.123 112.273 102.123C111.522 102.112 110.782 102.133 110.031 102.133C109.947 102.133 109.873 102.154 109.714 102.175C109.989 102.428 110.2 102.627 110.422 102.827C112.379 104.603 114.325 106.378 116.291 108.154C116.736 108.553 116.915 109.068 116.979 109.636C116.989 109.741 116.989 109.835 117 109.94V110.024C116.989 110.55 116.873 111.075 116.725 111.569C116.471 112.367 115.837 112.809 115.075 113.019C114.525 113.166 113.954 113.271 113.394 113.282C111.691 113.303 109.978 113.292 108.276 113.261C107.578 113.25 107.06 112.83 106.637 112.325C106.076 111.642 105.78 110.823 105.558 109.982C105.537 109.919 105.632 109.762 105.706 109.741C106.626 109.436 107.546 109.152 108.477 108.858C108.72 108.784 108.836 108.869 108.879 109.11C108.963 109.636 109.259 109.961 109.83 109.94C110.729 109.909 111.639 109.951 112.537 109.951C112.643 109.951 112.759 109.877 112.876 109.835C112.834 109.73 112.802 109.615 112.728 109.541C112.104 108.953 111.459 108.375 110.824 107.797C109.238 106.347 107.652 104.907 106.066 103.457C105.822 103.237 105.833 103.163 106.097 102.963C106.425 102.722 106.742 102.491 107.07 102.249C107.028 102.217 107.017 102.186 107.007 102.144Z" fill="#D0985D"/>
<path fill-rule="evenodd" clip-rule="evenodd" d="M3.08785 108.427C3.16188 108.669 3.21475 108.869 3.28877 109.068C3.43682 109.425 3.71177 109.625 4.09246 109.636C5.06535 109.646 6.03823 109.646 7.00054 109.636C7.38124 109.636 7.51871 109.373 7.27549 109.079C6.94767 108.69 6.57755 108.333 6.20743 107.975C4.9596 106.757 3.71177 105.548 2.46394 104.34C1.87175 103.773 1.27956 103.195 0.687364 102.627C0.61334 102.554 0.539317 102.48 0.454718 102.375C0.951735 101.976 1.43818 101.587 1.91405 101.198C1.90347 101.167 1.88232 101.135 1.87175 101.104C1.25841 101.104 0.645065 101.104 0 101.104C0.158623 100.263 0.30667 99.4856 0.465293 98.6975C0.623915 97.9515 0.623915 97.9515 1.3853 97.9515C3.75407 97.9515 6.12283 97.9515 8.49159 97.9515C9.34816 97.9515 10.1836 98.4874 10.4479 99.2859C10.6489 99.8848 10.744 100.515 10.8815 101.135C10.9238 101.324 10.8604 101.429 10.6383 101.461C9.7923 101.619 8.94631 101.787 8.07917 101.965C7.87825 101.177 7.25434 101.093 6.5987 101.083C5.75271 101.072 4.90672 101.083 4.06074 101.093C4.00786 101.093 3.95499 101.104 3.82809 101.125C3.93384 101.251 3.99729 101.345 4.08189 101.429C6.15455 103.447 8.20607 105.485 10.3105 107.471C10.9238 108.059 11.1988 108.721 11.1459 109.53C11.1142 109.993 11.0719 110.455 10.9873 110.907C10.7863 111.905 10.0778 112.43 9.15781 112.683C8.70309 112.809 8.22722 112.861 7.75136 112.872C6.20743 112.893 4.6635 112.851 3.11958 112.893C2.17842 112.924 1.5545 112.462 1.06806 111.758C0.623915 111.117 0.370119 110.382 0.179772 109.636C0.158623 109.572 0.211497 109.425 0.264371 109.415C1.19496 109.068 2.13612 108.753 3.08785 108.427Z" fill="#D0985D"/>
<path fill-rule="evenodd" clip-rule="evenodd" d="M29.9162 108.427C29.9374 108.543 29.9479 108.595 29.9585 108.648C30.096 109.362 30.4238 109.636 31.1535 109.636C31.9995 109.636 32.8454 109.646 33.6914 109.625C33.8606 109.625 34.0298 109.499 34.199 109.425C34.1356 109.257 34.1038 109.058 33.9875 108.942C33.3636 108.301 32.708 107.671 32.0629 107.051C30.8468 105.863 29.6201 104.676 28.404 103.489C28.0339 103.121 27.6743 102.743 27.2937 102.344C27.7589 101.976 28.2348 101.587 28.7213 101.209C28.7107 101.177 28.6895 101.135 28.679 101.104C28.0656 101.104 27.4523 101.104 26.8178 101.104C26.9553 100.379 27.0822 99.7062 27.2091 99.0338C27.2619 98.7711 27.3148 98.5084 27.3571 98.2352C27.3888 98.0356 27.4734 97.941 27.7061 97.941C30.2863 97.9515 32.8666 97.941 35.4574 97.9515C36.1871 97.9515 37.0014 98.5189 37.2657 99.2964C37.4666 99.8953 37.5618 100.526 37.6993 101.146C37.7416 101.335 37.6781 101.429 37.4561 101.471C36.663 101.608 35.8804 101.776 35.0873 101.923C35.0133 101.934 34.8652 101.871 34.8441 101.818C34.696 101.293 34.2625 101.125 33.8183 101.114C32.8031 101.072 31.7774 101.104 30.7622 101.104C30.7516 101.104 30.7305 101.125 30.6882 101.167C30.7622 101.251 30.8362 101.356 30.9102 101.44C33.0569 103.531 35.2036 105.622 37.3609 107.713C37.7204 108.059 37.8896 108.48 37.9425 108.963C38.0271 109.709 37.9531 110.455 37.731 111.17C37.4666 112 36.8004 112.462 35.9756 112.672C35.5209 112.788 35.045 112.851 34.5691 112.861C32.9829 112.882 31.4073 112.851 29.821 112.882C29.1337 112.893 28.6155 112.609 28.1819 112.147C27.484 111.39 27.1879 110.445 26.9341 109.436C27.9281 109.1 28.901 108.763 29.9162 108.427Z" fill="#D0985D"/>
<path fill-rule="evenodd" clip-rule="evenodd" d="M57.2839 112.819C57.4425 111.705 57.6011 110.686 57.7386 109.667C57.7703 109.467 57.8867 109.457 58.0453 109.457C58.4683 109.467 58.4683 109.457 58.4683 109.047C58.4683 108.364 58.5423 108.448 57.8655 108.448C57.7809 108.448 57.6857 108.469 57.6011 108.438C57.5271 108.406 57.4214 108.312 57.4214 108.259C57.4848 107.503 57.5694 106.746 57.654 105.99C57.6752 105.832 57.7492 105.79 57.9078 105.79C58.5 105.779 58.5 105.769 58.5 105.191C58.5106 102.869 58.5211 100.547 58.5211 98.2247C58.5211 98.0146 58.5952 97.962 58.7855 97.962C59.6844 97.9725 60.5938 97.9725 61.4927 97.962C61.7465 97.962 61.7993 98.0566 61.7993 98.2877C61.7782 100.673 61.7676 103.048 61.757 105.433C61.757 105.811 61.757 105.811 62.1377 105.811C62.5396 105.811 62.9309 105.811 63.3327 105.811C63.5336 105.811 63.6394 105.884 63.6076 106.105C63.5125 106.799 63.4279 107.503 63.3538 108.196C63.3327 108.354 63.2692 108.406 63.1106 108.417C62.7828 108.417 62.455 108.438 62.1272 108.438C61.9262 108.438 61.8522 108.511 61.8522 108.711C61.8628 109.594 61.7465 109.446 62.5607 109.446C64.1681 109.457 65.7861 109.446 67.3934 109.446C67.4992 109.446 67.6049 109.446 67.7636 109.446C67.7318 109.73 67.7107 109.982 67.679 110.234C67.6049 111.001 67.5203 111.768 67.4569 112.536C67.4357 112.756 67.3617 112.84 67.1185 112.84C64.4008 112.83 61.683 112.83 58.9653 112.83C58.4154 112.819 57.8761 112.819 57.2839 112.819Z" fill="#D0985D"/>
<path fill-rule="evenodd" clip-rule="evenodd" d="M78.0529 101.23C76.6464 101.23 75.24 101.23 73.7912 101.23C73.8441 100.694 73.8864 100.221 73.9287 99.7482C73.971 99.2859 74.0239 98.8236 74.0767 98.3718C74.119 97.983 74.1085 97.9725 74.4997 97.9725C77.1011 97.9725 79.7026 97.9725 82.304 97.9725C82.8221 97.9725 83.3297 97.9725 83.8479 97.9725C84.0382 97.9725 84.1123 98.0146 84.0805 98.2247C83.9536 99.1388 83.8479 100.063 83.7421 100.978C83.721 101.188 83.6364 101.251 83.4355 101.251C82.452 101.24 81.4791 101.251 80.4957 101.24C80.2101 101.24 80.1361 101.335 80.1361 101.608C80.1467 103.804 80.1361 106 80.1361 108.207C80.1361 108.532 80.1361 108.858 80.1678 109.184C80.2207 109.72 80.5274 110.098 81.035 110.276C81.2359 110.35 81.2465 110.455 81.2042 110.634C80.9821 111.485 80.7495 112.325 80.538 113.176C80.4851 113.387 80.3899 113.429 80.1996 113.429C78.5816 113.387 77.1329 112.105 76.9319 110.508C76.8896 110.203 76.8791 109.898 76.8685 109.583C76.8685 107.135 76.8685 104.687 76.8579 102.238C76.8579 102.007 76.9425 101.892 77.1434 101.797C77.3972 101.682 77.651 101.555 77.9048 101.429C77.9683 101.398 78.0211 101.356 78.0846 101.314C78.0634 101.282 78.0529 101.261 78.0529 101.23Z" fill="#D0985D"/>
<path fill-rule="evenodd" clip-rule="evenodd" d="M72.5117 105.233C72.5117 107.429 72.5117 109.625 72.5117 111.832C72.5117 112.073 72.4694 112.315 72.4799 112.546C72.4905 112.788 72.4059 112.861 72.1627 112.861C71.285 112.851 70.3967 112.851 69.519 112.861C69.2863 112.861 69.2017 112.809 69.2017 112.557C69.2017 107.933 69.2017 103.321 69.2017 98.6975C69.2017 98.4769 69.2652 98.3928 69.4767 98.3613C70.4178 98.2247 71.359 98.0881 72.3002 97.941C72.5751 97.899 72.5222 98.0776 72.5222 98.2247C72.5222 99.9269 72.5222 101.619 72.5222 103.321C72.5117 103.962 72.5117 104.592 72.5117 105.233Z" fill="#D0985D"/>
<path fill-rule="evenodd" clip-rule="evenodd" d="M52.7261 105.601C52.7261 103.321 52.7261 101.03 52.7156 98.7501C52.7156 98.4769 52.8002 98.3823 53.0645 98.3508C53.974 98.2247 54.8834 98.0881 55.7928 97.941C55.9726 97.9095 56.0361 97.9725 56.0361 98.1511C56.0255 100.021 56.0149 101.892 56.0043 103.762C56.0043 104.561 56.0043 105.359 56.0043 106.158C56.0043 108.27 56.0043 110.382 56.0149 112.493C56.0149 112.767 55.9515 112.861 55.6659 112.851C54.7882 112.83 53.9211 112.84 53.0434 112.851C52.8002 112.851 52.7367 112.777 52.7367 112.536C52.7367 110.234 52.7367 107.912 52.7261 105.601C52.7367 105.601 52.7367 105.601 52.7261 105.601Z" fill="#D0985D"/>
<path fill-rule="evenodd" clip-rule="evenodd" d="M103.845 96.0707C103.39 96.407 102.967 96.7222 102.544 97.0164C102.491 97.0584 102.364 97.0479 102.322 97.0059C101.106 96.0077 99.8899 94.999 98.6738 93.9903C98.6632 93.9903 98.6738 93.9693 98.6632 93.9272C99.1708 93.5805 99.6784 93.2233 100.197 92.8765C100.249 92.845 100.376 92.866 100.419 92.908C101.55 93.9482 102.682 94.9885 103.845 96.0707Z" fill="#D0985D"/>
<path fill-rule="evenodd" clip-rule="evenodd" d="M78.8777 119.743C78.8777 120.542 78.8777 121.278 78.8777 122.013C78.8777 123.116 78.8671 124.22 78.8883 125.323C78.8883 125.575 78.8037 125.68 78.571 125.722C78.1163 125.796 77.651 125.88 77.1963 125.985C76.9637 126.037 76.9002 125.953 76.9002 125.743C76.9002 125.417 76.9002 125.092 76.9002 124.755C76.8368 124.755 76.7839 124.745 76.7733 124.766C76.4772 125.165 76.0648 125.165 75.6312 125.155C75.0179 125.144 74.394 125.176 73.7806 125.186C72.9558 125.197 72.2261 124.671 72.0041 123.873C71.9089 123.505 71.856 123.106 71.8454 122.728C71.8243 121.603 71.856 120.479 71.8243 119.344C71.8137 118.987 71.8877 118.745 72.2473 118.63C72.3107 118.609 72.3636 118.556 72.5222 118.451C72.1521 118.451 71.8877 118.441 71.6339 118.451C71.3801 118.462 71.285 118.378 71.3801 118.125C71.5599 117.611 71.7185 117.075 71.9089 116.56C71.9512 116.465 72.1204 116.35 72.2261 116.35C74.2671 116.339 76.308 116.339 78.349 116.339C78.5922 116.339 78.6874 116.413 78.6345 116.675C78.5393 117.19 78.4547 117.716 78.3913 118.23C78.3595 118.472 78.2115 118.451 78.0423 118.451C76.8156 118.451 75.5995 118.451 74.3728 118.451C74.2354 118.451 74.0979 118.451 73.9498 118.451C73.9287 118.567 73.9181 118.651 73.9181 118.735C73.9181 119.975 73.9181 121.214 73.9181 122.454C73.9181 122.759 73.9921 123.032 74.3517 123.043C75.1765 123.064 76.0119 123.053 76.8473 123.053C76.8473 122.612 76.8473 122.213 76.8473 121.761C76.4561 121.761 76.0965 121.75 75.737 121.761C75.4832 121.771 75.3669 121.698 75.3774 121.425C75.388 120.962 75.3669 120.5 75.388 120.038C75.3986 119.933 75.5361 119.765 75.6207 119.765C76.6887 119.733 77.7568 119.743 78.8777 119.743Z" fill="#D0985D"/>
<path fill-rule="evenodd" clip-rule="evenodd" d="M46.2649 118.346C45.2815 118.346 44.3509 118.367 43.4203 118.336C43.0713 118.325 43.0079 118.451 43.0079 118.766C43.0184 120.048 43.0184 121.341 43.0184 122.633C43.0184 122.77 43.029 122.896 43.0396 123.032C44.1394 123.032 45.2074 123.032 46.2649 123.032C46.2649 121.456 46.2649 119.922 46.2649 118.346ZM43.1453 116.581C43.2511 116.161 43.6529 116.276 44.0125 116.276C45.1017 116.276 46.1803 116.276 47.2695 116.276C47.7348 116.276 47.9886 116.423 48.1155 116.865C48.2318 117.285 48.3059 117.726 48.3059 118.157C48.327 120.08 48.3164 122.013 48.3164 123.946C48.3164 124.787 47.9675 125.144 47.1003 125.144C45.8736 125.144 44.6575 125.144 43.4309 125.144C42.9867 125.144 42.5531 125.155 42.109 125.144C41.4957 125.134 41.0409 124.713 41.0409 124.114C41.0304 121.719 41.0304 119.334 41.0409 116.938C41.0409 116.833 41.1678 116.665 41.263 116.644C41.7495 116.518 42.2359 116.402 42.7329 116.329C42.8492 116.297 42.9867 116.476 43.1453 116.581Z" fill="#D0985D"/>
<path fill-rule="evenodd" clip-rule="evenodd" d="M85.0005 118.346C84.0171 118.346 83.0865 118.367 82.1559 118.336C81.8069 118.325 81.7435 118.451 81.7435 118.766C81.7541 120.048 81.7435 121.341 81.7541 122.633C81.7541 122.77 81.7646 122.896 81.7752 123.032C82.875 123.032 83.943 123.032 85.0005 123.032C85.0005 121.456 85.0005 119.922 85.0005 118.346ZM81.881 116.581C81.9761 116.161 82.3886 116.276 82.7587 116.276C83.8479 116.276 84.9265 116.276 86.0157 116.276C86.4704 116.276 86.7348 116.423 86.8617 116.865C86.978 117.285 87.0521 117.726 87.0521 118.157C87.0732 120.08 87.0626 122.013 87.0626 123.946C87.0626 124.787 86.7137 125.144 85.8465 125.144C84.6516 125.144 83.446 125.144 82.2511 125.144C81.7964 125.144 81.3416 125.155 80.8869 125.144C80.2207 125.134 79.7766 124.713 79.7766 124.072C79.766 121.687 79.766 119.313 79.7871 116.938C79.7871 116.833 79.914 116.665 80.0092 116.644C80.4957 116.518 80.9821 116.402 81.4791 116.329C81.5849 116.297 81.7329 116.476 81.881 116.581Z" fill="#D0985D"/>
<path fill-rule="evenodd" clip-rule="evenodd" d="M51.711 119.46C52.5781 119.386 53.054 118.955 53.0117 118.325C52.5781 118.325 52.1445 118.325 51.711 118.325C51.711 118.724 51.711 119.092 51.711 119.46ZM49.7335 121.425C49.2682 121.498 49.1941 121.278 49.2153 120.941C49.2364 120.637 49.2364 120.342 49.2153 120.038C49.1941 119.712 49.2682 119.523 49.6489 119.586C49.7017 119.596 49.7652 119.565 49.8498 119.554C49.8498 119.134 49.8498 118.724 49.8498 118.325C49.2153 118.199 49.2153 118.199 49.2893 117.568C49.3316 117.148 49.3951 116.728 49.4479 116.266C49.8181 116.266 50.167 116.266 50.516 116.266C51.6369 116.276 52.7684 116.234 53.8788 116.339C55.0209 116.444 55.5813 117.505 55.1266 118.577C54.9892 118.903 54.7671 119.208 54.5767 119.544C54.6719 119.575 54.7671 119.607 54.8623 119.628C55.4967 119.775 55.8034 120.143 55.814 120.805C55.8246 121.551 55.814 122.307 55.814 123.053C55.814 124.419 55.2641 125.092 53.8999 125.302C53.0117 125.438 52.1551 125.291 51.2985 124.892C51.5206 124.304 51.7427 123.736 51.9753 123.137C52.3243 123.221 52.6521 123.326 52.9905 123.389C53.5933 123.505 53.7202 123.432 53.7942 122.833C53.8576 122.36 53.8471 121.887 53.8788 121.383C53.1491 121.383 52.4618 121.383 51.711 121.383C51.711 121.729 51.7533 122.087 51.7004 122.444C51.6264 122.969 51.5629 123.516 51.3831 124.009C51.1082 124.787 50.3997 125.197 49.6171 125.176C49.3633 125.165 49.2153 125.102 49.247 124.808C49.2682 124.514 49.247 124.209 49.247 123.904C49.247 123.631 49.173 123.347 49.5643 123.242C49.6594 123.221 49.7229 122.99 49.7335 122.854C49.744 122.402 49.7335 121.939 49.7335 121.425Z" fill="#D0985D"/>
<path fill-rule="evenodd" clip-rule="evenodd" d="M59.0393 120.574C59.5575 120.363 60.0545 120.164 60.5515 119.964C61.3446 119.649 61.5244 119.26 61.2706 118.409C60.5198 118.409 59.7796 118.409 59.0076 118.409C59.0076 119.05 59.0076 119.659 59.0076 120.269C59.0182 120.353 59.0287 120.437 59.0393 120.574ZM57.4531 118.367C57.2733 118.367 57.083 118.357 56.9032 118.367C56.6811 118.378 56.5648 118.325 56.6177 118.073C56.734 117.537 56.8292 116.991 56.9561 116.455C56.9772 116.381 57.1253 116.287 57.2204 116.287C58.9441 116.276 60.6678 116.276 62.4021 116.287C62.8145 116.287 63.2481 116.623 63.2587 117.043C63.2904 118.02 63.2798 118.997 63.2058 119.964C63.1635 120.605 62.7617 121.057 62.1695 121.341C61.9897 121.425 61.8205 121.53 61.6196 121.635C62.0214 122.402 62.4338 123.116 63.3856 123.295C63.4596 123.305 63.5653 123.463 63.5653 123.558C63.5442 124.104 63.4807 124.65 63.449 125.207C63.4384 125.428 63.3221 125.459 63.1212 125.449C62.1906 125.365 61.4187 125.008 60.8899 124.22C60.5198 123.673 60.1708 123.106 59.7901 122.496C59.5892 122.591 59.346 122.686 59.1345 122.833C59.0605 122.885 59.0182 123.043 59.0182 123.158C59.0076 123.736 59.0076 124.314 59.0182 124.882C59.0287 125.123 58.9441 125.218 58.6903 125.207C58.2462 125.197 57.8126 125.197 57.3685 125.207C57.1676 125.207 57.0618 125.134 57.0724 124.924C57.0724 124.882 57.0724 124.85 57.0724 124.808C57.1887 123.873 56.9772 123.001 56.4908 122.192C56.3427 121.939 56.3956 121.782 56.66 121.666C56.9666 121.53 57.083 121.299 57.0618 120.952C57.0301 120.437 57.0618 119.922 57.0724 119.418C57.083 119.05 56.9455 118.63 57.5165 118.472C57.506 118.42 57.4742 118.399 57.4531 118.367Z" fill="#D0985D"/>
<path fill-rule="evenodd" clip-rule="evenodd" d="M24.6922 118.399C24.6922 120.006 24.6922 121.593 24.6922 123.169C25.718 123.358 26.8495 122.707 27.0293 121.771C27.2408 120.668 27.2091 119.533 27.1245 118.399C26.3102 118.399 25.5277 118.399 24.6922 118.399ZM22.186 123.19C22.4187 123.158 22.6196 123.137 22.7782 123.116C22.7359 122.927 22.6724 122.749 22.6724 122.57C22.6619 121.32 22.6724 120.069 22.6724 118.808C22.6724 118.672 22.6724 118.535 22.6724 118.409C22.0591 118.304 22.0591 118.304 22.1649 117.705C22.2389 117.243 22.3235 116.77 22.3975 116.287C24.6711 116.287 26.9235 116.287 29.2077 116.287C29.2183 116.371 29.2394 116.465 29.2394 116.56C29.25 117.978 29.2606 119.386 29.2606 120.805C29.2606 122.15 28.7424 123.284 27.7907 124.23C27.2302 124.787 26.5534 125.092 25.7709 125.113C24.7028 125.144 23.6348 125.144 22.5561 125.176C22.3023 125.186 22.186 125.113 22.1966 124.839C22.1966 124.314 22.186 123.778 22.186 123.19Z" fill="#D0985D"/>
<path fill-rule="evenodd" clip-rule="evenodd" d="M87.8769 116.297C88.4902 116.297 89.0401 116.308 89.6006 116.297C89.8332 116.297 89.8861 116.444 89.8544 116.612C89.7804 117.012 89.9707 117.159 90.3408 117.243C91.3137 117.484 92.128 117.978 92.7096 118.808C92.7413 118.85 92.7836 118.892 92.8894 118.997C92.8894 118.188 92.9105 117.474 92.8788 116.749C92.8682 116.392 92.9634 116.255 93.3441 116.276C93.7459 116.308 94.1478 116.287 94.5496 116.287C94.7928 116.276 94.888 116.392 94.888 116.623C94.888 118.966 94.8986 121.309 94.8774 123.652C94.8669 124.524 94.1795 125.113 93.1855 125.186C92.9528 125.207 92.7096 125.186 92.4029 125.186C92.4029 124.556 92.4029 123.936 92.4135 123.316C92.4135 123.263 92.5192 123.19 92.5827 123.169C92.8471 123.085 92.9211 122.875 92.9211 122.643C92.9105 121.971 92.773 121.33 92.2443 120.878C91.6627 120.384 91.0493 119.922 90.4466 119.46C90.3091 119.355 90.1188 119.302 89.8861 119.208C89.8755 119.407 89.8544 119.554 89.8544 119.691C89.8544 121.372 89.8438 123.053 89.865 124.724C89.865 125.071 89.7909 125.228 89.4102 125.197C89.019 125.165 88.6277 125.176 88.2364 125.197C87.9509 125.207 87.8557 125.102 87.8663 124.829C87.8769 123.789 87.8663 122.749 87.8663 121.708C87.8663 120.027 87.8769 118.357 87.8875 116.675C87.8769 116.57 87.8769 116.465 87.8769 116.297Z" fill="#D0985D"/>
<path fill-rule="evenodd" clip-rule="evenodd" d="M33.0041 118.388C33.0041 118.682 33.0041 118.892 33.0041 119.155C33.2261 119.155 33.4376 119.155 33.6491 119.155C34.3894 119.155 35.1402 119.176 35.8804 119.145C36.24 119.134 36.314 119.281 36.2505 119.596C36.1659 119.996 36.0919 120.405 36.039 120.815C36.0073 121.046 35.891 121.099 35.6901 121.099C34.9393 121.088 34.1779 121.088 33.4271 121.078C33.279 121.078 33.131 121.078 32.9723 121.078C32.9723 121.53 32.93 121.95 32.9829 122.349C33.0675 122.938 33.353 123.158 33.9558 123.169C34.5903 123.179 35.2142 123.179 35.8487 123.169C36.1342 123.158 36.2717 123.221 36.1977 123.547C36.1025 124.009 36.0496 124.482 35.9544 124.945C35.9333 125.039 35.8064 125.165 35.7324 125.165C34.8229 125.155 33.9135 125.186 33.0146 125.071C32.1369 124.945 31.5765 124.283 31.3121 123.484C31.1217 122.927 31.1323 122.307 31.0689 121.719C31.0477 121.519 31.0689 121.32 31.0689 121.088C30.7939 121.088 30.5507 121.109 30.3286 121.078C30.2335 121.067 30.0748 120.931 30.0748 120.868C30.1383 120.3 30.2229 119.733 30.3075 119.145C30.5824 119.145 30.8362 119.145 31.1112 119.145C31.1112 118.882 31.1112 118.661 31.1112 118.367C30.8574 118.367 30.593 118.357 30.3392 118.367C30.1383 118.378 30.0325 118.325 30.0643 118.083C30.1594 117.495 30.244 116.907 30.3392 116.297C30.4873 116.287 30.6036 116.276 30.7305 116.276C32.507 116.276 34.2836 116.276 36.0602 116.276C36.5361 116.276 36.5361 116.276 36.4197 116.738C36.314 117.169 36.1765 117.611 36.0919 118.041C36.039 118.336 35.891 118.388 35.6266 118.388C34.7595 118.378 33.9029 118.388 33.0041 118.388Z" fill="#D0985D"/>
<path fill-rule="evenodd" clip-rule="evenodd" d="M64.5277 116.276C66.0293 116.276 67.4675 116.276 68.9162 116.276C69.4026 116.276 69.8997 116.276 70.3861 116.276C70.6188 116.276 70.7034 116.35 70.6399 116.591C70.5024 117.085 70.365 117.579 70.2592 118.083C70.2063 118.336 70.09 118.399 69.8468 118.399C68.9797 118.388 68.1125 118.388 67.2137 118.388C67.2137 118.661 67.2137 118.882 67.2137 119.134C67.3406 119.134 67.478 119.155 67.6155 119.155C68.4615 119.155 69.3075 119.166 70.1429 119.155C70.3861 119.155 70.5024 119.229 70.4496 119.481C70.365 119.943 70.3015 120.416 70.1958 120.878C70.1746 120.962 69.9843 121.078 69.8785 121.078C69.0854 121.088 68.2923 121.088 67.4992 121.067C67.2137 121.057 67.0762 121.13 67.1185 121.446C67.1502 121.74 67.1185 122.045 67.1714 122.339C67.2665 122.927 67.5415 123.158 68.1442 123.169C68.7893 123.179 69.4238 123.179 70.0689 123.169C70.365 123.158 70.439 123.263 70.3861 123.547C70.2909 124.009 70.2381 124.482 70.1429 124.955C70.1217 125.05 69.9949 125.186 69.9208 125.186C69.0008 125.165 68.0808 125.207 67.1714 125.081C66.3254 124.966 65.8178 124.293 65.5005 123.547C65.3419 123.169 65.2996 122.728 65.2573 122.307C65.215 121.929 65.2467 121.54 65.2467 121.109C64.9612 121.109 64.7074 121.13 64.4642 121.099C64.3796 121.088 64.2421 120.931 64.2527 120.857C64.3056 120.3 64.4008 119.743 64.4854 119.166C64.7603 119.166 65.0141 119.166 65.289 119.166C65.289 118.913 65.289 118.682 65.289 118.388C65.0352 118.388 64.7814 118.378 64.5277 118.388C64.2844 118.399 64.2104 118.315 64.2527 118.073C64.3585 117.474 64.4325 116.896 64.5277 116.276Z" fill="#D0985D"/>
<path fill-rule="evenodd" clip-rule="evenodd" d="M84.5141 113.113C84.7996 113.345 85.0534 113.544 85.3072 113.744C85.4764 113.87 85.4976 113.996 85.3284 114.143C84.8102 114.563 84.3026 114.984 83.7844 115.415C83.6258 115.551 83.4989 115.541 83.372 115.372C83.2345 115.183 83.0759 115.005 82.9173 114.816C83.4566 114.227 83.9748 113.681 84.5141 113.113Z" fill="#D0985D"/>
</svg>
