<svg width="31" height="30" viewBox="0 0 31 30" fill="none" xmlns="http://www.w3.org/2000/svg">
<path d="M15.7277 30C7.40492 29.9842 0.710364 23.2529 0.729778 14.9198C0.748934 6.68343 7.49991 -0.0204006 15.7543 4.66502e-05C24.0644 0.0207527 30.7463 6.73857 30.7297 15.0562C30.7134 23.2998 23.971 30.0158 15.7277 30ZM16.1579 6.27346C16.1579 6.3436 16.1579 6.40727 16.1579 6.47068C16.1579 10.2834 16.1589 14.0965 16.1579 17.9092C16.1574 19.6457 14.5978 20.9455 12.8966 20.6308C11.4985 20.3722 10.5293 19.0933 10.6541 17.6721C10.7716 16.3348 11.8228 15.2795 13.1642 15.1732C13.5502 15.1426 13.94 15.1597 14.328 15.155C14.3739 15.1545 14.4197 15.155 14.4704 15.155C14.4704 14.1306 14.4704 13.1235 14.4704 12.118C14.1621 12.0678 12.8249 12.1188 12.3757 12.1962C9.26894 12.7306 7.13493 15.7514 7.66455 18.8645C8.18278 21.9104 10.9383 24.0211 14.0016 23.6908C15.8876 23.4877 17.3393 22.5541 18.352 20.9548C18.953 20.0054 19.2165 18.9543 19.215 17.8321C19.2116 15.6064 19.214 13.3808 19.214 11.1554C19.214 11.0969 19.214 11.0384 19.214 10.9458C20.3532 12.0999 21.7422 12.6364 23.2943 12.8494C23.4877 11.8693 23.679 10.8989 23.8729 9.91668C23.7799 9.89934 23.7012 9.8807 23.6215 9.87009C22.5071 9.72282 21.5693 9.22251 20.7681 8.44707C20.1448 7.84375 19.6592 7.14078 19.2613 6.37414C19.2196 6.29416 19.1733 6.26543 19.0827 6.26569C18.1511 6.26905 17.2192 6.2675 16.2876 6.26776C16.2495 6.26802 16.2115 6.27113 16.1579 6.27346Z" fill="#E40424"/>
</svg>
