<svg width="26" height="26" viewBox="0 0 26 26" fill="none" xmlns="http://www.w3.org/2000/svg">
<path d="M12.4858 5.3258e-07C19.4009 -0.00203064 25.0063 5.8061 25.0083 12.9761C25.0103 20.1878 19.4185 26.002 12.4819 26C5.59033 25.997 0.00634817 20.1634 0.00830129 12.9721C0.0102544 5.8254 5.61182 0.0020317 12.4858 5.3258e-07ZM5.88232 17.7392C7.69287 18.9285 9.65772 19.2697 11.7231 18.8381C15.5181 18.0459 18.1313 14.6965 18.2075 10.5824C18.2134 10.2645 18.3013 10.0614 18.5337 9.85423C18.8979 9.52822 19.2134 9.14433 19.5503 8.78481C19.5249 8.76044 19.4995 8.73505 19.4741 8.71068C19.0474 8.82544 18.6216 8.93918 18.1909 9.05496C18.562 8.55225 18.9077 8.08406 19.2524 7.61689C19.2192 7.58439 19.186 7.55291 19.1528 7.52041C18.7974 7.66665 18.439 7.80579 18.0864 7.96117C17.6997 8.13281 17.4048 8.10031 17.0366 7.80071C16.1079 7.04715 15.0522 6.98113 14.0151 7.54681C12.9956 8.10234 12.4858 9.02144 12.4917 10.233C12.4927 10.4311 12.4917 10.6291 12.4917 10.8536C10.1079 10.6789 8.18799 9.61658 6.63916 7.77431C5.9458 9.13418 6.1626 10.2615 7.42529 11.7432C6.97119 11.6244 6.62647 11.533 6.23291 11.4304C6.30713 12.8857 7.05713 13.7835 8.29639 14.3787C7.96826 14.399 7.64111 14.4193 7.2749 14.4426C7.46338 15.0408 7.77783 15.5202 8.25537 15.8218C8.72217 16.1173 9.24854 16.3093 9.75732 16.552C8.61865 17.4274 7.3208 17.792 5.88232 17.7392Z" fill="#E40424"/>
</svg>
