<svg width="30" height="31" viewBox="0 0 30 31" fill="none" xmlns="http://www.w3.org/2000/svg">
<path d="M14.9871 0.918945C23.2793 0.917774 29.9988 7.62559 30 15.9049C30.0012 24.2205 23.2852 30.9236 14.9543 30.9189C6.69258 30.9143 -0.00351424 24.1771 1.38371e-06 15.8732C0.00351701 7.63262 6.73125 0.920117 14.9871 0.918945ZM6.28711 24.7607C6.53203 24.7162 6.6832 24.6975 6.82969 24.66C8.05313 24.3377 9.26953 23.9908 10.5012 23.7037C10.807 23.6322 11.1973 23.6709 11.4832 23.8021C13.1273 24.5533 14.8488 24.8299 16.6195 24.5521C21.7031 23.7518 24.9516 19.2037 24.1453 14.0873C23.4012 9.3623 18.5602 5.9416 13.8539 6.81465C7.78242 7.94082 4.61953 14.2455 7.33125 19.7885C7.44492 20.0205 7.4625 20.3533 7.39922 20.6076C7.05938 21.9635 6.68086 23.31 6.28711 24.7607Z" fill="#E40424"/>
<path d="M8.42227 22.6689C8.64961 21.8264 8.8711 21.1186 9.01992 20.3967C9.075 20.1271 9.04805 19.7732 8.91446 19.5412C6.30703 15.0143 8.71055 9.50879 13.8082 8.36504C18.4195 7.33027 22.868 11.0299 22.7672 15.8146C22.6477 21.4291 16.6711 24.9037 11.741 22.2131C11.3648 22.008 11.0438 21.9705 10.6406 22.0947C9.94102 22.3092 9.22266 22.465 8.42227 22.6689ZM12.3926 11.3592C11.9895 11.6076 11.6367 11.7377 11.4059 11.9826C10.6254 12.8076 10.5164 14.0064 11.1867 15.1889C12.4606 17.4377 14.2336 19.1217 16.7859 19.8541C17.7328 20.126 18.6059 20.0006 19.357 19.3373C20.0836 18.6963 19.9758 17.8361 19.1355 17.4225C18.9961 17.3533 18.8566 17.283 18.7172 17.215C17.6262 16.6877 17.6145 16.6783 16.8563 17.6064C16.5996 17.9205 16.3664 17.965 16.0031 17.8021C14.8441 17.2842 13.9207 16.5014 13.275 15.4162C13.1672 15.2346 13.152 14.8279 13.2738 14.7084C13.8609 14.133 13.8645 13.5529 13.4754 12.8838C13.3207 12.6166 13.2738 12.2838 13.1027 12.0307C12.9445 11.7963 12.6844 11.6275 12.3926 11.3592Z" fill="#E40424"/>
</svg>
