<svg width="31" height="31" viewBox="0 0 31 31" fill="none" xmlns="http://www.w3.org/2000/svg">
<path d="M15.5023 30.9189C7.21162 30.9201 0.48766 24.2111 0.486488 15.9342C0.485317 7.61621 7.19873 0.915431 15.5293 0.918947C23.7942 0.922462 30.49 7.65606 30.4865 15.9611C30.4818 24.2006 23.7543 30.9178 15.5023 30.9189ZM15.1894 22.5635C17.6725 22.4451 19.7971 22.3666 21.9181 22.2354C23.609 22.1311 24.4199 21.3272 24.6238 19.6619C24.9273 17.1916 24.9472 14.7236 24.6332 12.251C24.4141 10.5307 23.6594 9.74903 21.9204 9.60723C17.6151 9.25567 13.3075 9.26035 9.001 9.60254C7.3581 9.73379 6.54719 10.54 6.35266 12.1807C6.27298 12.858 6.20502 13.5377 6.16635 14.2186C6.05268 16.2295 6.08549 18.2369 6.46516 20.2209C6.6714 21.2979 7.38387 22.0279 8.48188 22.1217C10.8302 22.3221 13.1868 22.4369 15.1894 22.5635Z" fill="#E40424"/>
<path d="M13.6368 18.7209C13.6368 16.8201 13.6368 15.0189 13.6368 13.1182C15.2691 14.058 16.8405 14.9615 18.5034 15.9189C16.8394 16.8775 15.2679 17.7822 13.6368 18.7209Z" fill="#E40424"/>
</svg>
