<svg width="143" height="155" viewBox="0 0 143 155" fill="none" xmlns="http://www.w3.org/2000/svg">
<path fill-rule="evenodd" clip-rule="evenodd" d="M69.0572 49.4829C69.0572 49.9353 69.0443 50.1551 69.0572 50.3877C69.1606 52.2102 68.4885 53.7355 67.0797 54.8212C66.007 55.6484 64.7662 56.2689 63.6029 56.9798C63.2798 57.1736 62.6724 57.2124 62.9696 57.8199C63.6159 59.1125 63.4478 59.3839 64.3526 59.0737C65.4641 58.6989 66.6403 58.2594 67.545 57.5356C69.4708 56.0362 70.6728 54.0586 70.3109 51.4735C70.2075 50.7496 70.0266 49.9741 69.0572 49.4829ZM63.6676 64.8643C63.7193 64.9419 63.7839 65.0195 63.8485 65.0841C64.5594 64.8126 65.2702 64.5671 65.9682 64.2568C69.1735 62.835 72.2238 61.1676 74.3305 58.2465C75.8686 56.1138 76.1917 53.7872 75.1836 51.3184C75.0931 51.1116 74.8734 50.9565 74.7053 50.7755C74.6407 50.9952 74.5244 51.215 74.5115 51.4347C74.4469 52.081 74.5115 52.7402 74.3693 53.3606C73.6972 56.1784 71.6034 57.6519 69.1218 58.673C67.6872 59.2676 66.1879 59.72 64.7145 60.1982C64.1587 60.3792 63.9907 60.6377 64.0553 61.271C64.1329 62.0983 64.0036 62.9643 63.9261 63.8045C63.8873 64.1664 63.758 64.5154 63.6676 64.8643ZM65.6968 66.2732C65.994 66.5317 66.162 66.6739 66.3171 66.8161C66.7695 67.2039 67.2994 67.5399 67.6355 68.0053C68.0361 68.5869 68.4885 68.6386 69.0314 68.393C70.4919 67.7338 72.0299 67.1909 73.387 66.3508C76.308 64.5541 78.6862 62.1629 80.1855 59.022C81.1548 56.9798 81.4392 54.86 80.7154 52.6626C80.612 52.3395 80.3535 52.0551 80.1725 51.7578C80.095 51.7578 80.0045 51.7578 79.927 51.7578C78.6862 59.9785 73.2319 64.063 65.6968 66.2732ZM64.8825 11.4301C62.1295 11.4301 59.9969 11.8696 57.9677 12.7356C56.4684 13.369 55.1243 14.2221 54.1291 15.5534C53.4311 16.484 53.3665 17.712 54.0127 18.4358C54.6978 19.1984 56.3263 19.4828 57.1147 18.927C57.9031 18.3712 58.6527 17.7766 59.4024 17.1691C60.9663 15.9024 62.7241 15.0622 64.6886 14.6357C66.0974 14.3384 67.2865 14.5193 67.9586 15.9929C68.1525 16.4323 68.4368 16.3806 68.7599 16.0833C69.3157 15.5663 69.8456 15.0364 70.4531 14.584C71.2932 13.9377 71.3061 13.7567 70.4272 13.1234C68.5661 11.8696 66.4981 11.4689 64.8825 11.4301ZM54.7753 84.1234C54.1032 84.1234 53.5474 84.0976 53.0046 84.1363C52.7849 84.1493 52.5652 84.2914 52.3584 84.369C52.5135 84.5112 52.6556 84.7051 52.8366 84.8085C54.6202 85.752 56.5072 86.3983 58.4847 86.7731C61.871 87.4065 65.141 87.1868 68.0491 85.1316C70.0783 83.6969 71.4224 81.8227 71.1123 79.1471C70.9701 77.9579 70.2851 77.1565 69.2898 76.5878C68.915 76.3681 68.5919 76.4327 68.4497 76.911C67.726 79.4314 65.9165 80.9696 63.7063 82.107C60.8629 83.5418 57.7739 83.9683 54.7753 84.1234ZM86.5703 57.4968C86.4928 57.0444 86.3764 56.1913 86.2084 55.3511C86.1826 55.2219 85.9758 55.1314 85.8594 55.028C85.769 55.1443 85.6397 55.2477 85.601 55.3641C85.4846 55.7906 85.4459 56.2301 85.3166 56.6566C84.4377 59.4873 82.7575 61.7622 80.5603 63.7269C77.2515 66.6869 73.4775 68.6128 69.0184 69.0393C68.4756 69.091 68.4368 69.3237 68.5661 69.7631C68.7341 70.3319 68.9538 70.9006 68.9926 71.4822C69.0831 72.5809 69.0443 72.5809 70.1687 72.5292C70.3238 72.5163 70.4789 72.4904 70.634 72.4775C75.287 71.9217 79.1515 69.7631 82.4473 66.5317C84.8772 64.1664 86.4669 61.3874 86.5703 57.4968ZM67.0797 87.5616C67.6355 87.6392 67.9586 87.7296 68.2817 87.7296C70.2851 87.7038 72.3013 87.7943 74.2788 87.5875C79.5521 87.0317 84.3085 85.3126 87.8369 81.0859C89.3362 79.2893 90.3185 77.2341 90.3702 74.8429C90.409 73.1367 90.0083 71.5339 88.341 70.6679C86.4152 69.6597 83.869 70.3706 82.835 72.2836C82.2663 73.3306 81.9303 74.5327 81.633 75.7089C81.0385 78.1518 80.1725 80.4396 78.2338 82.1329C77.678 82.6241 77.006 82.986 76.3856 83.4125C76.3339 83.335 76.2692 83.2574 76.2175 83.1798C76.4114 82.986 76.6311 82.805 76.7733 82.5853C77.3679 81.6546 78.0658 80.7498 78.4923 79.7417C79.061 78.3845 78.195 77.079 76.9284 77.079C76.0754 77.079 75.5713 77.4668 75.2353 78.4232C74.5373 80.4267 73.4516 82.1975 71.9007 83.6193C70.6082 84.8085 69.1218 85.7908 67.7389 86.8636C67.5579 87.0317 67.3899 87.2255 67.0797 87.5616ZM40.3254 73.7571C40.2478 73.8347 40.1832 73.9252 40.1057 74.0027C40.6097 74.6231 41.0879 75.2823 41.6437 75.864C43.8021 78.1647 46.232 80.1553 48.8428 81.9261C49.2435 82.1975 49.7088 82.5206 50.1482 82.5336C53.5733 82.6499 56.9596 82.3655 60.2425 81.3186C62.6594 80.543 64.8308 79.3797 66.3301 77.2082C68.4756 74.1061 67.5967 69.272 64.5077 67.2039C64.107 66.9324 63.8227 66.9066 63.4737 67.3719C61.7676 69.7244 59.5704 71.5598 56.9725 72.8394C52.3454 75.1143 47.4857 75.3211 42.5097 74.2612C41.7729 74.119 41.0492 73.9252 40.3254 73.7571ZM44.6681 60.3016C40.39 60.3404 37.2105 61.7364 34.9228 64.9161C34.7548 65.1487 34.7031 65.6399 34.8194 65.8855C35.4657 67.1909 36.1377 68.4835 36.9003 69.7114C37.4431 70.5774 37.8697 71.5469 39.1104 71.8441C42.1219 72.5809 45.1205 72.917 48.2224 72.6197C52.0482 72.2578 55.6542 71.2754 58.7691 68.9488C61.0438 67.2426 62.4656 65.0453 62.3363 62.0466C62.2588 60.2112 61.5479 58.6213 60.6432 57.0832C60.1908 56.2947 59.984 56.2947 59.4412 57.0315C57.2052 60.069 54.1678 61.271 50.4584 60.8962C48.3904 60.7152 46.3225 60.4826 44.6681 60.3016ZM51.8284 31.1157C51.8543 31.0253 51.8672 30.9219 51.906 30.8314C53.0434 27.8197 54.8141 25.2088 57.0113 22.8822C59.0922 20.6719 61.4703 18.8365 64.0682 17.2725C64.288 17.1432 64.443 16.8976 64.6369 16.7167C64.5852 16.6391 64.5335 16.5745 64.4818 16.497C64.1458 16.5874 63.771 16.6262 63.4737 16.7813C62.1037 17.531 60.7078 18.229 59.4153 19.095C54.6461 22.2876 50.523 26.1911 46.8653 30.5858C46.6585 30.8314 46.2708 31.064 45.9735 31.0511C45.0171 30.9994 44.0606 30.8443 43.1171 30.728C42.4967 30.6504 41.941 30.728 41.5145 31.2709C41.0879 31.8267 40.5968 32.3307 40.1315 32.8607C36.5772 36.8676 33.9017 41.3528 32.5705 46.5876C31.0971 52.3395 31.6011 57.975 33.6174 63.5201C33.682 63.6881 33.7984 63.8432 33.9017 64.0371C34.5997 63.2357 35.1942 62.499 35.8792 61.8269C36.3445 61.3615 36.5126 60.9091 36.3962 60.237C35.1296 52.3912 36.4609 45.0753 40.8941 38.4187C41.5274 37.4622 42.2641 36.5833 42.962 35.6655C43.0267 35.7172 43.0913 35.756 43.1559 35.8077C42.794 36.454 42.3804 37.0873 42.0573 37.7466C38.9295 44.3644 38.0248 51.2925 39.1363 58.505C39.2268 59.1383 39.4594 59.2288 40.0023 59.0349C42.2124 58.2465 44.4872 58.2982 46.7878 58.4791C48.6748 58.6342 50.5747 58.7893 52.4747 58.8023C55.8998 58.8152 57.8385 57.1478 58.5364 53.8001C58.7561 52.7143 59.0017 51.6157 59.3378 50.5558C59.7514 49.2632 60.2942 48.0224 60.7078 46.7427C61.4057 44.5971 61.8452 42.3868 61.4574 40.1378C60.8887 36.8676 58.6657 35.0063 55.7576 33.8689C55.0467 33.5975 55.0338 33.2614 55.2018 32.7185C56.3134 29.2157 57.7092 25.8938 60.3847 23.2441C60.5527 23.0761 60.6432 22.8175 60.8758 22.391C60.3847 22.5203 60.1003 22.5332 59.9064 22.6624C56.5201 24.821 54.1937 27.9748 51.8284 31.1157ZM93.1232 75.0497C93.5109 74.9075 93.8211 74.8429 94.0796 74.7007C96.4578 73.434 98.5257 71.7149 100.452 69.8536C102.713 67.6821 104.665 65.265 106.358 62.6282C109.512 57.6777 111.347 52.3007 111.619 46.4325C111.774 42.9555 111.347 39.5174 110.365 36.1826C108.336 29.3449 104.562 23.5802 99.2625 18.8106C95.5143 15.4371 91.2362 13.1234 86.3764 11.8308C83.8432 11.1587 81.2711 10.8743 78.6603 11.4301C78.4406 11.4689 78.2467 11.6369 78.0399 11.7533C78.2855 11.8438 78.5182 11.9342 78.7637 12.0118C79.4746 12.2315 80.1855 12.4383 80.8963 12.6581C80.8705 12.7485 80.8446 12.839 80.8317 12.9295C80.7412 12.9424 80.6508 12.9554 80.5603 12.9554C78.4794 12.7873 76.5407 13.3173 74.6407 14.0928C74.4598 14.1704 74.3305 14.3901 74.1884 14.5452C74.3435 14.6615 74.4856 14.8037 74.6536 14.8942C75.0802 15.101 75.5455 15.2173 75.9203 15.4758C76.4631 15.8507 76.9413 16.316 77.4583 16.7425C77.4066 16.8201 77.3549 16.8976 77.3032 16.9623C77.0447 16.9364 76.7992 16.8976 76.5407 16.8718C75.2999 16.7813 74.0462 16.6908 72.8054 16.6262C72.5857 16.6133 72.353 16.7684 72.1204 16.8589C72.2626 17.0527 72.3789 17.2854 72.5598 17.4405C73.6714 18.397 74.3951 19.612 74.9768 20.9563C73.7618 20.3875 72.6245 19.7283 71.4741 19.095C71.3061 19.0045 71.1123 18.9657 70.9184 18.914C70.8667 19.095 70.7504 19.3018 70.7762 19.4698C70.8667 20.1937 70.9701 20.9175 71.1381 21.6155C71.4095 22.6624 71.7456 23.6965 72.1204 24.9373C70.6211 23.2312 70.0007 21.3053 69.1089 19.4698C67.7518 22.1971 68.7858 24.7952 69.4967 27.419C69.2382 27.1735 69.0055 26.9279 68.9021 26.6306C68.4239 25.1829 67.9974 23.7223 67.5321 22.2747C67.4804 22.1196 67.3641 21.9903 67.2865 21.8481C67.1573 21.9515 66.9763 22.042 66.9117 22.1713C66.7307 22.6237 66.5369 23.089 66.4464 23.5672C66.2396 24.7305 66.0974 25.8938 65.9294 27.0701C65.8648 27.083 65.7872 27.083 65.7226 27.0959C65.5417 26.1136 65.3607 25.1183 65.1798 24.136C65.0893 24.123 64.9988 24.1101 64.9083 24.1101C64.8049 24.4849 64.6369 24.8469 64.6111 25.2217C64.5335 26.4108 64.456 27.6129 64.4818 28.8021C64.5723 33.7784 66.86 37.6561 70.6599 40.7065C73.9816 43.3692 77.8331 45.0624 81.7364 46.6781C84.037 47.6346 86.3506 48.5782 88.5995 49.651C90.0988 50.3619 91.5851 51.1891 92.5157 52.6497C94.868 56.3852 94.4286 62.0595 91.5205 65.3555C90.8613 66.1052 90.0212 66.6998 89.2845 67.3848C89.1165 67.5529 89.0131 67.7984 88.9226 68.0182C88.9097 68.044 89.1811 68.2379 89.3362 68.2638C91.7532 68.6386 93.0973 70.8747 93.2524 72.8136C93.2783 73.4986 93.1749 74.1837 93.1232 75.0497ZM122.191 50.7884C122.411 78.3715 99.3529 102.232 69.9749 101.392C43.2076 100.629 20.4729 78.5525 20.8089 50.0258C21.1191 22.4556 43.6729 -0.345036 72.2109 0.00395377C100.309 0.365869 122.411 23.438 122.191 50.7884Z" fill="#A31F25"/>
<path fill-rule="evenodd" clip-rule="evenodd" d="M115.509 129.673C115.509 128.057 115.496 126.442 115.509 124.839C115.509 124.529 115.431 124.399 115.095 124.399C112.821 124.412 110.546 124.412 108.258 124.399C107.948 124.399 107.857 124.503 107.857 124.813C107.87 128.031 107.87 131.263 107.857 134.481C107.857 134.817 107.974 134.895 108.284 134.895C110.546 134.882 112.808 134.882 115.082 134.895C115.418 134.895 115.509 134.792 115.509 134.468C115.496 132.866 115.509 131.263 115.509 129.673ZM107.896 120.548C107.896 121.052 107.896 121.556 107.896 122.06C107.922 122.073 107.961 122.086 107.987 122.086C108.038 122.021 108.103 121.969 108.142 121.905C108.374 121.517 108.581 121.116 108.84 120.741C108.917 120.625 109.098 120.509 109.227 120.509C112.058 120.496 114.901 120.496 117.732 120.496C118.21 120.496 118.52 120.806 118.753 121.181C119.205 121.918 119.361 122.758 119.361 123.598C119.386 126.351 119.373 129.104 119.386 131.845C119.386 133.512 119.386 135.192 119.386 136.86C119.386 137.79 118.96 138.372 118.042 138.605C117.68 138.695 117.293 138.76 116.918 138.76C113.363 138.773 109.796 138.773 106.242 138.773C104.872 138.773 103.967 137.868 103.967 136.485C103.967 131.586 103.967 126.687 103.954 121.788C103.954 121.427 104.019 121.259 104.419 121.194C105.505 121.013 106.578 120.754 107.664 120.535C107.728 120.535 107.793 120.548 107.896 120.548Z" fill="#A31F25"/>
<path fill-rule="evenodd" clip-rule="evenodd" d="M62.0261 120.625C62.0261 120.806 62.0261 120.948 62.0261 121.078C62.0261 122.887 62.0261 124.71 62.0261 126.519C62.0261 126.842 62.0907 127.023 62.4526 126.972C62.6853 126.946 62.7628 127.075 62.7758 127.282C62.8533 128.303 62.9309 129.311 63.0213 130.332C63.0472 130.565 62.9567 130.642 62.7241 130.642C62.0132 130.668 62.0132 130.668 62.0132 131.405C62.0132 132.93 61.9873 134.468 62.0261 135.994C62.052 137.325 61.2636 138.385 59.9969 138.605C58.9759 138.773 57.929 138.876 56.895 139.005C56.6494 139.031 56.5589 138.941 56.5589 138.682C56.5719 137.726 56.5589 136.756 56.546 135.8C56.546 135.567 56.6236 135.464 56.8562 135.425C57.6834 135.296 58.084 134.804 58.084 133.964C58.084 132.982 58.0711 132 58.084 131.004C58.084 130.707 57.9807 130.617 57.6963 130.617C56.3392 130.63 54.995 130.604 53.6379 130.63C53.2373 130.642 53.0046 130.513 52.8237 130.164C52.6815 129.88 52.4876 129.621 52.3196 129.35C52.255 129.259 52.1903 129.182 52.1128 129.091C52.0869 129.104 52.0482 129.104 52.0223 129.117C52.0094 129.234 51.9965 129.35 51.9965 129.479C51.9965 132.323 51.9965 135.166 51.9965 138.023C51.9965 138.579 52.0482 138.553 51.4795 138.643C50.4067 138.811 49.334 139.005 48.2612 139.186C48.1966 139.199 48.119 139.199 48.0027 139.199C48.0027 139.044 48.0027 138.915 48.0027 138.773C48.0027 133.318 48.0027 127.863 48.0027 122.409C48.0027 121.905 47.9898 121.388 47.9769 120.884C47.9639 120.651 48.0544 120.573 48.2871 120.573C49.4244 120.586 50.5618 120.586 51.6992 120.573C51.9965 120.573 52.0094 120.716 52.0094 120.948C51.9965 122.745 51.9965 124.529 51.9965 126.325C51.9965 126.868 51.9965 126.868 52.5522 126.868C54.2454 126.842 55.9385 126.816 57.6446 126.804C57.9548 126.804 58.0194 126.674 58.0194 126.403C58.0065 124.619 58.0194 122.848 58.0065 121.065C58.0065 120.729 58.0841 120.612 58.433 120.612C59.6092 120.638 60.7853 120.625 62.0261 120.625Z" fill="#A31F25"/>
<path fill-rule="evenodd" clip-rule="evenodd" d="M20.0981 120.354C20.0205 121.155 19.9559 121.879 19.8913 122.603C19.7103 124.593 19.5552 126.597 19.7232 128.6C19.8525 130.255 20.3824 131.793 21.3259 133.176C21.8041 133.887 22.4633 134.3 23.2905 134.455C24.5571 134.688 25.8238 134.546 27.0775 134.339C27.1679 134.326 27.2972 134.107 27.2972 133.977C27.3101 133.409 27.2843 132.84 27.2843 132.271C27.2843 128.497 27.2843 124.723 27.2843 120.948C27.2843 120.483 27.2843 120.483 27.7754 120.509C28.7965 120.573 29.8046 120.638 30.8257 120.69C31.11 120.703 31.1875 120.793 31.1875 121.078C31.1746 126.713 31.1746 132.349 31.1875 137.984C31.1875 138.269 31.0971 138.385 30.8127 138.411C29.7787 138.501 28.7318 138.605 27.6978 138.721C27.3747 138.76 27.2713 138.669 27.2972 138.346C27.323 138.01 27.3101 137.661 27.2972 137.312C27.2972 137.209 27.2584 137.105 27.155 137.002C27.1162 137.066 27.0775 137.131 27.0645 137.209C26.9224 137.687 26.7802 138.165 26.6639 138.643C26.5992 138.902 26.4571 139.044 26.2115 139.057C25.5782 139.096 24.9319 139.186 24.3116 139.135C23.3422 139.044 22.3599 138.902 21.4035 138.682C19.6069 138.256 18.4954 136.989 17.6682 135.425C16.5954 133.396 16.1172 131.211 15.9234 128.949C15.7166 126.468 15.7295 123.973 15.988 121.491C16.0268 121.116 16.156 121 16.5179 120.948C17.5002 120.806 18.4825 120.625 19.4648 120.457C19.6328 120.418 19.8266 120.393 20.0981 120.354Z" fill="#A31F25"/>
<path fill-rule="evenodd" clip-rule="evenodd" d="M130.786 125.653C130.36 125.653 129.92 125.653 129.494 125.653C128.757 125.653 128.744 125.627 128.899 124.916C129.106 123.934 129.313 122.939 129.507 121.956C129.545 121.737 129.636 121.659 129.855 121.659C133.164 121.659 136.473 121.62 139.782 121.685C140.867 121.711 141.72 122.357 142.095 123.417C142.341 124.141 142.444 124.916 142.612 125.653C142.664 125.899 142.548 125.989 142.315 126.028C141.255 126.222 140.195 126.429 139.135 126.623C138.916 126.661 138.761 126.597 138.722 126.364C138.657 126.015 138.412 125.834 138.101 125.757C137.817 125.692 137.52 125.627 137.223 125.627C136.305 125.614 135.4 125.64 134.483 125.64C134.379 125.64 134.289 125.666 134.095 125.692C134.431 126.002 134.689 126.248 134.961 126.493C137.352 128.678 139.73 130.862 142.134 133.047C142.677 133.538 142.897 134.171 142.974 134.869C142.987 134.998 142.987 135.115 143 135.244V135.347C142.987 135.994 142.845 136.64 142.664 137.247C142.354 138.23 141.578 138.773 140.648 139.031C139.976 139.212 139.278 139.341 138.593 139.354C136.512 139.38 134.418 139.367 132.337 139.328C131.484 139.316 130.851 138.798 130.334 138.178C129.649 137.338 129.287 136.33 129.015 135.296C128.99 135.218 129.106 135.024 129.196 134.998C130.321 134.624 131.445 134.275 132.583 133.913C132.88 133.822 133.022 133.926 133.074 134.223C133.177 134.869 133.539 135.27 134.237 135.244C135.336 135.205 136.447 135.257 137.546 135.257C137.675 135.257 137.817 135.166 137.959 135.115C137.908 134.985 137.869 134.843 137.778 134.753C137.016 134.029 136.227 133.318 135.452 132.607C133.513 130.823 131.574 129.053 129.636 127.269C129.338 126.997 129.351 126.907 129.675 126.661C130.075 126.364 130.463 126.08 130.864 125.782C130.812 125.744 130.799 125.705 130.786 125.653Z" fill="#A31F25"/>
<path fill-rule="evenodd" clip-rule="evenodd" d="M3.77404 133.383C3.86452 133.68 3.92914 133.926 4.01961 134.171C4.20056 134.611 4.5366 134.856 5.0019 134.869C6.19098 134.882 7.38006 134.882 8.55622 134.869C9.02151 134.869 9.18953 134.546 8.89226 134.184C8.49159 133.706 8.03923 133.266 7.58686 132.827C6.06173 131.328 4.53661 129.841 3.01148 128.355C2.28769 127.657 1.5639 126.946 0.840112 126.248C0.749638 126.157 0.659165 126.067 0.555766 125.938C1.16323 125.446 1.75777 124.968 2.33939 124.49C2.32646 124.451 2.30061 124.412 2.28769 124.374C1.53805 124.374 0.788413 124.374 0 124.374C0.193872 123.34 0.374819 122.383 0.568691 121.414C0.762563 120.496 0.762563 120.496 1.69315 120.496C4.5883 120.496 7.48346 120.496 10.3786 120.496C11.4255 120.496 12.4466 121.155 12.7697 122.137C13.0153 122.874 13.1316 123.65 13.2996 124.412C13.3513 124.645 13.2738 124.774 13.0023 124.813C11.9684 125.007 10.9344 125.214 9.87455 125.433C9.62898 124.464 8.86641 124.361 8.06507 124.348C7.03109 124.335 5.99711 124.348 4.96312 124.361C4.8985 124.361 4.83388 124.374 4.67878 124.399C4.80803 124.555 4.88557 124.671 4.98897 124.774C7.52223 127.256 10.0296 129.764 12.6017 132.206C13.3513 132.93 13.6874 133.745 13.6227 134.74C13.584 135.309 13.5323 135.877 13.4289 136.433C13.1833 137.661 12.3173 138.307 11.1929 138.618C10.6371 138.773 10.0555 138.837 9.47388 138.85C7.58686 138.876 5.69984 138.824 3.81282 138.876C2.66251 138.915 1.89995 138.346 1.3054 137.48C0.762563 136.692 0.452368 135.787 0.219722 134.869C0.193872 134.792 0.258496 134.611 0.32312 134.598C1.4605 134.171 2.61081 133.783 3.77404 133.383Z" fill="#A31F25"/>
<path fill-rule="evenodd" clip-rule="evenodd" d="M36.5643 133.383C36.5901 133.525 36.603 133.589 36.616 133.654C36.784 134.533 37.1847 134.869 38.0765 134.869C39.1104 134.869 40.1444 134.882 41.1784 134.856C41.3852 134.856 41.592 134.701 41.7988 134.611C41.7213 134.404 41.6825 134.158 41.5403 134.016C40.7777 133.228 39.9764 132.452 39.188 131.689C37.7016 130.229 36.2024 128.768 34.716 127.308C34.2636 126.855 33.8242 126.39 33.3589 125.899C33.9276 125.446 34.5092 124.968 35.1038 124.503C35.0908 124.464 35.065 124.412 35.0521 124.374C34.3024 124.374 33.5528 124.374 32.7773 124.374C32.9453 123.482 33.1004 122.654 33.2555 121.827C33.3201 121.504 33.3848 121.181 33.4365 120.845C33.4752 120.599 33.5786 120.483 33.863 120.483C37.0166 120.496 40.1703 120.483 43.3369 120.496C44.2287 120.496 45.2239 121.194 45.547 122.15C45.7926 122.887 45.9089 123.663 46.0769 124.425C46.1286 124.658 46.0511 124.774 45.7796 124.826C44.8103 124.994 43.8538 125.201 42.8845 125.382C42.794 125.395 42.6131 125.317 42.5872 125.253C42.4063 124.606 41.8764 124.399 41.3335 124.386C40.0927 124.335 38.839 124.374 37.5982 124.374C37.5853 124.374 37.5595 124.399 37.5078 124.451C37.5982 124.555 37.6887 124.684 37.7792 124.787C40.4029 127.359 43.0267 129.932 45.6633 132.504C46.1028 132.93 46.3096 133.447 46.3742 134.042C46.4776 134.96 46.3871 135.877 46.1157 136.756C45.7926 137.777 44.9783 138.346 43.9702 138.605C43.4144 138.747 42.8328 138.824 42.2512 138.837C40.3125 138.863 38.3867 138.824 36.4479 138.863C35.6078 138.876 34.9745 138.527 34.4446 137.958C33.5916 137.028 33.2297 135.864 32.9195 134.624C34.1344 134.21 35.3235 133.796 36.5643 133.383Z" fill="#A31F25"/>
<path fill-rule="evenodd" clip-rule="evenodd" d="M70.0136 138.786C70.2075 137.415 70.4014 136.162 70.5694 134.908C70.6082 134.662 70.7504 134.649 70.9442 134.649C71.4612 134.662 71.4612 134.649 71.4612 134.145C71.4612 133.305 71.5517 133.409 70.7245 133.409C70.6211 133.409 70.5048 133.434 70.4014 133.396C70.3109 133.357 70.1817 133.24 70.1817 133.176C70.2592 132.245 70.3626 131.315 70.466 130.384C70.4919 130.19 70.5823 130.138 70.7762 130.138C71.5 130.125 71.5 130.113 71.5 129.402C71.5129 126.545 71.5258 123.689 71.5258 120.832C71.5258 120.573 71.6163 120.509 71.849 120.509C72.9476 120.522 74.0591 120.522 75.1577 120.509C75.4679 120.509 75.5325 120.625 75.5325 120.91C75.5067 123.844 75.4938 126.765 75.4808 129.699C75.4808 130.164 75.4808 130.164 75.9461 130.164C76.4373 130.164 76.9155 130.164 77.4066 130.164C77.6522 130.164 77.7815 130.255 77.7427 130.526C77.6264 131.379 77.523 132.245 77.4325 133.098C77.4066 133.292 77.3291 133.357 77.1352 133.37C76.7345 133.37 76.3339 133.396 75.9332 133.396C75.6876 133.396 75.5972 133.486 75.5972 133.732C75.6101 134.817 75.4679 134.636 76.4631 134.636C78.4277 134.649 80.4052 134.636 82.3698 134.636C82.499 134.636 82.6283 134.636 82.8221 134.636C82.7834 134.985 82.7575 135.296 82.7187 135.606C82.6283 136.549 82.5249 137.493 82.4473 138.437C82.4215 138.708 82.331 138.811 82.0337 138.811C78.712 138.798 75.3904 138.798 72.0687 138.798C71.3966 138.786 70.7374 138.786 70.0136 138.786Z" fill="#A31F25"/>
<path fill-rule="evenodd" clip-rule="evenodd" d="M95.398 124.529C93.679 124.529 91.96 124.529 90.1893 124.529C90.2539 123.869 90.3056 123.288 90.3573 122.706C90.409 122.137 90.4736 121.569 90.5382 121.013C90.5899 120.535 90.577 120.522 91.0552 120.522C94.2347 120.522 97.4142 120.522 100.594 120.522C101.227 120.522 101.847 120.522 102.481 120.522C102.713 120.522 102.804 120.573 102.765 120.832C102.61 121.956 102.481 123.094 102.352 124.218C102.326 124.477 102.222 124.555 101.977 124.555C100.775 124.542 99.5856 124.555 98.3836 124.542C98.0346 124.542 97.9441 124.658 97.9441 124.994C97.9571 127.695 97.9441 130.397 97.9441 133.111C97.9441 133.512 97.9441 133.913 97.9829 134.313C98.0475 134.973 98.4224 135.438 99.0427 135.658C99.2883 135.748 99.3012 135.877 99.2495 136.097C98.9781 137.144 98.6938 138.178 98.4353 139.225C98.3707 139.484 98.2543 139.535 98.0217 139.535C96.0442 139.484 94.2735 137.907 94.0279 135.942C93.9762 135.567 93.9633 135.192 93.9504 134.804C93.9504 131.793 93.9504 128.781 93.9375 125.77C93.9375 125.485 94.0408 125.343 94.2864 125.227C94.5966 125.084 94.9068 124.929 95.217 124.774C95.2945 124.735 95.3592 124.684 95.4367 124.632C95.4109 124.593 95.398 124.567 95.398 124.529Z" fill="#A31F25"/>
<path fill-rule="evenodd" clip-rule="evenodd" d="M88.6254 129.453C88.6254 132.155 88.6254 134.856 88.6254 137.571C88.6254 137.868 88.5737 138.165 88.5866 138.449C88.5995 138.747 88.4961 138.837 88.1988 138.837C87.1261 138.824 86.0404 138.824 84.9676 138.837C84.6833 138.837 84.5799 138.773 84.5799 138.462C84.5799 132.775 84.5799 127.101 84.5799 121.414C84.5799 121.142 84.6574 121.039 84.9159 121C86.0662 120.832 87.2166 120.664 88.3669 120.483C88.7029 120.431 88.6383 120.651 88.6383 120.832C88.6383 122.926 88.6383 125.007 88.6383 127.101C88.6254 127.889 88.6254 128.665 88.6254 129.453Z" fill="#A31F25"/>
<path fill-rule="evenodd" clip-rule="evenodd" d="M64.4431 129.906C64.4431 127.101 64.4431 124.283 64.4301 121.478C64.4301 121.142 64.5335 121.026 64.8567 120.987C65.9682 120.832 67.0797 120.664 68.1913 120.483C68.411 120.444 68.4885 120.522 68.4885 120.741C68.4756 123.042 68.4627 125.343 68.4497 127.644C68.4497 128.626 68.4497 129.608 68.4497 130.591C68.4497 133.189 68.4497 135.787 68.4627 138.385C68.4627 138.721 68.3851 138.837 68.0361 138.824C66.9634 138.798 65.9036 138.811 64.8308 138.824C64.5335 138.824 64.456 138.734 64.456 138.437C64.456 135.606 64.456 132.749 64.4431 129.906C64.456 129.906 64.456 129.906 64.4431 129.906Z" fill="#A31F25"/>
<path fill-rule="evenodd" clip-rule="evenodd" d="M126.922 118.182C126.366 118.596 125.849 118.984 125.332 119.346C125.267 119.397 125.112 119.384 125.06 119.333C123.574 118.105 122.088 116.864 120.601 115.623C120.588 115.623 120.601 115.597 120.588 115.545C121.209 115.119 121.829 114.679 122.462 114.253C122.527 114.214 122.682 114.24 122.734 114.292C124.117 115.571 125.5 116.851 126.922 118.182Z" fill="#A31F25"/>
<path fill-rule="evenodd" clip-rule="evenodd" d="M96.4061 147.303C96.4061 148.286 96.4061 149.191 96.4061 150.095C96.4061 151.453 96.3932 152.81 96.419 154.167C96.419 154.477 96.3156 154.606 96.0313 154.658C95.4755 154.749 94.9068 154.852 94.351 154.981C94.0667 155.046 93.9892 154.942 93.9892 154.684C93.9892 154.283 93.9892 153.883 93.9892 153.469C93.9116 153.469 93.847 153.456 93.8341 153.482C93.4722 153.973 92.9681 153.973 92.4382 153.96C91.6885 153.947 90.926 153.986 90.1763 153.999C89.1682 154.012 88.2764 153.366 88.005 152.383C87.8886 151.931 87.824 151.44 87.8111 150.974C87.7852 149.591 87.824 148.208 87.7852 146.812C87.7723 146.373 87.8628 146.076 88.3022 145.933C88.3798 145.908 88.4444 145.843 88.6383 145.714C88.1859 145.714 87.8628 145.701 87.5526 145.714C87.2424 145.727 87.1261 145.623 87.2424 145.313C87.4621 144.68 87.656 144.02 87.8886 143.387C87.9403 143.271 88.1471 143.129 88.2764 143.129C90.7709 143.116 93.2654 143.116 95.7598 143.116C96.0571 143.116 96.1734 143.206 96.1088 143.529C95.9925 144.163 95.8891 144.809 95.8115 145.442C95.7728 145.74 95.5918 145.714 95.385 145.714C93.8858 145.714 92.3994 145.714 90.9001 145.714C90.7321 145.714 90.5641 145.714 90.3831 145.714C90.3573 145.856 90.3444 145.959 90.3444 146.063C90.3444 147.588 90.3444 149.113 90.3444 150.638C90.3444 151.013 90.4348 151.349 90.8743 151.362C91.8824 151.388 92.9035 151.375 93.9245 151.375C93.9245 150.832 93.9245 150.341 93.9245 149.785C93.4463 149.785 93.0069 149.772 92.5674 149.785C92.2572 149.798 92.1151 149.708 92.128 149.372C92.1409 148.803 92.1151 148.234 92.1409 147.665C92.1538 147.536 92.3219 147.329 92.4253 147.329C93.7307 147.291 95.0361 147.303 96.4061 147.303Z" fill="#A31F25"/>
<path fill-rule="evenodd" clip-rule="evenodd" d="M56.546 145.584C55.344 145.584 54.2066 145.61 53.0692 145.571C52.6427 145.559 52.5652 145.714 52.5652 146.101C52.5781 147.678 52.5781 149.268 52.5781 150.858C52.5781 151.026 52.591 151.181 52.6039 151.349C53.9481 151.349 55.2535 151.349 56.546 151.349C56.546 149.41 56.546 147.523 56.546 145.584ZM52.7332 143.413C52.8624 142.896 53.3536 143.038 53.793 143.038C55.1243 143.038 56.4426 143.038 57.7739 143.038C58.3425 143.038 58.6527 143.219 58.8078 143.762C58.95 144.279 59.0405 144.822 59.0405 145.352C59.0663 147.717 59.0534 150.095 59.0534 152.474C59.0534 153.508 58.6269 153.947 57.5671 153.947C56.0678 153.947 54.5814 153.947 53.0822 153.947C52.5393 153.947 52.0094 153.96 51.4666 153.947C50.7169 153.934 50.1612 153.417 50.1612 152.681C50.1482 149.734 50.1482 146.799 50.1612 143.852C50.1612 143.723 50.3162 143.516 50.4326 143.49C51.0271 143.335 51.6217 143.193 52.2291 143.103C52.3713 143.064 52.5393 143.284 52.7332 143.413Z" fill="#A31F25"/>
<path fill-rule="evenodd" clip-rule="evenodd" d="M103.89 145.584C102.688 145.584 101.55 145.61 100.413 145.571C99.9863 145.559 99.9087 145.714 99.9087 146.101C99.9216 147.678 99.9087 149.268 99.9216 150.858C99.9216 151.026 99.9346 151.181 99.9475 151.349C101.292 151.349 102.597 151.349 103.89 151.349C103.89 149.41 103.89 147.523 103.89 145.584ZM100.077 143.413C100.193 142.896 100.697 143.038 101.149 143.038C102.481 143.038 103.799 143.038 105.13 143.038C105.686 143.038 106.009 143.219 106.164 143.762C106.306 144.279 106.397 144.822 106.397 145.352C106.423 147.717 106.41 150.095 106.41 152.474C106.41 153.508 105.983 153.947 104.924 153.947C103.463 153.947 101.99 153.947 100.529 153.947C99.9733 153.947 99.4176 153.96 98.8618 153.947C98.0475 153.934 97.5047 153.417 97.5047 152.629C97.4918 149.695 97.4918 146.774 97.5176 143.852C97.5176 143.723 97.6727 143.516 97.789 143.49C98.3836 143.335 98.9781 143.193 99.5856 143.103C99.7149 143.064 99.8958 143.284 100.077 143.413Z" fill="#A31F25"/>
<path fill-rule="evenodd" clip-rule="evenodd" d="M63.2023 146.954C64.2621 146.864 64.8437 146.334 64.792 145.559C64.2621 145.559 63.7322 145.559 63.2023 145.559C63.2023 146.05 63.2023 146.502 63.2023 146.954ZM60.7853 149.372C60.2166 149.462 60.1262 149.191 60.152 148.777C60.1779 148.402 60.1779 148.04 60.152 147.665C60.1262 147.265 60.2166 147.032 60.6819 147.11C60.7466 147.123 60.8241 147.084 60.9275 147.071C60.9275 146.554 60.9275 146.05 60.9275 145.559C60.152 145.403 60.152 145.403 60.2425 144.628C60.2942 144.111 60.3717 143.594 60.4364 143.025C60.8887 143.025 61.3153 143.025 61.7418 143.025C63.1118 143.038 64.4948 142.986 65.8519 143.116C67.2477 143.245 67.9328 144.55 67.377 145.869C67.209 146.269 66.9375 146.644 66.7049 147.058C66.8212 147.097 66.9375 147.135 67.0539 147.161C67.8294 147.342 68.2042 147.795 68.2171 148.609C68.23 149.527 68.2171 150.457 68.2171 151.375C68.2171 153.055 67.545 153.883 65.8777 154.141C64.792 154.309 63.7451 154.128 62.6982 153.637C62.9696 152.913 63.2411 152.215 63.5254 151.478C63.9519 151.582 64.3526 151.711 64.7662 151.789C65.5029 151.931 65.658 151.84 65.7485 151.104C65.826 150.522 65.8131 149.94 65.8519 149.32C64.9601 149.32 64.1199 149.32 63.2023 149.32C63.2023 149.746 63.254 150.186 63.1894 150.625C63.0989 151.272 63.0213 151.944 62.8016 152.551C62.4656 153.508 61.5996 154.012 60.6432 153.986C60.333 153.973 60.152 153.896 60.1908 153.534C60.2166 153.172 60.1908 152.797 60.1908 152.422C60.1908 152.086 60.1003 151.737 60.5785 151.608C60.6949 151.582 60.7724 151.297 60.7853 151.129C60.7983 150.574 60.7853 150.005 60.7853 149.372Z" fill="#A31F25"/>
<path fill-rule="evenodd" clip-rule="evenodd" d="M72.1592 148.325C72.7925 148.066 73.3999 147.821 74.0074 147.575C74.9768 147.187 75.1965 146.709 74.8863 145.662C73.9686 145.662 73.0639 145.662 72.1204 145.662C72.1204 146.45 72.1204 147.2 72.1204 147.95C72.1333 148.053 72.1462 148.157 72.1592 148.325ZM70.2204 145.61C70.0007 145.61 69.7681 145.597 69.5484 145.61C69.2769 145.623 69.1348 145.559 69.1994 145.248C69.3416 144.589 69.4579 143.917 69.613 143.258C69.6388 143.167 69.8198 143.051 69.9361 143.051C72.0428 143.038 74.1496 143.038 76.2692 143.051C76.7733 143.051 77.3032 143.465 77.3162 143.982C77.3549 145.184 77.342 146.386 77.2515 147.575C77.1998 148.363 76.7087 148.919 75.9849 149.268C75.7652 149.372 75.5584 149.501 75.3128 149.63C75.804 150.574 76.308 151.453 77.4713 151.672C77.5617 151.685 77.691 151.879 77.691 151.995C77.6651 152.668 77.5876 153.34 77.5488 154.025C77.5359 154.296 77.3937 154.335 77.1481 154.322C76.0107 154.219 75.0672 153.779 74.421 152.81C73.9686 152.138 73.5421 151.44 73.0768 150.69C72.8313 150.806 72.534 150.923 72.2755 151.104C72.185 151.168 72.1333 151.362 72.1333 151.504C72.1204 152.215 72.1204 152.926 72.1333 153.624C72.1462 153.921 72.0428 154.038 71.7326 154.025C71.1898 154.012 70.6599 154.012 70.1171 154.025C69.8715 154.025 69.7422 153.934 69.7551 153.676C69.7551 153.624 69.7551 153.585 69.7551 153.534C69.8973 152.383 69.6388 151.31 69.0443 150.315C68.8633 150.005 68.928 149.811 69.2511 149.669C69.6259 149.501 69.7681 149.216 69.7422 148.79C69.7035 148.157 69.7422 147.523 69.7551 146.903C69.7681 146.45 69.6001 145.933 70.298 145.739C70.2851 145.675 70.2463 145.649 70.2204 145.61Z" fill="#A31F25"/>
<path fill-rule="evenodd" clip-rule="evenodd" d="M30.1794 145.649C30.1794 147.627 30.1794 149.578 30.1794 151.517C31.4331 151.75 32.8161 150.948 33.0358 149.798C33.2943 148.441 33.2555 147.045 33.1521 145.649C32.1569 145.649 31.2005 145.649 30.1794 145.649ZM27.1162 151.543C27.4006 151.504 27.6462 151.478 27.84 151.453C27.7883 151.22 27.7108 151 27.7108 150.78C27.6978 149.242 27.7108 147.704 27.7108 146.153C27.7108 145.985 27.7108 145.817 27.7108 145.662C26.9611 145.533 26.9611 145.533 27.0904 144.796C27.1809 144.227 27.2843 143.646 27.3747 143.051C30.1536 143.051 32.9065 143.051 35.6983 143.051C35.7112 143.154 35.7371 143.271 35.7371 143.387C35.75 145.132 35.7629 146.864 35.7629 148.609C35.7629 150.263 35.1296 151.659 33.9664 152.823C33.2814 153.508 32.4542 153.883 31.4977 153.908C30.1923 153.947 28.8869 153.947 27.5686 153.986C27.2584 153.999 27.1162 153.908 27.1292 153.572C27.1292 152.926 27.1162 152.267 27.1162 151.543Z" fill="#A31F25"/>
<path fill-rule="evenodd" clip-rule="evenodd" d="M107.405 143.064C108.155 143.064 108.827 143.077 109.512 143.064C109.796 143.064 109.861 143.245 109.822 143.452C109.732 143.943 109.964 144.124 110.417 144.227C111.606 144.525 112.601 145.132 113.312 146.153C113.35 146.205 113.402 146.257 113.531 146.386C113.531 145.391 113.557 144.512 113.519 143.62C113.506 143.18 113.622 143.012 114.087 143.038C114.578 143.077 115.07 143.051 115.561 143.051C115.858 143.038 115.974 143.18 115.974 143.465C115.974 146.347 115.987 149.229 115.961 152.112C115.948 153.185 115.108 153.908 113.893 153.999C113.609 154.025 113.312 153.999 112.937 153.999C112.937 153.223 112.937 152.461 112.95 151.698C112.95 151.634 113.079 151.543 113.157 151.517C113.48 151.414 113.57 151.155 113.57 150.871C113.557 150.044 113.389 149.255 112.743 148.699C112.032 148.092 111.283 147.523 110.546 146.954C110.378 146.825 110.145 146.761 109.861 146.644C109.848 146.89 109.822 147.071 109.822 147.239C109.822 149.307 109.809 151.375 109.835 153.43C109.835 153.857 109.744 154.051 109.279 154.012C108.801 153.973 108.323 153.986 107.845 154.012C107.496 154.025 107.379 153.896 107.392 153.559C107.405 152.28 107.392 151 107.392 149.721C107.392 147.652 107.405 145.597 107.418 143.529C107.405 143.4 107.405 143.271 107.405 143.064Z" fill="#A31F25"/>
<path fill-rule="evenodd" clip-rule="evenodd" d="M40.3383 145.636C40.3383 145.998 40.3383 146.257 40.3383 146.58C40.6097 146.58 40.8682 146.58 41.1267 146.58C42.0315 146.58 42.9491 146.605 43.8539 146.567C44.2933 146.554 44.3838 146.735 44.3062 147.123C44.2028 147.614 44.1124 148.118 44.0477 148.622C44.0089 148.906 43.8668 148.971 43.6212 148.971C42.7035 148.958 41.773 148.958 40.8553 148.945C40.6744 148.945 40.4934 148.945 40.2995 148.945C40.2995 149.501 40.2478 150.018 40.3125 150.509C40.4159 151.233 40.7648 151.504 41.5015 151.517C42.277 151.53 43.0396 151.53 43.8151 151.517C44.164 151.504 44.3321 151.582 44.2416 151.983C44.1253 152.551 44.0606 153.133 43.9443 153.702C43.9185 153.818 43.7634 153.973 43.6729 153.973C42.5614 153.96 41.4498 153.999 40.3512 153.857C39.2785 153.702 38.5935 152.887 38.2703 151.905C38.0377 151.22 38.0506 150.457 37.9731 149.733C37.9472 149.488 37.9731 149.242 37.9731 148.958C37.637 148.958 37.3397 148.984 37.0683 148.945C36.952 148.932 36.7581 148.764 36.7581 148.687C36.8357 147.989 36.9391 147.291 37.0425 146.567C37.3785 146.567 37.6887 146.567 38.0248 146.567C38.0248 146.244 38.0248 145.972 38.0248 145.61C37.7146 145.61 37.3914 145.597 37.0813 145.61C36.8357 145.623 36.7064 145.559 36.7452 145.261C36.8615 144.537 36.9649 143.814 37.0813 143.064C37.2622 143.051 37.4044 143.038 37.5595 143.038C39.7308 143.038 41.9022 143.038 44.0736 143.038C44.6552 143.038 44.6552 143.038 44.513 143.607C44.3838 144.137 44.2157 144.68 44.1123 145.21C44.0477 145.571 43.8668 145.636 43.5437 145.636C42.4838 145.623 41.4369 145.636 40.3383 145.636Z" fill="#A31F25"/>
<path fill-rule="evenodd" clip-rule="evenodd" d="M78.8671 143.038C80.7025 143.038 82.4602 143.038 84.2309 143.038C84.8255 143.038 85.4329 143.038 86.0275 143.038C86.3118 143.038 86.4152 143.129 86.3377 143.426C86.1696 144.033 86.0016 144.641 85.8724 145.261C85.8078 145.571 85.6656 145.649 85.3683 145.649C84.3085 145.636 83.2486 145.636 82.15 145.636C82.15 145.972 82.15 146.244 82.15 146.554C82.3051 146.554 82.4732 146.58 82.6412 146.58C83.6752 146.58 84.7092 146.593 85.7302 146.58C86.0275 146.58 86.1697 146.67 86.105 146.98C86.0016 147.549 85.9241 148.131 85.7948 148.699C85.769 148.803 85.5363 148.945 85.4071 148.945C84.4377 148.958 83.4684 148.958 82.499 148.932C82.15 148.919 81.982 149.01 82.0337 149.397C82.0725 149.759 82.0337 150.134 82.0983 150.496C82.2147 151.22 82.5507 151.504 83.2874 151.517C84.0758 151.53 84.8513 151.53 85.6397 151.517C86.0016 151.504 86.0921 151.634 86.0275 151.983C85.9111 152.551 85.8465 153.133 85.7302 153.715C85.7044 153.831 85.5493 153.999 85.4588 153.999C84.3343 153.973 83.2099 154.025 82.0983 153.87C81.0644 153.727 80.444 152.9 80.0562 151.983C79.8623 151.517 79.8106 150.974 79.7589 150.457C79.7072 149.992 79.746 149.514 79.746 148.984C79.3971 148.984 79.0869 149.01 78.7896 148.971C78.6862 148.958 78.5182 148.764 78.5311 148.674C78.5957 147.989 78.712 147.303 78.8154 146.593C79.1515 146.593 79.4617 146.593 79.7977 146.593C79.7977 146.282 79.7977 145.998 79.7977 145.636C79.4875 145.636 79.1773 145.623 78.8671 145.636C78.5699 145.649 78.4794 145.546 78.5311 145.248C78.6603 144.512 78.7508 143.801 78.8671 143.038Z" fill="#A31F25"/>
<path fill-rule="evenodd" clip-rule="evenodd" d="M103.295 139.147C103.644 139.432 103.954 139.677 104.264 139.923C104.471 140.078 104.497 140.233 104.29 140.414C103.657 140.931 103.037 141.448 102.403 141.978C102.209 142.146 102.054 142.133 101.899 141.926C101.731 141.694 101.537 141.474 101.343 141.241C102.003 140.518 102.636 139.845 103.295 139.147Z" fill="#A31F25"/>
</svg>
