<svg width="31" height="15" viewBox="0 0 31 15" fill="none" xmlns="http://www.w3.org/2000/svg">
<path d="M15.5317 0C7.00822 0 0 8.65541 0 8.65541C0 8.65541 6.90258 15 15.5317 15C24.1608 15 31 8.65541 31 8.65541C31 8.65541 24.0552 0 15.5317 0ZM15.5317 13.7869C11.8228 13.7869 8.8169 10.9728 8.8169 7.50055C8.8169 4.02827 11.8228 1.2142 15.5317 1.2142C19.2406 1.2142 22.2465 4.02827 22.2465 7.50055C22.2453 10.9728 19.2394 13.7869 15.5317 13.7869Z" fill="#575656"/>
<path d="M17.8885 7.31155C16.6549 7.31155 15.6549 6.37536 15.6549 5.2205C15.6549 4.48648 16.0599 3.84148 16.6714 3.46788C16.3075 3.37777 15.9261 3.32943 15.5317 3.32943C13.0763 3.32943 11.0869 5.19303 11.0869 7.49066C11.0869 9.78939 13.0775 11.6519 15.5317 11.6519C17.9871 11.6519 19.9765 9.78829 19.9765 7.49066C19.9765 7.0797 19.912 6.68303 19.7934 6.30833C19.4002 6.90939 18.696 7.31155 17.8885 7.31155Z" fill="#575656"/>
</svg>
