<svg width="31" height="23" viewBox="0 0 31 23" fill="none" xmlns="http://www.w3.org/2000/svg">
<path d="M15.5317 3.03373C7.00704 3.03373 0 12.326 0 12.326C0 12.326 6.90258 19.1375 15.5317 19.1375C24.1608 19.1375 31 12.326 31 12.326C31 12.326 24.0552 3.03373 15.5317 3.03373ZM15.5317 17.834C11.8228 17.834 8.8169 14.8128 8.8169 11.085C8.8169 7.35724 11.8228 4.33609 15.5317 4.33609C19.2406 4.33609 22.2465 7.35724 22.2465 11.085C22.2453 14.8128 19.2394 17.834 15.5317 17.834Z" fill="#575656"/>
<path d="M17.8885 10.8833C16.6549 10.8833 15.6549 9.87821 15.6549 8.63837C15.6549 7.85035 16.0599 7.15788 16.6714 6.75679C16.3075 6.66006 15.9261 6.60815 15.5317 6.60815C13.0763 6.60815 11.0869 8.60888 11.0869 11.0756C11.0869 13.5435 13.0775 15.543 15.5317 15.543C17.9871 15.543 19.9765 13.5423 19.9765 11.0756C19.9765 10.6344 19.912 10.2085 19.7934 9.80625C19.4002 10.4515 18.696 10.8833 17.8885 10.8833Z" fill="#575656"/>
<path d="M6.12627 0L4.47322 1.67514L24.8882 22.0263L26.5413 20.3512L6.12627 0Z" fill="#575656"/>
</svg>
