<svg width="94" height="101" viewBox="0 0 94 101" fill="none" xmlns="http://www.w3.org/2000/svg">
<path fill-rule="evenodd" clip-rule="evenodd" d="M45.3942 32.2437C45.3942 32.5385 45.3858 32.6817 45.3942 32.8333C45.4622 34.0209 45.0204 35.0147 44.0944 35.7222C43.3892 36.2612 42.5736 36.6655 41.8089 37.1288C41.5965 37.2551 41.1972 37.2804 41.3926 37.6762C41.8174 38.5185 41.707 38.6953 42.3017 38.4932C43.0324 38.2489 43.8055 37.9626 44.4002 37.4909C45.6661 36.5139 46.4563 35.2253 46.2184 33.5408C46.1504 33.0691 46.0315 32.5638 45.3942 32.2437ZM41.8514 42.2664C41.8854 42.317 41.9279 42.3675 41.9704 42.4096C42.4376 42.2328 42.9049 42.0727 43.3637 41.8706C45.4707 40.9441 47.4758 39.8576 48.8606 37.9542C49.8717 36.5644 50.0841 35.0484 49.4214 33.4397C49.3619 33.305 49.2175 33.2039 49.107 33.086C49.0645 33.2292 48.9881 33.3723 48.9796 33.5155C48.9371 33.9366 48.9796 34.3662 48.8861 34.7705C48.4443 36.6066 47.068 37.5667 45.4367 38.2321C44.4937 38.6195 43.5081 38.9143 42.5396 39.2259C42.1743 39.3439 42.0638 39.5123 42.1063 39.925C42.1573 40.464 42.0723 41.0283 42.0213 41.5758C41.9958 41.8116 41.9109 42.039 41.8514 42.2664ZM43.1853 43.1845C43.3807 43.3529 43.4911 43.4456 43.5931 43.5382C43.8905 43.7909 44.2388 44.0099 44.4597 44.3131C44.7231 44.6921 45.0204 44.7258 45.3773 44.5658C46.3373 44.1362 47.3483 43.7825 48.2404 43.235C50.1605 42.0643 51.7238 40.5062 52.7093 38.4595C53.3465 37.1287 53.5334 35.7475 53.0577 34.3157C52.9897 34.1051 52.8198 33.9198 52.7008 33.7261C52.6499 33.7261 52.5904 33.7261 52.5394 33.7261C51.7238 39.0828 48.1385 41.7443 43.1853 43.1845ZM42.65 7.44802C40.8404 7.44802 39.4385 7.73439 38.1047 8.29869C37.1191 8.71139 36.2355 9.26727 35.5813 10.1348C35.1226 10.7412 35.0801 11.5413 35.5049 12.013C35.9552 12.5099 37.0257 12.6952 37.5439 12.333C38.0622 11.9709 38.555 11.5834 39.0477 11.1876C40.0757 10.3622 41.2312 9.81473 42.5226 9.53679C43.4487 9.34308 44.2303 9.46099 44.6721 10.4212C44.7995 10.7075 44.9864 10.6738 45.1988 10.4801C45.5642 10.1432 45.9125 9.79789 46.3118 9.5031C46.8641 9.08198 46.8726 8.96407 46.2948 8.55137C45.0714 7.73439 43.712 7.47329 42.65 7.44802ZM36.0061 54.8159C35.5644 54.8159 35.199 54.7991 34.8422 54.8243C34.6978 54.8327 34.5533 54.9254 34.4174 54.9759C34.5193 55.0686 34.6128 55.1949 34.7317 55.2623C35.9042 55.8771 37.1446 56.2983 38.4445 56.5425C40.6705 56.9552 42.82 56.812 44.7316 55.4729C46.0654 54.538 46.949 53.3167 46.7451 51.5733C46.6517 50.7984 46.2014 50.2762 45.5472 49.9056C45.3008 49.7624 45.0884 49.8045 44.9949 50.1162C44.5192 51.7586 43.3297 52.7608 41.8769 53.502C40.0078 54.4369 37.9772 54.7148 36.0061 54.8159ZM56.9064 37.4656C56.8554 37.1709 56.7789 36.615 56.6685 36.0675C56.6515 35.9833 56.5155 35.9243 56.4391 35.857C56.3796 35.9328 56.2946 36.0001 56.2692 36.0759C56.1927 36.3539 56.1672 36.6403 56.0822 36.9182C55.5045 38.7627 54.4 40.2451 52.9557 41.5253C50.7807 43.454 48.2999 44.709 45.3688 44.9869C45.0119 45.0206 44.9864 45.1722 45.0714 45.4586C45.1819 45.8291 45.3263 46.1997 45.3518 46.5787C45.4112 47.2947 45.3858 47.2947 46.1249 47.261C46.2269 47.2525 46.3288 47.2357 46.4308 47.2273C49.4893 46.8651 52.0296 45.4586 54.1961 43.3529C55.7934 41.8116 56.8384 40.0008 56.9064 37.4656ZM44.0944 57.0563C44.4597 57.1068 44.6721 57.1658 44.8845 57.1658C46.2014 57.1489 47.5268 57.2079 48.8266 57.0731C52.293 56.711 55.4196 55.5908 57.739 52.8366C58.7245 51.6659 59.3702 50.3267 59.4042 48.7686C59.4297 47.6568 59.1663 46.6124 58.0703 46.0481C56.8044 45.3912 55.1307 45.8544 54.451 47.1009C54.0772 47.7832 53.8563 48.5664 53.6609 49.3329C53.2701 50.9247 52.7008 52.4155 51.4264 53.5188C51.0611 53.8389 50.6193 54.0747 50.2115 54.3527C50.1775 54.3021 50.135 54.2516 50.101 54.2011C50.2285 54.0747 50.3729 53.9568 50.4664 53.8136C50.8572 53.2072 51.316 52.6176 51.5963 51.9607C51.9702 51.0763 51.4009 50.2257 50.5683 50.2257C50.0076 50.2257 49.6762 50.4783 49.4553 51.1016C48.9966 52.4071 48.2829 53.561 47.2634 54.4874C46.4138 55.2623 45.4367 55.9024 44.5277 56.6015C44.4087 56.711 44.2983 56.8373 44.0944 57.0563ZM26.5076 48.0611C26.4566 48.1116 26.4141 48.1706 26.3632 48.2211C26.6945 48.6254 27.0089 49.0549 27.3742 49.434C28.793 50.9332 30.3903 52.2302 32.1065 53.3841C32.3698 53.561 32.6757 53.7715 32.9646 53.7799C35.216 53.8557 37.442 53.6704 39.6 52.9882C41.1887 52.4829 42.6161 51.7249 43.6016 50.3099C45.0119 48.2885 44.4342 45.1385 42.4036 43.7909C42.1403 43.614 41.9534 43.5972 41.724 43.9004C40.6025 45.4333 39.1582 46.6293 37.4505 47.4631C34.4089 48.9454 31.2144 49.0802 27.9434 48.3896C27.4591 48.2969 26.9834 48.1706 26.5076 48.0611ZM29.3623 39.2933C26.5501 39.3186 24.46 40.2282 22.9563 42.3001C22.8458 42.4517 22.8118 42.7718 22.8883 42.9318C23.3131 43.7825 23.7549 44.6247 24.2561 45.4249C24.613 45.9892 24.8933 46.6209 25.709 46.8146C27.6885 47.2947 29.6596 47.5136 31.6987 47.3199C34.2135 47.0841 36.5839 46.444 38.6314 44.9279C40.1267 43.8162 41.0613 42.3844 40.9763 40.4304C40.9253 39.2344 40.4581 38.1984 39.8633 37.1961C39.566 36.6824 39.43 36.6824 39.0732 37.1624C37.6034 39.1417 35.6068 39.925 33.1685 39.6808C31.8091 39.5628 30.4497 39.4112 29.3623 39.2933ZM34.069 20.2754C34.086 20.2165 34.0945 20.1491 34.12 20.0901C34.8677 18.1277 36.0316 16.4264 37.476 14.9103C38.8438 13.4701 40.4071 12.2741 42.1148 11.255C42.2592 11.1707 42.3612 11.0107 42.4886 10.8928C42.4546 10.8423 42.4206 10.8002 42.3867 10.7496C42.1658 10.8086 41.9194 10.8338 41.724 10.9349C40.8234 11.4234 39.9058 11.8782 39.0562 12.4425C35.9212 14.5229 33.211 17.0665 30.8066 19.9301C30.6706 20.0901 30.4158 20.2417 30.2204 20.2333C29.5916 20.1996 28.9629 20.0986 28.3427 20.0227C27.9349 19.9722 27.5696 20.0227 27.2892 20.3765C27.0089 20.7387 26.686 21.0671 26.3801 21.4125C24.0437 24.0234 22.2851 26.946 21.41 30.3571C20.4414 34.1051 20.7728 37.7773 22.0982 41.3905C22.1406 41.5 22.2171 41.6011 22.2851 41.7274C22.7439 41.2052 23.1347 40.7251 23.585 40.2872C23.8908 39.984 24.0013 39.6892 23.9248 39.2512C23.0922 34.1388 23.9673 29.3717 26.8814 25.0341C27.2977 24.4108 27.782 23.8381 28.2408 23.2401C28.2833 23.2738 28.3257 23.2991 28.3682 23.3328C28.1303 23.7539 27.8585 24.1666 27.6461 24.5961C25.59 28.9084 24.9953 33.4229 25.726 38.1226C25.7854 38.5353 25.9384 38.5943 26.2952 38.4679C27.748 37.9541 29.2433 37.9878 30.7556 38.1058C31.996 38.2068 33.2449 38.3079 34.4939 38.3163C36.7453 38.3247 38.0197 37.2382 38.4785 35.0568C38.6229 34.3493 38.7843 33.6334 39.0052 32.9428C39.2771 32.1005 39.6339 31.292 39.9058 30.4582C40.3646 29.06 40.6535 27.6198 40.3986 26.1543C40.0248 24.0234 38.5634 22.8106 36.6518 22.0694C36.1846 21.8925 36.1761 21.6735 36.2865 21.3198C37.0172 19.0373 37.9347 16.8727 39.6934 15.1461C39.8039 15.0367 39.8633 14.8682 40.0163 14.5903C39.6934 14.6745 39.5065 14.6829 39.3791 14.7671C37.1531 16.1737 35.6238 18.2288 34.069 20.2754ZM61.2138 48.9033C61.4687 48.8107 61.6726 48.7686 61.8425 48.6759C63.4058 47.8505 64.7652 46.7303 66.0311 45.5175C67.5179 44.1025 68.8008 42.5275 69.9138 40.8094C71.9868 37.5836 73.1932 34.0798 73.3717 30.256C73.4736 27.9904 73.1932 25.75 72.5475 23.577C71.2137 19.1215 68.7328 15.3651 65.2495 12.2572C62.7856 10.059 59.9734 8.55137 56.7789 7.70912C55.1137 7.27115 53.423 7.08586 51.7068 7.44802C51.5624 7.47329 51.4349 7.58278 51.299 7.65859C51.4604 7.71754 51.6133 7.7765 51.7748 7.82704C52.242 7.97022 52.7093 8.10498 53.1766 8.24816C53.1596 8.30711 53.1426 8.36607 53.1341 8.42503C53.0747 8.43345 53.0152 8.44187 52.9557 8.44187C51.5879 8.33238 50.3134 8.6777 49.0645 9.18305C48.9456 9.23359 48.8606 9.37677 48.7672 9.47784C48.8691 9.55364 48.9626 9.64629 49.073 9.70524C49.3534 9.84 49.6593 9.9158 49.9056 10.0843C50.2625 10.3285 50.5768 10.6317 50.9167 10.9097C50.8827 10.9602 50.8487 11.0107 50.8147 11.0528C50.6448 11.036 50.4834 11.0107 50.3134 10.9939C49.4978 10.9349 48.6737 10.876 47.8581 10.8339C47.7137 10.8254 47.5607 10.9265 47.4078 10.9855C47.5013 11.1118 47.5777 11.2634 47.6967 11.3645C48.4273 11.9877 48.9031 12.7794 49.2854 13.6554C48.4868 13.2848 47.7392 12.8552 46.983 12.4425C46.8726 12.3836 46.7451 12.3583 46.6177 12.3246C46.5837 12.4425 46.5072 12.5773 46.5242 12.6868C46.5837 13.1584 46.6517 13.6301 46.7621 14.0849C46.9405 14.7671 47.1614 15.4409 47.4078 16.2495C46.4223 15.1377 46.0145 13.8828 45.4282 12.6868C44.5362 14.4639 45.2158 16.1568 45.6831 17.8666C45.5132 17.7066 45.3603 17.5465 45.2923 17.3528C44.9779 16.4095 44.6976 15.4578 44.3917 14.5145C44.3577 14.4134 44.2813 14.3292 44.2303 14.2365C44.1453 14.3039 44.0264 14.3629 43.9839 14.4471C43.865 14.7419 43.7375 15.0451 43.6781 15.3567C43.5421 16.1147 43.4487 16.8728 43.3382 17.6392C43.2957 17.6476 43.2448 17.6476 43.2023 17.656C43.0833 17.0159 42.9644 16.3674 42.8454 15.7273C42.786 15.7189 42.7265 15.7105 42.667 15.7105C42.5991 15.9547 42.4886 16.1905 42.4716 16.4348C42.4206 17.2096 42.3697 17.9929 42.3867 18.7678C42.4461 22.0104 43.9499 24.5372 46.4478 26.5249C48.6312 28.2599 51.1631 29.3632 53.7288 30.4161C55.2411 31.0393 56.7619 31.6542 58.2402 32.3532C59.2258 32.8165 60.2028 33.3555 60.8145 34.3072C62.3608 36.7413 62.0719 40.4388 60.1603 42.5865C59.727 43.075 59.1748 43.4624 58.6905 43.9088C58.5801 44.0183 58.5121 44.1783 58.4526 44.3215C58.4441 44.3384 58.6226 44.4647 58.7245 44.4816C60.3133 44.7258 61.1969 46.1829 61.2988 47.4463C61.3158 47.8926 61.2478 48.339 61.2138 48.9033ZM80.3214 33.0944C80.4658 51.0679 65.3089 66.6158 45.9975 66.0683C28.4022 65.5714 13.4577 51.1858 13.6786 32.5975C13.8825 14.6324 28.7081 -0.22483 47.4673 0.00257633C65.9376 0.238405 80.4658 15.2725 80.3214 33.0944Z" fill="#D0985D"/>
<path fill-rule="evenodd" clip-rule="evenodd" d="M75.929 84.4966C75.929 83.4438 75.9205 82.391 75.929 81.3466C75.929 81.1445 75.878 81.0603 75.6571 81.0603C74.1618 81.0687 72.6665 81.0687 71.1627 81.0603C70.9588 81.0603 70.8993 81.1276 70.8993 81.3298C70.9078 83.427 70.9078 85.5326 70.8993 87.6298C70.8993 87.8488 70.9758 87.8993 71.1797 87.8993C72.6665 87.8909 74.1533 87.8909 75.6486 87.8993C75.8695 87.8993 75.929 87.8319 75.929 87.6214C75.9205 86.577 75.929 85.5326 75.929 84.4966ZM70.9248 78.5504C70.9248 78.8789 70.9248 79.2073 70.9248 79.5358C70.9418 79.5442 70.9673 79.5526 70.9843 79.5526C71.0183 79.5105 71.0607 79.4768 71.0862 79.4347C71.2392 79.1821 71.3751 78.921 71.545 78.6767C71.596 78.6009 71.7149 78.5251 71.7999 78.5251C73.6605 78.5167 75.5296 78.5167 77.3903 78.5167C77.7046 78.5167 77.9085 78.7188 78.0615 78.9631C78.3588 79.4432 78.4608 79.9906 78.4608 80.5381C78.4778 82.3321 78.4693 84.126 78.4778 85.9116C78.4778 86.9981 78.4778 88.093 78.4778 89.1795C78.4778 89.7859 78.1974 90.1649 77.5942 90.3166C77.3563 90.3755 77.1014 90.4176 76.855 90.4176C74.5186 90.426 72.1737 90.426 69.8373 90.426C68.9367 90.426 68.342 89.8365 68.342 88.9353C68.342 85.7431 68.342 82.551 68.3335 79.3589C68.3335 79.1231 68.376 79.0136 68.6394 78.9715C69.353 78.8536 70.0582 78.6851 70.7719 78.542C70.8144 78.542 70.8568 78.5504 70.9248 78.5504Z" fill="#D0985D"/>
<path fill-rule="evenodd" clip-rule="evenodd" d="M40.7724 78.6009C40.7724 78.7188 40.7724 78.8115 40.7724 78.8957C40.7724 80.0748 40.7724 81.2624 40.7724 82.4416C40.7724 82.6521 40.8149 82.77 41.0528 82.7363C41.2057 82.7195 41.2567 82.8037 41.2652 82.9385C41.3162 83.6038 41.3671 84.2608 41.4266 84.9262C41.4436 85.0778 41.3841 85.1283 41.2312 85.1283C40.7639 85.1452 40.7639 85.1452 40.7639 85.6252C40.7639 86.6191 40.7469 87.6214 40.7724 88.6152C40.7894 89.4827 40.2711 90.1734 39.4385 90.3166C38.7673 90.426 38.0792 90.4934 37.3995 90.5776C37.2381 90.5945 37.1786 90.5355 37.1786 90.3671C37.1871 89.7438 37.1786 89.1121 37.1701 88.4889C37.1701 88.3373 37.2211 88.2699 37.374 88.2446C37.9178 88.1604 38.1811 87.8403 38.1811 87.2929C38.1811 86.6528 38.1726 86.0127 38.1811 85.3641C38.1811 85.1704 38.1132 85.1115 37.9262 85.1115C37.0342 85.1199 36.1506 85.103 35.2585 85.1199C34.9951 85.1283 34.8422 85.0441 34.7232 84.8167C34.6298 84.6314 34.5023 84.4629 34.3919 84.2861C34.3494 84.2271 34.3069 84.1766 34.256 84.1176C34.239 84.126 34.2135 84.126 34.1965 84.1345C34.188 84.2103 34.1795 84.2861 34.1795 84.3703C34.1795 86.2232 34.1795 88.0762 34.1795 89.9375C34.1795 90.2997 34.2135 90.2829 33.8397 90.3418C33.1345 90.4513 32.4293 90.5776 31.7242 90.6955C31.6817 90.704 31.6307 90.704 31.5542 90.704C31.5542 90.6029 31.5542 90.5187 31.5542 90.426C31.5542 86.8718 31.5542 83.3175 31.5542 79.7632C31.5542 79.4347 31.5457 79.0978 31.5372 78.7694C31.5287 78.6178 31.5882 78.5672 31.7411 78.5672C32.4888 78.5756 33.2364 78.5756 33.9841 78.5672C34.1795 78.5672 34.188 78.6599 34.188 78.8115C34.1795 79.9822 34.1795 81.1445 34.1795 82.3152C34.1795 82.669 34.1795 82.669 34.5448 82.669C35.6578 82.6521 36.7708 82.6353 37.8923 82.6268C38.0962 82.6268 38.1386 82.5426 38.1386 82.3657C38.1301 81.2034 38.1386 80.0496 38.1302 78.8873C38.1302 78.6683 38.1811 78.5925 38.4105 78.5925C39.1837 78.6093 39.9568 78.6009 40.7724 78.6009Z" fill="#D0985D"/>
<path fill-rule="evenodd" clip-rule="evenodd" d="M13.2113 78.424C13.1603 78.9462 13.1179 79.4179 13.0754 79.8895C12.9564 81.1866 12.8545 82.4921 12.9649 83.7976C13.0499 84.8756 13.3982 85.8779 14.0184 86.7791C14.3328 87.2423 14.7661 87.5119 15.3098 87.6129C16.1424 87.7645 16.9751 87.6719 17.7992 87.5371C17.8586 87.5287 17.9436 87.3855 17.9436 87.3013C17.9521 86.9307 17.9351 86.5601 17.9351 86.1895C17.9351 83.7302 17.9351 81.2708 17.9351 78.8115C17.9351 78.5083 17.9351 78.5083 18.258 78.5251C18.9291 78.5672 19.5918 78.6093 20.263 78.643C20.4499 78.6515 20.5009 78.7104 20.5009 78.8957C20.4924 82.5679 20.4924 86.2401 20.5009 89.9123C20.5009 90.0976 20.4414 90.1734 20.2545 90.1902C19.5748 90.2492 18.8867 90.3165 18.207 90.3923C17.9946 90.4176 17.9266 90.3587 17.9436 90.1481C17.9606 89.9291 17.9521 89.7017 17.9436 89.4743C17.9436 89.4069 17.9181 89.3395 17.8501 89.2722C17.8247 89.3143 17.7992 89.3564 17.7907 89.4069C17.6972 89.7185 17.6038 90.0302 17.5273 90.3418C17.4848 90.5103 17.3914 90.6029 17.2299 90.6113C16.8136 90.6366 16.3888 90.6956 15.981 90.6619C15.3438 90.6029 14.6981 90.5103 14.0694 90.3671C12.8885 90.0891 12.1578 89.2637 11.6141 88.2446C10.9089 86.9223 10.5945 85.4989 10.4671 84.025C10.3312 82.4079 10.3397 80.7823 10.5096 79.1652C10.5351 78.921 10.62 78.8452 10.8579 78.8115C11.5036 78.7188 12.1493 78.6009 12.795 78.4914C12.9055 78.4662 13.0329 78.4493 13.2113 78.424Z" fill="#D0985D"/>
<path fill-rule="evenodd" clip-rule="evenodd" d="M85.9713 81.8772C85.6909 81.8772 85.402 81.8772 85.1217 81.8772C84.6374 81.8772 84.6289 81.8604 84.7308 81.3972C84.8668 80.7571 85.0027 80.1085 85.1301 79.4684C85.1556 79.3252 85.2151 79.2747 85.3596 79.2747C87.5345 79.2747 89.7095 79.2494 91.8845 79.2915C92.5982 79.3084 93.1589 79.7295 93.4053 80.4202C93.5667 80.8918 93.6347 81.3972 93.7451 81.8772C93.7791 82.0373 93.7026 82.0962 93.5497 82.1215C92.853 82.2478 92.1564 82.3826 91.4597 82.5089C91.3153 82.5342 91.2133 82.4921 91.1878 82.3405C91.1453 82.1131 90.9839 81.9952 90.78 81.9446C90.5931 81.9025 90.3977 81.8604 90.2023 81.8604C89.5991 81.852 89.0043 81.8688 88.4011 81.8688C88.3332 81.8688 88.2737 81.8857 88.1462 81.9025C88.3671 82.1047 88.5371 82.2647 88.7155 82.4247C90.2872 83.8481 91.8505 85.2715 93.4308 86.6949C93.7876 87.0149 93.932 87.4276 93.983 87.8825C93.9915 87.9667 93.9915 88.0425 94 88.1267V88.1941C93.9915 88.6152 93.898 89.0363 93.7791 89.4322C93.5752 90.0723 93.0654 90.426 92.4537 90.5945C92.0119 90.7124 91.5531 90.7966 91.1029 90.805C89.735 90.8219 88.3586 90.8135 86.9908 90.7882C86.43 90.7798 86.0137 90.4429 85.6739 90.0386C85.2236 89.4911 84.9857 88.8342 84.8073 88.1604C84.7903 88.1099 84.8668 87.9835 84.9263 87.9667C85.6654 87.7224 86.4046 87.495 87.1522 87.2592C87.3476 87.2002 87.4411 87.2676 87.4751 87.4613C87.543 87.8825 87.7809 88.1436 88.2397 88.1267C88.9619 88.1014 89.6925 88.1351 90.4147 88.1351C90.4996 88.1351 90.5931 88.0762 90.6865 88.0425C90.6526 87.9583 90.6271 87.8656 90.5676 87.8067C90.0663 87.335 89.5481 86.8718 89.0383 86.4085C87.7639 85.2462 86.4895 84.0924 85.2151 82.9301C85.0197 82.7532 85.0282 82.6942 85.2406 82.5342C85.504 82.3405 85.7589 82.1552 86.0222 81.9615C85.9883 81.9362 85.9798 81.9109 85.9713 81.8772Z" fill="#D0985D"/>
<path fill-rule="evenodd" clip-rule="evenodd" d="M2.48084 86.9139C2.54031 87.1076 2.58279 87.2676 2.64226 87.4276C2.76121 87.714 2.9821 87.874 3.28796 87.8825C4.0696 87.8909 4.85123 87.8909 5.62437 87.8825C5.93022 87.8825 6.04067 87.6719 5.84526 87.4361C5.58189 87.1244 5.28453 86.8381 4.98717 86.5517C3.98464 85.5747 2.9821 84.6061 1.97957 83.6375C1.5038 83.1827 1.02802 82.7195 0.552242 82.2647C0.492769 82.2057 0.433297 82.1468 0.365329 82.0625C0.764642 81.7425 1.15546 81.4309 1.53778 81.1192C1.52928 81.094 1.51229 81.0687 1.5038 81.0434C1.01103 81.0434 0.518257 81.0434 0 81.0434C0.12744 80.3696 0.246385 79.7464 0.373825 79.1147C0.501265 78.5167 0.501265 78.5167 1.11298 78.5167C3.01609 78.5167 4.9192 78.5167 6.82231 78.5167C7.51048 78.5167 8.18167 78.9462 8.39407 79.5863C8.5555 80.0664 8.63196 80.5718 8.74241 81.0687C8.77639 81.2203 8.72542 81.3045 8.547 81.3298C7.86732 81.4561 7.18764 81.5909 6.49096 81.7341C6.32954 81.1024 5.82827 81.035 5.30152 81.0266C4.62184 81.0182 3.94215 81.0266 3.26247 81.035C3.21999 81.035 3.17751 81.0434 3.07556 81.0603C3.16052 81.1613 3.2115 81.2371 3.27946 81.3045C4.94469 82.9216 6.59291 84.5556 8.28362 86.1474C8.77639 86.6191 8.99729 87.1497 8.95481 87.7982C8.92932 88.1688 8.89534 88.5394 8.82737 88.9016C8.66594 89.7017 8.09671 90.1228 7.35756 90.325C6.99223 90.426 6.60991 90.4681 6.22758 90.4766C4.98717 90.4934 3.74675 90.4597 2.50633 90.4934C1.75018 90.5187 1.24892 90.1481 0.858098 89.5838C0.501265 89.07 0.297361 88.4804 0.144432 87.8825C0.12744 87.8319 0.16992 87.714 0.212401 87.7056C0.960051 87.4276 1.7162 87.175 2.48084 86.9139Z" fill="#D0985D"/>
<path fill-rule="evenodd" clip-rule="evenodd" d="M24.0352 86.9139C24.0522 87.0065 24.0607 87.0486 24.0692 87.0907C24.1797 87.6635 24.4431 87.8825 25.0293 87.8825C25.709 87.8825 26.3886 87.8909 27.0683 87.874C27.2043 87.874 27.3402 87.773 27.4761 87.714C27.4252 87.5792 27.3997 87.4192 27.3062 87.3266C26.805 86.8128 26.2782 86.3074 25.7599 85.8105C24.7829 84.8588 23.7974 83.9071 22.8203 82.9553C22.523 82.6605 22.2341 82.3573 21.9282 82.0373C22.3021 81.7425 22.6844 81.4309 23.0752 81.1276C23.0667 81.1024 23.0497 81.0687 23.0412 81.0434C22.5484 81.0434 22.0557 81.0434 21.5459 81.0434C21.6564 80.4623 21.7583 79.9232 21.8603 79.3842C21.9027 79.1736 21.9452 78.9631 21.9792 78.7441C22.0047 78.5841 22.0727 78.5083 22.2596 78.5083C24.3326 78.5167 26.4056 78.5083 28.4872 78.5167C29.0734 78.5167 29.7276 78.9715 29.94 79.5948C30.1014 80.0748 30.1779 80.5802 30.2883 81.0771C30.3223 81.2287 30.2713 81.3045 30.0929 81.3382C29.4557 81.4477 28.827 81.5825 28.1898 81.7004C28.1303 81.7088 28.0114 81.6583 27.9944 81.6161C27.8755 81.195 27.5271 81.0603 27.1703 81.0518C26.3547 81.0182 25.5306 81.0434 24.7149 81.0434C24.7064 81.0434 24.6894 81.0603 24.6555 81.094C24.7149 81.1613 24.7744 81.2456 24.8339 81.3129C26.5586 82.989 28.2833 84.6651 30.0165 86.3411C30.3053 86.6191 30.4412 86.956 30.4837 87.3434C30.5517 87.9414 30.4922 88.5394 30.3138 89.1121C30.1014 89.7775 29.5662 90.1481 28.9035 90.3166C28.5381 90.4092 28.1558 90.4597 27.7735 90.4681C26.4991 90.485 25.2332 90.4597 23.9588 90.485C23.4065 90.4934 22.9902 90.266 22.6419 89.8954C22.0812 89.289 21.8433 88.531 21.6394 87.7224C22.438 87.4529 23.2196 87.1834 24.0352 86.9139Z" fill="#D0985D"/>
<path fill-rule="evenodd" clip-rule="evenodd" d="M46.023 90.4345C46.1504 89.5417 46.2778 88.7247 46.3883 87.9077C46.4138 87.7477 46.5072 87.7393 46.6347 87.7393C46.9745 87.7477 46.9745 87.7393 46.9745 87.4108C46.9745 86.8633 47.034 86.9307 46.4902 86.9307C46.4223 86.9307 46.3458 86.9476 46.2778 86.9223C46.2184 86.897 46.1334 86.8212 46.1334 86.7791C46.1844 86.1727 46.2523 85.5663 46.3203 84.9599C46.3373 84.8335 46.3968 84.7998 46.5242 84.7998C47 84.7914 47 84.783 47 84.3198C47.0085 82.4584 47.017 80.597 47.017 78.7357C47.017 78.5672 47.0765 78.5251 47.2294 78.5251C47.9516 78.5335 48.6822 78.5335 49.4044 78.5251C49.6083 78.5251 49.6508 78.6009 49.6508 78.7862C49.6338 80.6981 49.6253 82.6016 49.6168 84.5135C49.6168 84.8167 49.6168 84.8167 49.9226 84.8167C50.2455 84.8167 50.5598 84.8167 50.8827 84.8167C51.0441 84.8167 51.1291 84.8756 51.1036 85.0525C51.0271 85.6084 50.9591 86.1727 50.8997 86.7286C50.8827 86.8549 50.8317 86.897 50.7043 86.9054C50.4409 86.9054 50.1775 86.9223 49.9141 86.9223C49.7527 86.9223 49.6932 86.9813 49.6932 87.1413C49.7017 87.8488 49.6083 87.7309 50.2625 87.7309C51.5539 87.7393 52.8538 87.7309 54.1452 87.7309C54.2301 87.7309 54.3151 87.7309 54.4425 87.7309C54.417 87.9583 54.4 88.1604 54.3745 88.3625C54.3151 88.9774 54.2471 89.5922 54.1961 90.207C54.1791 90.3839 54.1197 90.4513 53.9243 90.4513C51.7408 90.4429 49.5573 90.4429 47.3738 90.4429C46.932 90.4345 46.4987 90.4345 46.023 90.4345Z" fill="#D0985D"/>
<path fill-rule="evenodd" clip-rule="evenodd" d="M62.7091 81.1445C61.5792 81.1445 60.4492 81.1445 59.2853 81.1445C59.3277 80.7149 59.3617 80.3359 59.3957 79.9569C59.4297 79.5863 59.4722 79.2158 59.5146 78.8536C59.5486 78.542 59.5401 78.5335 59.8545 78.5335C61.9445 78.5335 64.0345 78.5335 66.1245 78.5335C66.5409 78.5335 66.9487 78.5335 67.365 78.5335C67.5179 78.5335 67.5774 78.5672 67.5519 78.7357C67.4499 79.4684 67.365 80.2096 67.28 80.9424C67.263 81.1108 67.1951 81.1613 67.0336 81.1613C66.2435 81.1529 65.4619 81.1613 64.6717 81.1529C64.4423 81.1529 64.3829 81.2287 64.3829 81.4477C64.3914 83.208 64.3829 84.9683 64.3829 86.737C64.3829 86.9981 64.3829 87.2592 64.4084 87.5203C64.4508 87.9498 64.6972 88.253 65.105 88.3962C65.2664 88.4552 65.2749 88.5394 65.241 88.6826C65.0625 89.3648 64.8756 90.0386 64.7057 90.7208C64.6632 90.8893 64.5868 90.923 64.4338 90.923C63.1339 90.8893 61.97 89.8617 61.8086 88.5815C61.7746 88.3373 61.7661 88.093 61.7576 87.8403C61.7576 85.8779 61.7576 83.9155 61.7491 81.9531C61.7491 81.7678 61.8171 81.6751 61.9785 81.5993C62.1824 81.5067 62.3863 81.4056 62.5902 81.3045C62.6412 81.2793 62.6837 81.2456 62.7346 81.2119C62.7176 81.1866 62.7091 81.1698 62.7091 81.1445Z" fill="#D0985D"/>
<path fill-rule="evenodd" clip-rule="evenodd" d="M58.2572 84.3534C58.2572 86.1137 58.2572 87.874 58.2572 89.6427C58.2572 89.8365 58.2232 90.0302 58.2317 90.2155C58.2402 90.4092 58.1723 90.4681 57.9769 90.4681C57.2717 90.4597 56.558 90.4597 55.8529 90.4681C55.6659 90.4681 55.598 90.426 55.598 90.2239C55.598 86.518 55.598 82.8206 55.598 79.1147C55.598 78.9378 55.649 78.8704 55.8189 78.8452C56.575 78.7357 57.3312 78.6262 58.0873 78.5083C58.3082 78.4746 58.2657 78.6178 58.2657 78.7357C58.2657 80.1001 58.2657 81.4561 58.2657 82.8206C58.2572 83.3343 58.2572 83.8397 58.2572 84.3534Z" fill="#D0985D"/>
<path fill-rule="evenodd" clip-rule="evenodd" d="M42.3612 84.6482C42.3612 82.8206 42.3612 80.9845 42.3527 79.1568C42.3527 78.9378 42.4206 78.862 42.633 78.8367C43.3637 78.7357 44.0944 78.6262 44.825 78.5083C44.9695 78.483 45.0204 78.5335 45.0204 78.6767C45.0119 80.1759 45.0034 81.6751 44.9949 83.1743C44.9949 83.8144 44.9949 84.4545 44.9949 85.0946C44.9949 86.7875 44.9949 88.4804 45.0034 90.1734C45.0034 90.3923 44.9525 90.4682 44.7231 90.4597C44.0179 90.4429 43.3212 90.4513 42.6161 90.4597C42.4206 90.4597 42.3697 90.4008 42.3697 90.207C42.3697 88.3625 42.3697 86.5012 42.3612 84.6482C42.3697 84.6482 42.3697 84.6482 42.3612 84.6482Z" fill="#D0985D"/>
<path fill-rule="evenodd" clip-rule="evenodd" d="M83.4309 77.0091C83.0656 77.2786 82.7258 77.5313 82.3859 77.7671C82.3435 77.8008 82.2415 77.7924 82.2075 77.7587C81.2305 76.9585 80.2534 76.15 79.2764 75.3414C79.2679 75.3414 79.2764 75.3246 79.2679 75.2909C79.6757 75.0129 80.0835 74.7266 80.4998 74.4486C80.5423 74.4234 80.6442 74.4402 80.6782 74.4739C81.5873 75.3077 82.4964 76.1416 83.4309 77.0091Z" fill="#D0985D"/>
<path fill-rule="evenodd" clip-rule="evenodd" d="M63.3718 95.9849C63.3718 96.625 63.3718 97.2145 63.3718 97.8041C63.3718 98.6885 63.3633 99.5728 63.3803 100.457C63.3803 100.659 63.3124 100.744 63.1255 100.777C62.7601 100.836 62.3863 100.904 62.021 100.988C61.8341 101.03 61.7831 100.963 61.7831 100.794C61.7831 100.533 61.7831 100.272 61.7831 100.002C61.7321 100.002 61.6896 99.9939 61.6811 100.011C61.4432 100.331 61.1119 100.331 60.7636 100.322C60.2708 100.314 59.7695 100.339 59.2767 100.348C58.6141 100.356 58.0278 99.935 57.8494 99.2949C57.773 99.0001 57.7305 98.68 57.722 98.3768C57.705 97.4756 57.7305 96.5744 57.705 95.6648C57.6965 95.3784 57.756 95.1847 58.0448 95.0921C58.0958 95.0752 58.1383 95.0331 58.2657 94.9489C57.9684 94.9489 57.756 94.9405 57.5521 94.9489C57.3482 94.9573 57.2717 94.8899 57.3482 94.6878C57.4926 94.2751 57.62 93.8456 57.773 93.4329C57.8069 93.357 57.9429 93.2644 58.0278 93.2644C59.6676 93.256 61.3073 93.256 62.947 93.256C63.1424 93.256 63.2189 93.3149 63.1764 93.5255C63.1 93.9382 63.032 94.3593 62.981 94.772C62.9555 94.9657 62.8366 94.9489 62.7007 94.9489C61.7151 94.9489 60.7381 94.9489 59.7525 94.9489C59.6421 94.9489 59.5316 94.9489 59.4127 94.9489C59.3957 95.0415 59.3872 95.1089 59.3872 95.1763C59.3872 96.1702 59.3872 97.164 59.3872 98.1579C59.3872 98.4021 59.4467 98.6211 59.7355 98.6295C60.3982 98.6463 61.0694 98.6379 61.7406 98.6379C61.7406 98.2842 61.7406 97.9641 61.7406 97.602C61.4262 97.602 61.1374 97.5935 60.8485 97.602C60.6446 97.6104 60.5512 97.5514 60.5597 97.3325C60.5681 96.9619 60.5512 96.5913 60.5681 96.2207C60.5766 96.1365 60.6871 96.0017 60.7551 96.0017C61.6132 95.9764 62.4713 95.9849 63.3718 95.9849Z" fill="#D0985D"/>
<path fill-rule="evenodd" clip-rule="evenodd" d="M37.1701 94.8647C36.38 94.8647 35.6323 94.8815 34.8847 94.8562C34.6043 94.8478 34.5533 94.9489 34.5533 95.2016C34.5618 96.2291 34.5618 97.2651 34.5618 98.301C34.5618 98.4105 34.5703 98.5116 34.5788 98.6211C35.4624 98.6211 36.3205 98.6211 37.1701 98.6211C37.1701 97.3577 37.1701 96.128 37.1701 94.8647ZM34.6638 93.4497C34.7487 93.1128 35.0716 93.2054 35.3604 93.2054C36.2355 93.2054 37.1021 93.2054 37.9772 93.2054C38.351 93.2054 38.555 93.3234 38.6569 93.6771C38.7504 94.014 38.8098 94.3677 38.8098 94.7131C38.8268 96.2544 38.8183 97.8041 38.8183 99.3538C38.8183 100.028 38.538 100.314 37.8413 100.314C36.8558 100.314 35.8787 100.314 34.8932 100.314C34.5363 100.314 34.188 100.322 33.8312 100.314C33.3384 100.306 32.9731 99.9687 32.9731 99.4886C32.9646 97.5683 32.9646 95.6564 32.9731 93.7361C32.9731 93.6518 33.075 93.5171 33.1515 93.5002C33.5423 93.3992 33.9331 93.3065 34.3324 93.2476C34.4259 93.2223 34.5363 93.3655 34.6638 93.4497Z" fill="#D0985D"/>
<path fill-rule="evenodd" clip-rule="evenodd" d="M68.291 94.8647C67.5009 94.8647 66.7533 94.8815 66.0056 94.8562C65.7252 94.8478 65.6743 94.9489 65.6743 95.2016C65.6828 96.2291 65.6743 97.2651 65.6828 98.301C65.6828 98.4105 65.6913 98.5116 65.6998 98.6211C66.5833 98.6211 67.4414 98.6211 68.291 98.6211C68.291 97.3577 68.291 96.128 68.291 94.8647ZM65.7847 93.4497C65.8612 93.1128 66.1925 93.2054 66.4899 93.2054C67.365 93.2054 68.2316 93.2054 69.1066 93.2054C69.472 93.2054 69.6844 93.3234 69.7863 93.6771C69.8798 94.014 69.9393 94.3677 69.9393 94.7131C69.9563 96.2544 69.9478 97.8041 69.9478 99.3538C69.9478 100.028 69.6674 100.314 68.9707 100.314C68.0107 100.314 67.0421 100.314 66.0821 100.314C65.7167 100.314 65.3514 100.322 64.9861 100.314C64.4508 100.306 64.094 99.9687 64.094 99.4549C64.0855 97.543 64.0855 95.6395 64.1025 93.7361C64.1025 93.6518 64.2045 93.5171 64.2809 93.5002C64.6717 93.3992 65.0626 93.3065 65.4619 93.2476C65.5468 93.2223 65.6658 93.3655 65.7847 93.4497Z" fill="#D0985D"/>
<path fill-rule="evenodd" clip-rule="evenodd" d="M41.5456 95.7574C42.2422 95.6985 42.6245 95.3532 42.5906 94.8478C42.2422 94.8478 41.8939 94.8478 41.5456 94.8478C41.5456 95.1679 41.5456 95.4627 41.5456 95.7574ZM39.9568 97.3325C39.583 97.3914 39.5235 97.2145 39.5405 96.945C39.5575 96.7008 39.5575 96.4649 39.5405 96.2207C39.5235 95.9596 39.583 95.808 39.8888 95.8585C39.9313 95.8669 39.9823 95.8417 40.0503 95.8333C40.0503 95.4964 40.0503 95.1679 40.0503 94.8478C39.5405 94.7468 39.5405 94.7468 39.6 94.2414C39.6339 93.9045 39.6849 93.5676 39.7274 93.197C40.0248 93.197 40.3051 93.197 40.5855 93.197C41.4861 93.2054 42.3952 93.1718 43.2872 93.256C44.2048 93.3402 44.6551 94.1909 44.2898 95.05C44.1793 95.3111 44.0009 95.5553 43.848 95.8248C43.9244 95.8501 44.0009 95.8754 44.0774 95.8922C44.5871 96.0101 44.8335 96.3049 44.842 96.8355C44.8505 97.4335 44.842 98.0399 44.842 98.6379C44.842 99.7328 44.4002 100.272 43.3042 100.44C42.5906 100.55 41.9024 100.432 41.2142 100.112C41.3926 99.6402 41.571 99.1854 41.758 98.7053C42.0383 98.7727 42.3017 98.8569 42.5736 98.9074C43.0578 99.0001 43.1598 98.9411 43.2193 98.4611C43.2702 98.082 43.2618 97.703 43.2872 97.2988C42.701 97.2988 42.1488 97.2988 41.5456 97.2988C41.5456 97.5767 41.5795 97.8631 41.5371 98.1494C41.4776 98.5705 41.4266 99.0085 41.2822 99.4044C41.0613 100.028 40.492 100.356 39.8633 100.339C39.6594 100.331 39.5405 100.28 39.566 100.044C39.583 99.8086 39.566 99.5644 39.566 99.3201C39.566 99.1012 39.5065 98.8738 39.8209 98.7895C39.8973 98.7727 39.9483 98.5874 39.9568 98.4779C39.9653 98.1157 39.9568 97.7451 39.9568 97.3325Z" fill="#D0985D"/>
<path fill-rule="evenodd" clip-rule="evenodd" d="M47.4333 96.6502C47.8496 96.4818 48.2489 96.3217 48.6482 96.1617C49.2854 95.909 49.4299 95.5974 49.226 94.9152C48.6227 94.9152 48.028 94.9152 47.4078 94.9152C47.4078 95.429 47.4078 95.9175 47.4078 96.406C47.4163 96.4734 47.4248 96.5407 47.4333 96.6502ZM46.1589 94.8815C46.0145 94.8815 45.8615 94.8731 45.7171 94.8815C45.5387 94.8899 45.4452 94.8478 45.4877 94.6457C45.5812 94.2161 45.6576 93.7782 45.7596 93.3486C45.7766 93.2897 45.8955 93.2139 45.972 93.2139C47.3568 93.2054 48.7417 93.2054 50.135 93.2139C50.4664 93.2139 50.8147 93.4834 50.8232 93.8203C50.8487 94.6036 50.8402 95.3869 50.7807 96.1617C50.7467 96.6755 50.4239 97.0377 49.9481 97.2651C49.8037 97.3325 49.6678 97.4167 49.5063 97.5009C49.8292 98.1157 50.1605 98.6885 50.9252 98.8316C50.9846 98.8401 51.0696 98.9664 51.0696 99.0422C51.0526 99.4802 51.0016 99.9181 50.9761 100.365C50.9676 100.541 50.8742 100.567 50.7128 100.558C49.9651 100.491 49.3449 100.205 48.9201 99.5728C48.6227 99.1349 48.3424 98.68 48.0365 98.1915C47.8751 98.2673 47.6797 98.3431 47.5098 98.4611C47.4503 98.5032 47.4163 98.6295 47.4163 98.7222C47.4078 99.1854 47.4078 99.6486 47.4163 100.103C47.4248 100.297 47.3568 100.373 47.1529 100.365C46.7961 100.356 46.4478 100.356 46.0909 100.365C45.9295 100.365 45.8445 100.306 45.853 100.137C45.853 100.103 45.853 100.078 45.853 100.044C45.9465 99.2949 45.7766 98.5958 45.3858 97.9473C45.2668 97.7451 45.3093 97.6188 45.5217 97.5262C45.7681 97.4167 45.8615 97.2314 45.8445 96.9534C45.8191 96.5407 45.8445 96.128 45.853 95.7238C45.8615 95.429 45.7511 95.0921 46.2099 94.9657C46.2014 94.9236 46.1759 94.9068 46.1589 94.8815Z" fill="#D0985D"/>
<path fill-rule="evenodd" clip-rule="evenodd" d="M19.8382 94.9068C19.8382 96.1954 19.8382 97.4672 19.8382 98.7306C20.6623 98.8822 21.5714 98.36 21.7158 97.6104C21.8858 96.726 21.8603 95.8164 21.7923 94.9068C21.1381 94.9068 20.5094 94.9068 19.8382 94.9068ZM17.8247 98.7474C18.0116 98.7222 18.173 98.7053 18.3004 98.6885C18.2665 98.5369 18.2155 98.3937 18.2155 98.2505C18.207 97.2482 18.2155 96.2459 18.2155 95.2353C18.2155 95.1258 18.2155 95.0163 18.2155 94.9152C17.7227 94.831 17.7227 94.831 17.8077 94.3509C17.8671 93.9803 17.9351 93.6013 17.9946 93.2139C19.8212 93.2139 21.6309 93.2139 23.466 93.2139C23.4745 93.2812 23.4915 93.357 23.4915 93.4329C23.5 94.5699 23.5085 95.6985 23.5085 96.8355C23.5085 97.9136 23.0922 98.8232 22.3275 99.5812C21.8773 100.028 21.3335 100.272 20.7048 100.289C19.8467 100.314 18.9886 100.314 18.122 100.339C17.9181 100.348 17.8247 100.289 17.8332 100.07C17.8332 99.6486 17.8247 99.2191 17.8247 98.7474Z" fill="#D0985D"/>
<path fill-rule="evenodd" clip-rule="evenodd" d="M70.602 93.2223C71.0947 93.2223 71.5365 93.2307 71.9868 93.2223C72.1737 93.2223 72.2162 93.3402 72.1907 93.475C72.1312 93.795 72.2842 93.9129 72.5815 93.9803C73.3632 94.174 74.0173 94.5699 74.4846 95.2353C74.5101 95.2689 74.5441 95.3026 74.6291 95.3869C74.6291 94.7383 74.6461 94.1656 74.6206 93.5845C74.6121 93.2981 74.6885 93.1886 74.9944 93.2054C75.3172 93.2307 75.6401 93.2139 75.9629 93.2139C76.1584 93.2054 76.2348 93.2981 76.2348 93.4834C76.2348 95.3616 76.2433 97.2398 76.2263 99.118C76.2178 99.8171 75.6656 100.289 74.867 100.348C74.68 100.365 74.4846 100.348 74.2382 100.348C74.2382 99.8423 74.2383 99.3454 74.2467 98.8485C74.2467 98.8064 74.3317 98.7474 74.3827 98.7306C74.5951 98.6632 74.6546 98.4947 74.6546 98.3094C74.6461 97.7704 74.5356 97.2567 74.1108 96.8945C73.6435 96.4986 73.1508 96.128 72.6665 95.7574C72.556 95.6732 72.4031 95.6311 72.2162 95.5553C72.2077 95.7153 72.1907 95.8333 72.1907 95.9427C72.1907 97.2903 72.1822 98.6379 72.1992 99.9771C72.1992 100.255 72.1397 100.381 71.8339 100.356C71.5195 100.331 71.2052 100.339 70.8908 100.356C70.6614 100.365 70.585 100.28 70.5935 100.061C70.602 99.2275 70.5935 98.3937 70.5935 97.5599C70.5935 96.2123 70.602 94.8731 70.6105 93.5255C70.602 93.4413 70.602 93.357 70.602 93.2223Z" fill="#D0985D"/>
<path fill-rule="evenodd" clip-rule="evenodd" d="M26.5161 94.8984C26.5161 95.1342 26.5161 95.3026 26.5161 95.5132C26.6945 95.5132 26.8644 95.5132 27.0343 95.5132C27.6291 95.5132 28.2323 95.53 28.827 95.5048C29.1159 95.4964 29.1753 95.6143 29.1244 95.8669C29.0564 96.187 28.9969 96.5155 28.9544 96.8439C28.929 97.0292 28.8355 97.0714 28.6741 97.0714C28.0709 97.0629 27.4592 97.0629 26.8559 97.0545C26.737 97.0545 26.618 97.0545 26.4906 97.0545C26.4906 97.4167 26.4566 97.7536 26.4991 98.0736C26.5671 98.5453 26.7965 98.7222 27.2807 98.7306C27.7905 98.739 28.2918 98.739 28.8015 98.7306C29.0309 98.7222 29.1414 98.7727 29.0819 99.0338C29.0054 99.4044 28.9629 99.7834 28.8865 100.154C28.8695 100.23 28.7675 100.331 28.7081 100.331C27.9774 100.322 27.2467 100.348 26.5246 100.255C25.8194 100.154 25.3691 99.6234 25.1567 98.9832C25.0038 98.5369 25.0123 98.0399 24.9613 97.5683C24.9443 97.4082 24.9613 97.2482 24.9613 97.0629C24.7404 97.0629 24.545 97.0798 24.3666 97.0545C24.2901 97.0461 24.1627 96.9366 24.1627 96.8861C24.2137 96.4312 24.2816 95.9764 24.3496 95.5048C24.5705 95.5048 24.7744 95.5048 24.9953 95.5048C24.9953 95.2942 24.9953 95.1173 24.9953 94.8815C24.7914 94.8815 24.579 94.8731 24.3751 94.8815C24.2137 94.8899 24.1287 94.8478 24.1542 94.6541C24.2307 94.1824 24.2986 93.7108 24.3751 93.2223C24.494 93.2139 24.5875 93.2054 24.6894 93.2054C26.1168 93.2054 27.5441 93.2054 28.9714 93.2054C29.3538 93.2054 29.3538 93.2054 29.2603 93.576C29.1753 93.9214 29.0649 94.2751 28.9969 94.6204C28.9544 94.8562 28.8355 94.8984 28.6231 94.8984C27.9264 94.8899 27.2383 94.8984 26.5161 94.8984Z" fill="#D0985D"/>
<path fill-rule="evenodd" clip-rule="evenodd" d="M51.8427 93.2054C53.0492 93.2054 54.2046 93.2054 55.3686 93.2054C55.7594 93.2054 56.1587 93.2054 56.5495 93.2054C56.7364 93.2054 56.8044 93.2644 56.7534 93.4581C56.643 93.854 56.5325 94.2498 56.4476 94.6541C56.4051 94.8562 56.3116 94.9068 56.1162 94.9068C55.4196 94.8984 54.7229 94.8984 54.0007 94.8984C54.0007 95.1173 54.0007 95.2942 54.0007 95.4963C54.1027 95.4963 54.2131 95.5132 54.3236 95.5132C55.0033 95.5132 55.6829 95.5216 56.3541 95.5132C56.5495 95.5132 56.643 95.5722 56.6005 95.7743C56.5325 96.1449 56.4816 96.5239 56.3966 96.8945C56.3796 96.9619 56.2267 97.0545 56.1417 97.0545C55.5045 97.0629 54.8673 97.0629 54.2301 97.0461C54.0007 97.0377 53.8903 97.0966 53.9243 97.3493C53.9497 97.5851 53.9243 97.8294 53.9667 98.0652C54.0432 98.5369 54.2641 98.7222 54.7484 98.7306C55.2666 98.739 55.7764 98.739 56.2947 98.7306C56.5325 98.7222 56.592 98.8064 56.5495 99.0338C56.4731 99.4044 56.4306 99.7834 56.3541 100.162C56.3371 100.238 56.2352 100.348 56.1757 100.348C55.4366 100.331 54.6974 100.365 53.9667 100.263C53.2871 100.171 52.8792 99.6318 52.6244 99.0338C52.4969 98.7306 52.4629 98.3768 52.429 98.0399C52.395 97.7367 52.4205 97.4251 52.4205 97.0798C52.1911 97.0798 51.9872 97.0966 51.7918 97.0714C51.7238 97.0629 51.6133 96.9366 51.6218 96.8776C51.6643 96.4312 51.7408 95.9849 51.8088 95.5216C52.0296 95.5216 52.2336 95.5216 52.4544 95.5216C52.4544 95.3195 52.4544 95.1342 52.4544 94.8984C52.2505 94.8984 52.0466 94.8899 51.8427 94.8984C51.6473 94.9068 51.5878 94.8394 51.6218 94.6457C51.7068 94.1656 51.7663 93.7024 51.8427 93.2054Z" fill="#D0985D"/>
<path fill-rule="evenodd" clip-rule="evenodd" d="M67.9002 90.6703C68.1296 90.8556 68.3335 91.0156 68.5374 91.1756C68.6734 91.2767 68.6904 91.3778 68.5544 91.4957C68.1381 91.8326 67.7303 92.1695 67.314 92.5148C67.1866 92.6243 67.0846 92.6159 66.9826 92.4811C66.8722 92.3295 66.7448 92.1863 66.6173 92.0347C67.0506 91.5631 67.4669 91.1251 67.9002 90.6703Z" fill="#D0985D"/>
</svg>
